<?xml version="1.0" encoding="UTF-8"?>
<svg id="Layer_2" data-name="Layer 2" xmlns="http://www.w3.org/2000/svg" viewBox="0 0 524.27 900.88">
  <defs>
    <style>
      .cls-1 {
        fill: #f5a43c;
      }

      .cls-1, .cls-2, .cls-3, .cls-4, .cls-5, .cls-6, .cls-7, .cls-8, .cls-9, .cls-10, .cls-11, .cls-12 {
        stroke-width: 0px;
      }

      .cls-2 {
        fill: #204385;
      }

      .cls-3 {
        fill: #e41828;
      }

      .cls-4 {
        fill: #243e8f;
      }

      .cls-5, .cls-13 {
        fill: #fff;
      }

      .cls-6 {
        fill: #1f4485;
      }

      .cls-7 {
        fill: #fbe657;
      }

      .cls-8 {
        fill: #0f3e8b;
      }

      .cls-9 {
        fill: #f8ede3;
      }

      .cls-10 {
        fill: #de2429;
      }

      .cls-13 {
        font-family: Poppins-SemiBoldItalic, Poppins;
        font-size: 25.71px;
        font-style: italic;
        font-weight: 600;
      }

      .cls-11 {
        fill: #fde758;
      }

      .cls-12 {
        fill: #f3a23a;
      }
    </style>
  </defs>
  <g id="CHANTS_PAGE" data-name="CHANTS PAGE">
    <g>
      <path class="cls-2" d="M162.96,513.5c-15.76,0-25.91-1.65-27.33-1.9-54.29-8.78-91.44-30.29-110.22-63.91-26.01-46.57-5.4-97.69-4.51-99.85l32.99,13.63-16.49-6.82,16.52,6.75c-.15.37-14.88,37.8,2.79,69.13,13.24,23.47,41.78,38.9,84.81,45.86,4.54.76,108.61,16.85,180.63-79.89l28.63,21.32c-62.31,83.69-145.37,95.67-187.82,95.68Z"/>
      <path class="cls-12" d="M147.78,859.81l-21.72-28.33c72.61-55.67,61.68-157.49,61.56-158.52l35.44-4.24c.6,4.98,13.7,122.86-75.28,191.08Z"/>
      <path class="cls-12" d="M6.43,769.16l-4.81-35.37c94.06-12.78,100.43-89.38,100.66-92.63l35.63,2.16c-.07,1.14-1.81,28.24-19.05,57.08-15.87,26.56-48.25,60.04-112.43,68.76Z"/>
      <path class="cls-6" d="M177.26,899.64c-2.2,1.97-5.64,1.52-7.33-.91l-4.09-5.93-38.04-55.43c-1.67-2.44-.86-5.82,1.77-7.17,18.73-9.57,42.09-4,54.32,13.82,1.68,2.46,3.08,5.04,4.18,7.69,6.92,16.5,2.69,35.84-10.81,47.94Z"/>
      <path class="cls-6" d="M17.79,817.42c-2.83.82-5.75-1.08-6.2-4l-1.43-9.14L.06,739.9c-.47-2.92,1.74-5.63,4.7-5.7,21.02-.56,39.68,14.57,43.03,35.89.05.34.11.7.14,1.04,2.76,20.93-10.29,40.48-30.14,46.29Z"/>
      <path class="cls-7" d="M221.59,696.95c-3.16.95-6.52,1.72-10,2.25-21.31,3.28-39.04-3.12-39.63-14.31-.26-4.94,2.89-9.96,8.28-14.33,2.06-1.66,1.86-5.38-.32-6.37-5.77-2.65-9.39-6.64-9.65-11.56-.26-4.94,2.89-9.98,8.28-14.35,2.06-1.64,1.86-5.36-.34-6.37-5.75-2.63-9.37-6.62-9.63-11.56-.57-11.19,16.21-22.93,37.52-26.21,2.98-.47,5.91-.73,8.72-.81-16.33,4.84-28.05,14.61-27.56,23.98.26,4.94,3.85,8.93,9.63,11.56,2.17,1.01,2.37,4.72.34,6.37-5.4,4.37-8.54,9.41-8.28,14.35.26,4.92,3.85,8.92,9.63,11.56,2.19.99,2.37,4.7.34,6.37-5.4,4.37-8.54,9.39-8.28,14.33.51,9.63,13.7,15.72,30.96,15.1Z"/>
      <path class="cls-6" d="M249.11,672.97c.47,9.37-11.19,19.11-27.52,23.98-17.26.61-30.44-5.48-30.96-15.1-.26-4.94,2.89-9.96,8.28-14.33,2.04-1.66,1.86-5.38-.34-6.37-5.77-2.65-9.37-6.64-9.63-11.56-.26-4.94,2.89-9.98,8.28-14.35,2.04-1.64,1.84-5.36-.34-6.37-5.77-2.63-9.37-6.62-9.63-11.56-.49-9.37,11.23-19.13,27.56-23.98,17.22-.59,30.4,5.48,30.9,15.1.26,4.94-2.87,9.98-8.28,14.35-2.04,1.64-1.84,5.36.34,6.37,5.77,2.63,9.37,6.62,9.63,11.56.26,4.92-2.87,9.96-8.26,14.33-2.06,1.66-1.86,5.36.32,6.37,5.77,2.65,9.39,6.64,9.65,11.56Z"/>
      <path class="cls-12" d="M224.5,578.63c-30.11-11.16-54.17-14.77-71.7-15.32-22.36-.68-34.08,3.62-34.08,3.62,0,0,5.05-43.31,12.76-67.02,6.31-19.46,17.51-43.37,40.34-42.94,4.96.07,10.52,1.33,16.67,4.03,34.41,15.07,36.02,117.63,36.02,117.63Z"/>
      <circle class="cls-12" cx="147.58" cy="405.73" r="39.64"/>
      <g>
        <path class="cls-10" d="M137.9,412.17c1.96,1.81,3.12,4.46,3.13,7.12,0,1.22-.23,2.47-.86,3.52-.64,1.06-1.64,1.86-2.7,2.49-2.14,1.29-4.67,2-7.16,1.76-2.49-.24-4.91-1.49-6.35-3.53-1.64-2.33-1.84-5.52-.75-8.15,2.64-6.36,9.63-7.89,14.68-3.22Z"/>
        <path class="cls-10" d="M181.17,391.89c1.76,1.63,2.81,4.01,2.82,6.41,0,1.1-.21,2.22-.77,3.17-.57.95-1.47,1.67-2.43,2.24-1.93,1.16-4.2,1.8-6.44,1.59s-4.42-1.34-5.71-3.18c-1.47-2.1-1.66-4.97-.67-7.33,2.38-5.73,8.66-7.1,13.21-2.9Z"/>
        <path class="cls-2" d="M165.26,413.11l-2.18-.46c.29-1.38.52-2.77.69-4.18-1.83.43-3.53.42-5.07-.03-2.98-.87-4.75-3.3-4.99-6.83l2.23-.15c.17,2.6,1.31,4.23,3.39,4.83,1.91.56,3.96.08,5.34-.43l1.65-.6-.16,1.75c-.18,2.04-.49,4.08-.91,6.08Z"/>
        <g>
          <path class="cls-5" d="M148.04,403.54c-1.61-1.81-3.67-2.33-6.04-2.22-1.23.06-2.49.32-3.66.75-3.22,1.17-5.99,3.65-6.44,7.19-.47,3.75,4.4,4.63,7.23,4.26,1.39-.18,2.75-.59,4.01-1.19.83-.4,1.6-.89,2.3-1.47,1.9-1.57,4.51-5.17,2.6-7.32Z"/>
          <path class="cls-2" d="M148.04,403.54c-1.61-1.81-3.67-2.33-6.04-2.22-1.23.06-2.49.32-3.66.75-.89,1.28-1.19,2.95-.89,4.53.34,1.73,1.34,3.3,2.69,4.46.88.77,1.92,1.17,3.01,1.26.83-.4,1.6-.89,2.3-1.47,1.9-1.57,4.51-5.17,2.6-7.32Z"/>
        </g>
        <g>
          <path class="cls-5" d="M168.81,387.03c-2.36-.56-4.34.2-6.22,1.66-.97.75-1.85,1.69-2.56,2.72-1.97,2.81-2.81,6.43-1.13,9.59,1.77,3.34,6.27,1.26,8.36-.67,1.03-.95,1.91-2.06,2.6-3.28.45-.8.8-1.65,1.04-2.52.66-2.37.71-6.83-2.08-7.49Z"/>
          <path class="cls-2" d="M168.81,387.03c-2.36-.56-4.34.2-6.22,1.66-.97.75-1.85,1.69-2.56,2.72,0,1.56.72,3.1,1.87,4.22,1.27,1.22,2.99,1.93,4.77,2.11,1.16.13,2.24-.14,3.19-.7.45-.8.8-1.65,1.04-2.52.66-2.37.71-6.83-2.08-7.49Z"/>
        </g>
        <path class="cls-2" d="M157.05,432.48c-7.04-.58-13.49-5.67-15.69-12.38l-.62-1.89,1.94.46c9.03,2.14,19.02.3,26.7-4.91l1.25,1.85c-7.61,5.16-17.33,7.21-26.4,5.65,2.41,4.95,7.5,8.54,13,8.99l-.18,2.22Z"/>
      </g>
      <path class="cls-12" d="M109.83,417.81c-2.07-.58-4.67.25-5.37,2.28-.33.95-.2,1.99.03,2.96.83,3.54,2.95,6.75,5.88,8.9,1.99,1.46,6.85,3.4,8.58.49.73-1.23.08-3.22-.27-4.5-.43-1.54-1.07-3.03-1.9-4.41-1.58-2.62-3.95-4.89-6.95-5.73Z"/>
      <path class="cls-2" d="M114.92,427.79c-.33-2.48-1.9-4.75-4.1-5.93l1.05-1.97c2.82,1.51,4.84,4.43,5.26,7.61l-2.21.29Z"/>
      <path class="cls-2" d="M181.82,381.73c.1-5.93-1.71-11.95-5.42-16.57-2.12-2.64-4.88-4.75-7.96-6.14.28-.97.51-1.94.65-2.92.48-3.48-.19-7.21-2.35-9.99-.72-.93-1.64-1.76-2.77-2.08-3.46-.99-6.38,2.71-7.5,5.52,1.33-3.33.17-7.72-3.06-9.27-1.5-.72-3.21-.32-4.59.51-.72.43-1.36.98-1.93,1.59-.28.31-.54.64-.78.98-.15.23-.31.69-.61.72-.1-.83-.07-1.57-.41-2.37-.3-.71-.77-1.37-1.29-1.91-1.77-1.85-4.45-2.28-6.83-1.49-4.43,1.47-6.96,5.71-8.05,10.02-.21.83-.38,1.67-.62,2.49-.96,3.35-2.56,5.88-4.97,8.4-5.66,5.92-12.79,10.46-17.35,17.4-8.53,12.99-4.01,30.35,3.86,42.39,1.37-3.77,5.6-5.47,8.8-7.89,7.01-5.31,8.3-12.92,8.2-21.09-.03-2.16-.11-4.32-.16-6.48,3.27-.42,6.59-.47,9.88-.78,2.13-.2,4.27-.53,6.37-1.03,6.15-1.46,11.96-4.58,16.61-8.86,1.19-1.1,2.34-2.33,3.41-3.66,7.74,3.26,14.29,8.9,18.62,16.1.04-.97.02-2-.04-3.03.22-.05.28-.34.29-.57Z"/>
      <path class="cls-7" d="M171.81,456.97c-1.81,1.79-3.71,3.62-4.5,5.09-8.66,16.16-12.36,34.51-14.52,52.7-1.92,16.11-2.65,32.63,0,48.55-22.36-.68-34.08,3.62-34.08,3.62,0,0,5.05-43.31,12.76-67.02,6.31-19.46,17.51-43.37,40.34-42.94Z"/>
      <path class="cls-12" d="M17.79,817.42c-2.83.82-5.75-1.08-6.2-4l-1.43-9.14c7.71-1.54,15.07-4.87,21.24-9.75,7.19-5.7,12.24-13.15,15.72-21.58.27-.66.56-1.27.82-1.83,2.76,20.93-10.29,40.48-30.14,46.29Z"/>
      <path class="cls-12" d="M177.26,899.64c-2.2,1.97-5.64,1.52-7.33-.91l-4.09-5.93c2.63-2.29,4.82-4.37,5.48-5.07,5.32-5.45,9.62-11.86,12.71-18.82,2.4-5.45,2.69-11.58,4.03-17.2,6.92,16.5,2.69,35.84-10.81,47.94Z"/>
      <path class="cls-2" d="M117.4,568.6l.21-1.8c.05-.43,5.15-43.7,12.81-67.24,9.64-29.75,23.15-44.07,41.42-43.71l-.04,2.23c-17.22-.37-29.96,13.47-39.26,42.17-6.72,20.67-11.47,56.83-12.5,65.09,4.02-1.15,15.04-3.68,32.8-3.15l-.07,2.23c-21.84-.67-33.55,3.51-33.67,3.55l-1.7.62Z"/>
      <polygon class="cls-10" points="158 482.68 162.11 502.83 180.24 493.39 167.23 509.26 185.74 517.46 165.4 517.27 170.34 536.76 158 520.83 145.65 536.76 150.6 517.27 130.26 517.46 148.77 509.26 135.75 493.39 153.89 502.83 158 482.68"/>
      <path class="cls-2" d="M128.35,832.69l-.72-2.11c7.12-2.42,12.56-8.36,17.37-13.6,7.09-7.73,14.43-15.72,19.03-25.3l2.01.97c-4.75,9.88-12.2,17.99-19.4,25.84-4.99,5.44-10.64,11.59-18.29,14.2Z"/>
      <path class="cls-2" d="M3.4,736.6l-.25-2.22c21.36-2.39,42.29-9.66,60.52-21.04l1.18,1.89c-18.52,11.55-39.77,18.94-61.46,21.36Z"/>
      <path class="cls-2" d="M200.67,701.18c-10.28,0-19.21-2.37-24.6-6.75-3.23-2.63-5.04-5.9-5.23-9.47-.27-5.16,2.74-10.44,8.69-15.26.74-.6,1.13-1.68.99-2.76-.1-.82-.5-1.47-1.07-1.73-6.37-2.93-10.03-7.37-10.3-12.52-.27-5.1,2.82-10.52,8.69-15.28l1.4,1.73c-5.3,4.29-8.1,9.06-7.87,13.42.22,4.28,3.42,8.05,9,10.61,1.27.58,2.15,1.88,2.36,3.47.24,1.86-.46,3.69-1.8,4.77-5.3,4.29-8.1,9.05-7.87,13.41.16,2.97,1.64,5.61,4.41,7.86,6.78,5.51,19.79,7.59,33.94,5.41l.34,2.2c-3.8.58-7.52.87-11.09.87Z"/>
      <path class="cls-7" d="M56.17,479.16c-10.65-6.59-20.76-20.28-25.84-27.85-9.42-14.04-14.37-35.73-14.98-49.94l2.23-.1c.6,13.91,5.43,35.11,14.6,48.8,4.98,7.42,14.87,20.83,25.17,27.2l-1.17,1.9Z"/>
      <path class="cls-9" d="M124.04,604.02c1.75,1.89.43,5.62-2.27,6.42-7.15,2.1-12.35,5.77-14.1,10.75-1.77,5,.19,10.42,4.86,15.42,1.75,1.91.43,5.64-2.27,6.44-7.15,2.1-12.35,5.77-14.1,10.75-3.07,8.73,5.19,18.88,19.48,25.59-1.83-.37-3.67-.8-5.54-1.3-22.26-6.01-37.47-19.37-33.97-29.86,1.56-4.61,6.49-7.89,13.43-9.6,2.62-.66,3.79-4.12,2-5.97-4.74-4.86-6.84-10.03-5.31-14.66,1.56-4.63,6.49-7.89,13.44-9.62,2.62-.64,3.79-4.12,2-5.95-4.74-4.86-6.84-10.05-5.31-14.66,3.03-9.02,18.88-12.97,37.43-10.09-7.45,2.06-12.85,5.81-14.64,10.93-1.77,5,.19,10.42,4.86,15.44Z"/>
      <path class="cls-6" d="M177.05,609.48c-1.56,4.63-6.49,7.89-13.43,9.6-2.62.66-3.79,4.12-2,5.97,4.74,4.86,6.84,10.03,5.31,14.66-1.56,4.63-6.49,7.91-13.44,9.62-2.62.64-3.79,4.12-2,5.95,4.74,4.86,6.84,10.05,5.31,14.68-3.23,9.6-21.06,13.45-41.14,9.41-14.29-6.71-22.55-16.86-19.48-25.59,1.75-4.98,6.94-8.65,14.1-10.75,2.7-.8,4.02-4.53,2.27-6.44-4.67-5-6.63-10.42-4.86-15.42,1.75-4.98,6.94-8.65,14.1-10.75,2.7-.8,4.02-4.53,2.27-6.42-4.67-5.02-6.63-10.44-4.86-15.44,1.79-5.11,7.19-8.87,14.64-10.93,3.03.47,6.12,1.13,9.25,1.96,22.28,6.01,37.47,19.38,33.97,29.86Z"/>
      <path class="cls-2" d="M99.03,675.47c-17.39-7.3-27.02-18.4-23.95-27.61,1.62-4.81,6.67-8.47,14.23-10.34,1.07-.27,1.69-1.18,1.91-1.94.24-.83.07-1.64-.44-2.17-5.2-5.32-7.18-10.93-5.56-15.79,1.64-4.86,6.55-8.44,14.22-10.35l.54,2.17c-6.8,1.69-11.29,4.85-12.65,8.9-1.33,4.02.46,8.82,5.05,13.52,1.08,1.11,1.44,2.73.98,4.34-.49,1.74-1.84,3.08-3.51,3.5-6.79,1.67-11.28,4.83-12.65,8.88-2.64,7.91,6.7,18.12,22.7,24.84l-.86,2.06Z"/>
      <g>
        <polygon class="cls-8" points="258.77 258.16 280.76 312.73 262.82 324.76 238.25 263.78 258.77 258.16"/>
        <g>
          <path class="cls-8" d="M290.36,285.79l7,17.36c2.22,5.5,2.86,11.32,2.16,16.93-1.52,12.23-9.43,23.48-21.41,28.31l7,17.36,21.09-8.5,4,9.92-52.09,20.99-4-9.92,21.09-8.5-7-17.36c-17.48,7.04-38.19-1.77-45.24-19.25l-7-17.36,9.92-4,7,17.36c4.88,12.1,19.22,18.2,31.32,13.33l9.92-4c8.96-3.61,14.64-12.41,14.99-21.65.12-3.24-.4-6.53-1.67-9.67l-7-17.36,9.92-4Z"/>
          <path class="cls-12" d="M248.02,274.02l2,4.96,14.99-6.04,2,4.96-14.99,6.04,2,4.96,14.99-6.04,2,4.96-14.99,6.04,2,4.96,14.99-6.04,2,4.96-14.99,6.04,2,4.96,14.99-6.04,2,4.96-14.99,6.04,2,4.96,14.74-5.94c1.45,7.13-2.31,14.94-8.98,18.02-.22.1-.43.2-.66.29l-9.92,4c-7.93,3.19-17.68-.96-20.88-8.89l-19.99-49.61c-2.13-5.28-1-11.37,2.34-15.8,1.67-2.22,3.9-4.02,6.55-5.08l9.92-4c7.09-2.86,15.62.17,19.64,6.51l-14.74,5.94,2,4.96,14.99-6.04,2,4.96-14.99,6.04Z"/>
        </g>
        <path class="cls-11" d="M273.33,370.5l-6.27-15.56c-18.06,6.11-38.77-3.19-45.97-21.06l-7-17.36,3.71-1.49,7,17.36c6.64,16.47,26.17,24.79,42.64,18.14l1.85-.75,7.74,19.22-3.71,1.49Z"/>
        <path class="cls-3" d="M271.77,330.75c-.22.1-.43.2-.66.29l-9.92,4c-7.93,3.19-17.68-.96-20.88-8.89l-19.99-49.61c-2.13-5.28-1-11.37,2.34-15.8.44,3.27.73,6.69,1.24,8.43,6.1,21.11,18.53,40.44,35.57,54.37,3.7,3.02,7.77,5.88,12.3,7.21Z"/>
        <path class="cls-1" d="M290.36,285.79l7,17.36c2.22,5.5,2.86,11.32,2.16,16.93-3.13-1.26-7.45-2.32-10.41-3.26.12-3.24-.4-6.53-1.67-9.67l-7-17.36,9.92-4Z"/>
        <rect class="cls-3" x="301.75" y="358.12" width="6.68" height="10.7" transform="translate(-113.73 140.36) rotate(-21.95)"/>
        <path class="cls-11" d="M255.57,338.1c-7.21,0-14.34-4.35-17.11-11.21l-19.99-49.61c-2.32-5.75-1.32-12.55,2.59-17.75l3.2,2.41c-3.08,4.09-3.87,9.39-2.08,13.85l19.99,49.61c2.8,6.94,11.34,10.58,18.28,7.78l9.92-4,1.49,3.71-9.92,4c-2.05.83-4.21,1.22-6.37,1.22Z"/>
      </g>
    </g>
    <polygon class="cls-12" points="21.95 506.82 33.16 527.13 49.49 510.85 40.83 532.31 63.51 534.91 41.56 541.55 53.45 560.86 34.8 547.88 26.88 569.18 25.63 546.53 3.81 553.59 20.97 538.53 1.62 525.84 24.32 529.9 21.95 506.82"/>
    <polygon class="cls-9" points="438.5 412.99 470.12 421.27 469.37 388.78 482.87 418.47 507.54 397.83 493.01 426.69 524.27 433.32 492.9 439.75 506.95 468.52 482.62 447.8 468.64 476.93 469.92 444.79 438.17 452.21 464.36 432.98 438.5 412.99"/>
    <path class="cls-6" d="M134.68,225.38c3.89-.36,7.33.65,9.72,2.88l-6.46,6.93c-.32-.3-1.29-.53-2.7-.35-3.4.44-6.8,2.68-9.11,5.93,4.22,2.86,7.6,7.24,9.56,12.4,1.54,4.07,1.98,7.98,1.29,11.62-1.03,5.45-5.02,9.5-9.73,9.89-2.62.21-5.36-.73-7.71-2.62-4.27-3.44-6.59-9.19-6.71-16.63-.05-3.21.24-6.28.87-9.16-1.87-.09-3.66.22-5.1.97-3.09,1.6-5.56,4.19-7.42,7.21,7.2,5.53,11.86,14.26,12.19,23.39.07,1.89.01,4.71-1.3,7.43-1.59,3.29-4.69,5.48-8.01,5.7-1.49.1-3-.17-4.63-.83-6.98-2.82-11.38-10.45-11.74-20.41-.13-3.45.35-7.24,1.42-10.98-1.31-.34-2.73-.51-4.14-.29-2.12.33-3.99,1.68-4.54,3.29l-8.95-3.1c1.7-4.93,6.43-8.68,12.03-9.55,2.98-.47,6.15-.16,9.34.88,2.73-4.62,6.52-8.63,11.38-11.16,4.11-2.14,8.73-2.45,12.95-1.67.05-.09.1-.18.16-.26,3.8-6.3,10.03-10.59,16.67-11.45.22-.03.44-.05.66-.07ZM126.52,265.24c.23-.11.92-.99,1.15-2.2.35-1.87.06-4.12-.84-6.51-.96-2.53-2.41-4.74-4.19-6.44-.24,1.64-.35,3.38-.32,5.19.05,3.16.64,7.36,3.18,9.41.55.45.95.55,1.03.55ZM103.33,281.49c.07-.07.16-.19.23-.33.3-.61.42-1.58.37-2.96-.19-5.27-2.59-10.48-6.32-14.28-.35,1.89-.5,3.75-.44,5.48.17,4.51,1.79,10.35,5.82,11.97.15.06.26.1.34.12Z"/>
    <g>
      <path class="cls-4" d="M458.61,654.6c12.39-8.18,9.47-28.78-4.67-33.24.09-7.69-5.23-15.23-12.57-17.68.12-7.85-5.51-15.53-12.98-17.85,11.95-13.49,35.91-28.08,18.14-47.79-8.04-7.84-20.96-7.68-28.81.37l-42.15,43.23c-11.05-2.92-20.39,5.5-27.06,14.44l.06.17c-13.11,18.31-14.56,41.21-14.57,50.32l-9.92,10.17,52.44,51.14,9.53-10.03c46.12-1.78,44.16-26.9,72.56-43.24Z"/>
      <g>
        <text class="cls-13" transform="translate(350.9 659.25) rotate(44.28)"><tspan x="0" y="0">#1</tspan></text>
        <g>
          <path class="cls-4" d="M382.89,689.53c25.51,3.01,40.71-14.15,40.71-14.15l18.19-18.66-54.06-43.76c2.36-.47,4.6-1.63,6.4-3.48l47.03-48.22c2.38-2.44,3.54-5.61,3.5-8.76-.04-3.15-1.28-6.29-3.72-8.67-4.87-4.75-12.67-4.65-17.43.22l-47.03,48.22c-2.38,2.44-3.54,5.6-3.5,8.76l-10.9-7.96c-22.13,20.22-19.94,56.71-19.94,56.71l-6.66,6.83,40.84,39.83,6.57-6.91Z"/>
          <g>
            <path class="cls-5" d="M337.38,657.23s.07.01.11,0c-.06-.02-.1-.02-.11,0Z"/>
            <path class="cls-5" d="M346.5,623.37l-.07.43c.07-.28.08-.39.07-.43Z"/>
            <path class="cls-5" d="M353.29,673.02s-.03-.01-.05-.02c.25.25.59.58,1.14,1.13l-1.09-1.1Z"/>
            <path class="cls-5" d="M393.92,577.13l-.35.37c.16-.16.27-.26.35-.37Z"/>
            <path class="cls-5" d="M361.76,595.54c.02-.06.07-.13.13-.2-.08.07-.14.14-.13.2Z"/>
            <path class="cls-5" d="M360.77,682.58l-.39-.53s.11.24.39.53Z"/>
            <path class="cls-5" d="M378.24,695.14s-.03,0-.07.03c-.02.04.01.01.07-.03Z"/>
            <path class="cls-5" d="M371.46,691.78c-.15-.13-.32-.27-.5-.42.2.19.45.43.5.42Z"/>
            <path class="cls-5" d="M370.72,691.16c.08.06.16.13.24.2-.13-.12-.23-.21-.24-.2Z"/>
            <path class="cls-5" d="M386.56,688.44c-.64-.04-1.2.03-1.79.03.6.02,1.19-.02,1.79-.03Z"/>
            <path class="cls-5" d="M442.67,552.54l-.05-.12c.02.11.03.13.05.12Z"/>
            <path class="cls-5" d="M385.7,689.35l-.46-.05c.17.03.32.04.46.05Z"/>
            <path class="cls-5" d="M351.81,674.25c-.55-.39-1.44-1.44-1.51-1.35.52.48,1.18,1.24,1.51,1.35Z"/>
            <path class="cls-5" d="M438.55,566.89l-.3.32c.15-.15.24-.25.3-.32Z"/>
            <path class="cls-5" d="M385.7,689.35l.54.05s-.1-.04-.16-.06c-.12,0-.25.01-.38,0Z"/>
            <path class="cls-5" d="M393.09,607.64l.02-.02s.06-.08.09-.12l-.11.14Z"/>
            <path class="cls-5" d="M390.31,609.68c.2-.12.38-.25.58-.4-.32.2-.48.31-.58.4Z"/>
            <path class="cls-5" d="M384.77,688.47h-1.02c.37,0,.7,0,1.02,0Z"/>
            <path class="cls-5" d="M417.35,639.57c-.11-.08-.22-.16-.32-.24.13.11.24.19.32.24Z"/>
            <path class="cls-5" d="M359.74,597.58c-.07.07-.17.16-.25.24,0,.04.02.04.25-.24Z"/>
            <polygon class="cls-5" points="376.96 589.82 376.97 589.81 376.97 589.81 376.96 589.82"/>
            <path class="cls-5" d="M375.94,591.07c.37-.34.82-.91,1.03-1.25-.35.36-.67.72-1.03,1.25Z"/>
            <path class="cls-5" d="M379.42,587.38s-.09.08-.14.13c.05-.04.1-.08.14-.13Z"/>
            <path class="cls-5" d="M358.34,594.65s0,0,0,0c0,0,0-.02,0-.02h-.01Z"/>
            <path class="cls-5" d="M365.18,593.43c.08.08.2.19.33.3-.07-.08-.18-.18-.33-.3Z"/>
            <path class="cls-5" d="M390.37,575.72s0,0,0,0c.01-.01.01-.01.02-.03,0,0-.01.01-.02.02Z"/>
            <path class="cls-5" d="M438.04,539.08c-1.68-.69-3.62-1.1-5.63-1.08-2,0-4.07.45-5.94,1.31-.93.44-1.83.95-2.64,1.56-.4.31-.82.61-1.17.96-.36.34-.75.7-1.02.99-1.16,1.21-2.3,2.37-3.36,3.44-.76,1.09-2.09,2.47-3.39,3.88l-.35-.06-1.05,1.21c-.52.4.82-.92-.06-.17l-.29.56c-.16.02-2.92,2.9-1.2.83l-4.35,4.46c-.97.98-.39.75-1.5,1.79-.28.16.34-.43.18-.42-3.35,3.12-3.28,4.18-6.35,7.13l.22-.29c-.45.57-1.42,1.55-1.4,1.6.59-.18.42-.66,1.45-1.47.1.26-1.03,1.25-.84,1.33-.76.65-1.07,1.17-1.66,1.8-1.15.95-2.55,2.55-3.47,3.21-.45.57-.84,1.33-1.92,2.45-.92.66.05-.32-1.06.72l-.07.28c-.89.88-.78.71-.8.63-.94.95-.63.93-1.87,2.07l.55-.77c-.83.93-1.19,1.27-2.41,2.49-.03-.09.45-.58.82-.92-.81.52-1.05,1.21-1.42,1.56.15-.06,1-.89.69-.38-.62.59-1.13,1.44-1.68,1.76l.55-.77c-1.17,1.36-.54.81-2.01,2.24.07-.09,0-.07.02-.13-.77,1.06-2.08,2.15-3.42,3.51l.23-.29c-.5.59-.71.98-1.01,1.27.82-.72.64-.48.81-.45-1.18.87-1.34,1.77-3.09,3.36-.03-.08.29-.56.81-.96.39-.75.31-.96,1.23-2.07-.58.68-1.29,1.46-1.21,1.22l-.03.36c-.38.39-.68.69-.97.98-.06.27.93-.62.12.35-.93,1.06-.69.37-.77.6-.32.36-.51.59-.63.75-.13.17-.18.27-.24.36-.11.18-.24.33-.88,1.11.1-.17.31-.51.45-.63-.5.53-1.01,1.27-1.4,1.94-.39.66-.67,1.24-.88,1.39.03-.22-.04-.3.23-.8l.03.04c.28-.78.13-.47-.07-.03-.21.44-.43,1.02-.45.74.09-.03-.08.45-.27,1.05-.05.18-.11.38-.17.56-.03.11-.06.21-.08.29.05.01.11.02.16.02.04.4.05.65.04.74-.01.09-.05.03-.09-.05-.09-.18-.24-.43-.27-.11,0,.02,0,.05,0,.07v.04s0,.02,0,.02h-.02c-.47-.21.25.23-.02.18-.22-.18-.37-.34-.52-.49-.16-.15-.3-.28-.59-.45,0-.02-.16-.16-.27-.26-.12-.12-.24-.24-.36-.35-.23-.23-.41-.45-.38-.55-.91-.57-2.57-1.98-3.17-2.19,1.38,1.2,1.59.91,3.16,2.37l-.59-.2c-1.19-.88-2.77-1.92-3.55-2.57.15.15.19.24.06.2-1.08-.71-1.78-1.17-2.48-1.63-.2-.14-.41-.27-.62-.41-.1-.07-.21-.14-.32-.22l-.16-.11s-.05.02-.08.04l-.07.08c-.4.4-.84.83-1.41,1.36-.19.07.04-.21.46-.63.21-.21.45-.45.71-.7l.19-.19.1-.09s.06-.08.1-.03c.14.1.29.21.42.31-.1-.09-.2-.17-.29-.24-.09-.07-.18-.2-.26-.07-.15.14-.29.26-.41.37-.26.24-.48.45-.72.7-.41.4-.9.88-1.85,1.81-.09,0,.15-.27.44-.54.17-.17.36-.35.51-.5.19-.2.35-.37.4-.47l-1.09,1.08c-.28.27-.52.58-.78.87,0-.01-.01-.01-.02-.02-.04.42-1.25,1.27-2.08,2.44-1.1,1.29-1.57,2.15-1.96,2.83-.39.68-.6,1.26-1.03,2.08-.33.38-.47.47-.4.26.55-.62.39-.55.5-.83-.3.48-.7.96-.98,1.25-.28.29-.44.4-.33.1-.87,1.59.44-.49-.06.5-.42.7-.87,1.4-1.27,2.11.25-.2.71-.93.16.23-.47.96-.77,1.39-1.4,2.64.03-.21-.37.31.1-.63-.34.59-.81,1.54-.88,1.96.39-.66.13-.09-.12.54-.24.63-.49,1.31-.17.83l-.72,1.35c.14-.32.08-.39.31-.85-.35.32-.46,1.17-.63,1.67-.23.49-.77,1.77-.87,1.86-.11.47-.55,1.57-.72,1.75-.21.69.1.1.09.31l-.77,2.31c-.14.09-.48.2-.41-.16-.18.92.2.41-.2,1.75.03-.83-.66,1.73-.58.55-.36.73-.93,2.96-1.14,4.2-.02.8.39-1.31.54-1.19-.38,1.73-.44,2.67-.49,3.5-.06.82-.08,1.53-.35,2.79l.16-.65c-.19,1.6-.16,1.42-.17,2.37-.13-.47-.85,1.72-1.08,4.37.08.23.36-1.45.48-1-.05.58-.12,1.16-.16,1.75-.03.12-.04-.07-.05-.3-.09,1.57-.52,2.9-.32,3.37l-.4,1.58.17-.63c.08.22.03,1.99.06,2.36.05,1.8-.03,2.46-.16,3.45.08-.32.27-1.1.31.32-.1,0-.16.28-.17.68,0,.16,0,.34-.01.53,0,.14,0,.28,0,.41-.22.23-.41.4-.45.35-.09.09-.2.19-.31.3-.13.12-.26.25-.38.36-.24.23-.42.43-.39.5l-.08-.21c.12.3-1.34,1.77-2.41,2.94-.02-.27-.31.05-.7.47-.24.25-.57.61-.87.89-.31.29-.61.54-.9.71,0,.13-.29.48-.68.92.93.84,2.12,2.03,2.42,2.1.16.16.25.24.32.33.08.08.14.16.19.22.1.13.16.23.19.31.07.16.04.26.12.39l.48.33c.35.52,1.98,2.13,2.89,3.14l1.07.72.26.4c.19.1.96.81.56.29l.48.49c.22-.15.74.62,1.8,1.5.2.25.09.24-.14.05.49.48.18.37.39.69-.3-.39,2.08,1.39.85.02-.02-.16.81.53,1.25,1.03l.13.45.75.39c.78.71.99,1.13,1.59,1.74-.63-.6-1.7-1.03-.08.53-.87-.8-1.37-1.12-1.85-1.51.33.33.48.51-.11.07,1.31,1.18.52.31,1.79,1.5-.21.08.09.47,1.13,1.58l-.71-.9c.06.02.12.06.19.11-.29-.32-.36-.43-.37-.55.24.24,1.62,1.22,1.74,1.52-1.03-1.45,2.36,1.95,1.7,1.03.18.1,1.06.94,1.08,1.1-1.15-.9.62.93.35.87.43.33-.71-.91-.13-.45.63.6,1,1.13,1.3,1.52l-.29-.22.89,1c.23.08-.81-1.03.12-.21.2.26,1.12,1.08,1.04,1.12-.52-.31-.35.13-1.12-.58.64.6,2.64,2.52,1.97,1.6l.74.73c-.41-.52-1.61-1.91-.09-.47l-.04.02,1.15.9.38.52c.02-.05.22.07.6.45.06.14.4.52.32.55,1.13,1.08,1.11.92,1.3,1.02.64.6.84.86.46.66.84.86,2.35,2.29,2.86,2.94,1.21,1.05-.21-.26.56.29.74,1.23,3.69,3.79,5.59,5.58-.29-.72.54.47,1.08.6-.47-.32,1.6,1.91-.1.37l1.06.99c.21.26.17.27,0,.14-.13-.11-.37-.31-.59-.49-.4-.33-.76-.61-.33-.03.11.1.21.19.31.29.12.1.23.2.34.3.29.25.57.49.85.73.55.46,1.07.88,1.64,1.4.38-.42.78-.85,1.26-1.31-.26.44.08.05.45-.36.36-.41.75-.83.6-.5-.34.48-.9,1.02-1.43,1.62l.35-.31c.91-.93,1.49-1.55,1.59-1.69.18-.22.2-.3.18-.35-.04-.1-.24-.06.33-.77,1.42-1.53,1.26-1.07,1.42-1.09.26-.21.95-.99,1.29-1.43-.78,1.02-1.73,1.61-1.42,1.09.82-.49,2.15-2.23,2.47-2.71-2.25,1.98-1.43,1.49-3.58,3.32-.21.33,0,.45-1.22,1.6.64-.83-.12-.06-.39.18.36-.19-.95,1.08-1.37,1.6-.21.14-.01-.17.05-.33.06-.17,0-.2-.59.38-.01-.01-.04-.04-.07-.07-.08.06-.18.12-.28.16-.57-.63.27-.05-.93-1.13.34.22.32.12.4.13.08,0,.24.12.88.71.02-.03.06-.07.11-.12-.04.03-.08.06-.11.09-.8-.94-1.38-1.45-2.03-1.97-.63-.5-1.24-.92-1.9-1.49.14.11.19.1.33.21-.33-.21-.82-.69-1.21-1.05-.79-.87.76.55.61.27l-1.37-1.32s-.02-.04-.02-.05c-.39-.32-.75-.63-.82-.81.47.32.71.41,1.04.61l-1.58-1.24c.23.08-1.06-1.28.01-.34l-2.15-2.03-.03-.32c-.53-.47-.58-.45.01.16-.69-.74-3.47-2.87-2.8-2.79-1.78-1.5-2.33-2.13-4.42-4.02,1.68,1.37-1.6-1.91.1-.37-.9-1-1.25-1.04-2.03-1.75-.65-.76-.19-.59.63.1l-.97-.81h.05s-.87-.69-.87-.69c-.75-.89-.03-.32-.87-1.18l-.32-.05-.5-.64c.16.27-.37-.19-1.01-.79l.04-.02-.78-.71c.83.65-.66-.7-.23-.46-.64-.64-.66-.65-1.85-1.76l.12.29c-1.6-1.41.07-.2-1.16-1.41l-.03.18c-1.6-1.91-3.11-2.84-4.31-4.23.78.71.7.4.66.42-1.17-1.07-2.98-2.89-4.28-3.91-.28-.57-.34-.71-1.47-1.95-.88-.84-1.03-.95-1.4-1.15-.39-.44-1.01-1.03-1.52-1.52-.29-.28-.39-.39-.5-.51-.1-.11-.15-.19-.12-.21-.22-.06-.4-.38-.72-.63.03-.04.06-.09.09-.13l.15-.06-.24.04c.36-.25.6-.46.82-.68.11-.11.19-.2.32-.34.15-.17.3-.34.44-.5.58-.67,1.16-1.35,2.01-2.01l-.23.29.58-.68c.14-.06-.08.23-.05.32l2.63-2.67-.05-1.18-.06,1.12c-.02-.3-.05-.58-.07-.85-.02-.24-.04-.47-.07-.7-.04-.37-.05-.77-.01-1.26.23,1.63,0-1.36.19-1.62l.05.88c0-1.2,0-1.2-.15-1.1,0-1.56.3-1.06.21-2.5l-.05,1.02c-.1.3-.19-.44-.15-1.13.03-.16.12-.64.11-.12,0-1.23.22-3.06.2-3.61.11-.66.19-.43.19-.07.12-2.62.13-1.18.3-3.8l.08.05.02-.91c.12-.42.23-.84.35-1.25l-.17.44c.11-.85.14-1.4.34-2.38l.06.42c.35-2.41.69-2.73,1-5.01.06-.15.02.21,0,.39.3-2.12.55-1.52.87-3.66,0,.14.11-.08.13.01.06-.32.11-.65.17-.96l.14.12v-.83s.32-.53.32-.53l.03-.39c.29-.46.51-1.04.72-1.68.21-.64.44-1.33.8-1.95l-.28.16c.79-3.55,3.21-7.55,5.23-11.32l.1.15.75-1.62c.61-.74-.18.56.05.36.93-1.65.22-.79,1.4-2.67.37-.43.35-.33.18-.07-.15.27-.42.7-.54.94.52-.9,1.27-1.93,1.96-2.91.74-.95,1.45-1.82,1.97-2.34,0-.04.04-.12-.01-.08.44-.53.98-1.12,1.54-1.71.36-.35.74-.7,1.07-1.02,0,.1-.1.22-.19.33.08-.06.17-.14.25-.21l.06-.06s.04.02.07.03c.04.02.09.04.12.05-.07.01-.12.03-.17.05.08.07.17.13.28.2l.16.1.08.05c.07.05.14.1.2.14.62.44,1.13.83,1.19.98-.08-.14.04-.2.87.41.31.54,2.34,1.57,3.6,2.66-.2-.07-1.19-.78-.91-.57.32.27.64.49.97.69.5.31.98.61,1.45.91l-.33-.11,2.43,1.69,1.18.82.58.41c.11.09.16.08.23.1l.19.04v-.43c.07-.15.1-.67.13-1.38.01-.36.03-.75.04-1.15.01-.4.02-.81.06-1.17.03-.37.06-.72.13-1,.06-.29.1-.54.17-.77.07-.22.12-.33.15-.26.4-1.14-.44.93.04-.53.23-.35.51-1.3.64-1.16-.02.05-.04.1-.06.15.16-.32.33-.63.51-.93-.07.22-.15.43-.2.66.4-.81.7-1.42.63-1.54.31-.33.64-.7,1.01-1.06.38-.38.72-.7.93-.81l-.23.29c1.91-2.05,3.56-3,4.89-4.77.13-.1.15-.06-.09.19l1.21-1.23-.2.38,1.86-2.18.03.08c1.34-1.33,3.37-3.47,5.05-5.23l-.23.29c1.76-1.99,1.84-1.78,3.13-3.23-.03.06-.07.12-.12.17l1.22-1.25-.21.33c.77-1.05,2.75-2.48,2.08-2.02.45-.58,1.27-1.55,1.34-1.77,1.32-1.37.4-.26,1.28-1.05.97-.98,1.03-1.25,2.39-2.54l.03.09c.6-.64.94-1.06,1.78-1.94l-.22.29c1.26-1.54,1.9-1.6,2.73-2.97.63-.55,1.69-1.72,1.76-1.54,1.65-1.84,2.95-3.25,4.62-5.06.47-.09.36-.39,1.51-1.34l-.18-.02c2.41-2.5,5.45-5.09,8.08-7.87l.18.03.42-.66c.73-.73,1.51-1.5,2.31-2.3.69-.63,1.43-1.25,2.26-1.69,1.62-.93,3.42-1.26,4.76-1.3.87-.1,2.29-.17,3.64.36l-.15-.03c1.19.34,2.37.93,3.4,1.75,1.04.82,1.93,1.89,2.54,3.11-.14-.12-.04.14-.23-.11.47.48.71,1.42.86,1.97-.04-.22-.07-.45-.12-.68.43.67.55,1.82.49,2.21.11.39.21.79.27,1.2-.01.08-.03.21-.05.22l.07.22c-.06.22-.14.43-.22.64.01.15-.01.63-.06,1.13-.05.5-.14,1.03-.13,1.3-.08.1-.54,1.15-.26.31-.52,1.4-1.34,2.67-2.4,3.73.18-.17.36-.31.53-.47.09.02-.07.29-.34.63-.32.37-.74.81-1.05,1.09.67-.86-.09-.21-.49.05-.45.57.53-.36.32-.03-.57.72-1.87,2.13-2.26,2.43l.34-.43c-.82.92-1.41,1.15-2.25,2.03-.68.87-1.32,1.37-.98,1.38-1.07,1.17-.55.32-.92.67-.43.62-2.03,2.15-2.32,2.26-.34.88-3.07,2.96-3.07,3.4l-1.03.81c.03.09-.02.4-.73,1.18-.76.65-.7.38-.97.53l-.24.69c-4.23,3.86-9.34,9.42-13.91,13.71-1.91,2.05-4.26,4.67-6.57,6.98l.22-.29-2.33,2.26,1.75-1.59c-.47.53-.81.97-1.29,1.46-2.58,2.46-6.01,5.75-8.96,9-.45.6-.68.85-.92,1.05-.23.19-.41.28-.59.36-.18.08-.36.15-.6.29-.12.07-.26.16-.42.26-.08.05-.17.11-.27.18-.18.12-.47.27-.75.41.19-.11.32-.18.44-.27.1-.07.29-.2.32-.24-.02.02-.2.13-.34.19-.14.08-.29.14-.43.21-.14.07-.28.13-.42.2-.14.06-.3.11-.45.17-.15.05-.29.11-.44.16-.16.05-.33.09-.48.13-.33.08-.65.16-.97.24-1.28.31-2.46.6-3.62.88l.51.45c.23.18.47.36.7.54.47.36.94.72,1.43,1.09.95.71,1.95,1.47,3.1,2.33-.19-.04-.12.07.09.26.1.1.24.21.4.34.15.12.37.29.43.34.39.29.81.57.64.56l.28.04c.45.48,1.63,1.47,1.39,1.41l1.12.68v.18c1.32,1.09,4.26,3.31,4.77,4.11,3.44,2.5,8.62,6.77,12.72,10.17.66.38,1.88,1.35,2.83,2.11l.9.95c1,.74,2.16,1.39,2.98,2.2-.02.01-.06,0-.13-.05,1,.76,1.87,1.59,2.89,2.2,1.06.87,2.05,1.79,1.62,1.65.29-.14,2.24,1.87,2.24,1.87,0,0,5.93,4.87,14.17,11.64h-.02s0,0-.02.03l-.38.39c-.25.26-.51.52-.77.78-1.03,1.05-2.08,2.13-3.16,3.22-2.14,2.2-4.36,4.47-6.62,6.79-1.12,1.16-2.26,2.32-3.39,3.49l-1.7,1.76-.83.88c-.26.26-.53.53-.8.79-2.22,2.1-4.71,3.97-7.25,5.56-5.09,3.21-10.48,5.26-15.22,6.36-2.37.56-4.58.88-6.53,1.11-.98.09-1.89.2-2.73.23-.42.03-.82.06-1.2.08-.38.01-.74.03-1.08.04-.28.06-.82.09-1.21.13-.39.03-.64.07-.35.18-1.22-.06-1.74-.37-1.99-.25,1.64.25-.56.32,1.05.65l-1.05-.06c-.22.08,1.43.02,1.16.18l.32-.24c.84.13,1.3.2,1.59.3.81-.07,1.32-.38,3.21-.23h-.52c1.54.01.95.19,1.27.22-.11,0-.23.01-.34,0l1.31.09c-.99-.02-2.63.17-1.77.16,1.86.05-.48-.04.91-.11.86-.05.62.1.59.19.52-.03,1.04-.03,1.55-.09-.04.14-1.03.05-.39.15l1.94-.3c.2.15.73.03,1.32-.08.59-.11,1.24-.25,1.71-.19-1.38.31.14.08-.06.22,1.14-.19,2.28-.44,3.4-.7.33-.03-.87.3-.36.17.66-.06,1.03-.34,1.37-.42.32.03,2.49-.72,2.46-.49,2.29-.64.87-.54,2.96-1.21.32.02-1.62.65-.66.43.71-.28,1.41-.57,2.11-.89-.17.13-.33.37-1.14.66,2.91-1.07,5.13-2,7.24-3.03,2.1-1.04,4.09-2.21,6.28-4.08.73-.39-.39.45-.79.88,1.6-1.35,2.75-2.27,3.84-3.16.27-.23.54-.45.81-.69.13-.12.27-.25.41-.37,0,0,.11-.09.16-.14l.2-.18c.52-.47,1.07-.99,1.67-1.62l-.05-.13c3.65-3.19,7.54-7.51,11.47-11.3l-.52.41c.44-.62,1.28-1.5,1.86-2.18.14-.05-.26.65.81-.52-.26.2-.76.65-.67.46.48-.43.98-.89,1.59-1.47,1-.99,2.09-2.08,3.27-3.24-2.42-2-5.25-4.34-8.16-6.74-2.35-1.94-4.76-3.92-6.92-5.74-8.15-6.48-16.78-13.78-24.78-20.15,1.22.97.51.8-.36,0-2.17-2.43-4.39-3.44-6.72-5.78-1.59-1.21-3.08-2.44-4.53-3.65l-.54-.45-.14-.11c-.05-.04-.02-.02-.04-.03l-.02-.02-.07-.09-.06-.07s-.06-.05,0-.05c.06-.02.1-.04.15-.09l.04-.05c.23-.13.45-.28.67-.43.44-.31.86-.64,1.25-1l.19.04c.4-.29.62-.5.84-.73.11-.12.21-.24.33-.37.11-.12.22-.25.37-.41v.04c1.49-1.43,3.12-3.32,3.99-4.11l-.07-.17c.84-.88.53-.36,1.34-1.33l.03.08.91-1.15c.11.3,2.42-2.45,3.2-3.06,1.07-1.17,3.07-3.4,4.78-5.07.42-.21,2.47-2.32,3.83-3.61,2.52-2.64,6.12-6.4,9.4-9.69l-.19-.07.84-.88s.15-.06.03.09c.81-.52,1.9-2.05,2.68-2.65-.55.32-.61.59-1.1,1.08-.76.65-.23-.16.78-1.05v.05s.58-.72.58-.72c.18.03.81-.52.98-.49,2.76-2.88,4.48-5,7.4-7.9-.18.42,2.04-2.15,1.66-1.36,1.65-1.84-.45.13.19-.82.49-.49.94-1.06,1.1-1.08-.18.28.52-.28.14.14l1.14-1.2c.13-.1-.1.19-.21.33,1.12-1.26,2.19-2.29,3.24-3.31,1.21-1.18,2.21-2.56,2.86-4.21.03-.27-.64,1.25-.62.97.73-1.61.95-2.35,1.22-3.06.24-.71.5-1.41.53-3.07.03.23.07.46.09.7,0-.54-.04-.93-.07-1.4-.02-.47-.05-1.02-.1-1.9.06-.16.16.2.22.72.07.52.09,1.19.12,1.62.03-.61-.02-1.7-.17-2.49-.14-.8-.32-1.3-.3-.83-.37-1.4-.43-1.93-.68-2.69-.04,0,.38,1.31,0,.54-.3-.94-.83-2.09-1.57-3.18-.74-1.09-1.67-2.11-2.6-2.88.04-.02-.04-.18.13-.05-.39-.29-.7-.47-.94-.65-.24-.18-.42-.34-.62-.51-.43-.3-.9-.76-2.17-1.26Z"/>
            <path class="cls-5" d="M357.74,595.26l.6-.61s-.03-.08.21-.4l-.81,1.02Z"/>
            <path class="cls-5" d="M383.62,582.88c.06-.08.13-.17.18-.25-.14.15-.17.21-.18.25Z"/>
            <path class="cls-5" d="M390.1,575.82c-.45.52,0,.11.27-.1-.01-.03-.05-.05-.27.1Z"/>
            <path class="cls-5" d="M346.53,615.01c.03-.14.04-.24,0-.23-.04.2-.03.24,0,.23Z"/>
            <path class="cls-5" d="M346.92,669.48c-.05-.06-.1-.12-.16-.19.02.04.08.11.16.19Z"/>
            <path class="cls-5" d="M344.65,666.91c-.12-.12-.28-.27-.52-.47.21.22.38.36.52.47Z"/>
            <path class="cls-5" d="M353.38,601.45c.13-.2.24-.4.32-.58-.2.3-.28.47-.32.58Z"/>
            <path class="cls-5" d="M343.6,665.97l-.6-.61s-.02,0-.03.01l.64.6Z"/>
            <path class="cls-5" d="M347.68,670.25c-.24-.24-.56-.56-.76-.77.28.33.52.57.76.77Z"/>
            <path class="cls-5" d="M341.7,637.35s0-.06,0-.09c0-.68-.02-.26,0,.09Z"/>
            <path class="cls-5" d="M340.71,663.54s-.05-.06-.08-.09l-.21-.14.29.23Z"/>
            <path class="cls-5" d="M350.3,672.9c-.12-.11-.23-.21-.33-.28.09.1.2.21.34.35-.02-.05-.02-.07,0-.08Z"/>
            <path class="cls-5" d="M340.76,649.55c-.04.13-.04.19-.02.22.12-.12.16-.21.02-.22Z"/>
          </g>
        </g>
        <g>
          <rect class="cls-4" x="399.08" y="586.48" width="21.72" height="52.5" rx="7.63" ry="7.63" transform="translate(671.55 -76.51) rotate(54.57)"/>
          <rect class="cls-4" x="411.68" y="604.18" width="21.72" height="52.5" rx="7.63" ry="7.63" transform="translate(691.26 -79.33) rotate(54.57)"/>
          <g>
            <rect class="cls-4" x="424.27" y="621.88" width="21.72" height="52.5" rx="7.63" ry="7.63" transform="translate(710.98 -82.16) rotate(54.57)"/>
            <g>
              <path class="cls-5" d="M429.79,666.35s0,.05.02.07c0-.04,0-.06-.02-.07Z"/>
              <path class="cls-5" d="M438.4,660.82l-.08.1c.06-.05.08-.08.08-.1Z"/>
              <path class="cls-5" d="M423.72,668.54s0-.01.01-.02c-.1,0-.24.01-.46.02h.44Z"/>
              <path class="cls-5" d="M456.63,648.3l-.11.11c.05-.05.09-.08.11-.11Z"/>
              <path class="cls-5" d="M445.75,655.82s.06-.1.11-.14c-.07.04-.12.09-.11.14Z"/>
              <path class="cls-5" d="M420.62,666.77l.14.14s-.04-.11-.14-.14Z"/>
              <path class="cls-5" d="M415.36,664.47s0,.01,0,.03c.01,0,.01-.01,0-.03Z"/>
              <path class="cls-5" d="M416.95,666.27c.05.02.11.03.18.04-.07-.03-.15-.08-.18-.04Z"/>
              <path class="cls-5" d="M417.21,666.33l-.09-.02s.08.03.09.02Z"/>
              <path class="cls-5" d="M412.03,663.23c.1.17.27.27.42.39l-.42-.39Z"/>
              <path class="cls-5" d="M454.32,628.22l.06-.02s-.06,0-.06.02Z"/>
              <path class="cls-5" d="M412.98,662.94l.05.12c-.01-.05-.03-.09-.05-.12Z"/>
              <path class="cls-5" d="M423.58,666.63c.15-.1.48-.05.47-.15-.16.05-.4,0-.47.15Z"/>
              <path class="cls-5" d="M449.07,630.53h-.1s.07,0,.1,0Z"/>
              <path class="cls-5" d="M412.98,662.94l-.06-.14s-.02.04-.02.07c.03.02.06.05.08.08Z"/>
              <path class="cls-5" d="M433.72,633.31s0,0,0,0c0-.01.01-.02.02-.04l-.03.04Z"/>
              <path class="cls-5" d="M432.73,633.81c.06-.05.11-.11.17-.16-.11.06-.15.11-.17.16Z"/>
              <path class="cls-5" d="M412.45,663.61l.24.22c-.07-.09-.15-.15-.24-.22Z"/>
              <path class="cls-5" d="M423.24,640.75s.06-.05.08-.07c-.04.03-.07.05-.08.07Z"/>
              <path class="cls-5" d="M445.04,656.24s-.06.02-.09.04c0,.03.02.04.09-.04Z"/>
              <polygon class="cls-5" points="450 649.21 450.01 649.21 450 649.2 450 649.21"/>
              <path class="cls-5" d="M449.73,649.57c.12-.06.24-.23.28-.36-.11.08-.2.17-.28.36Z"/>
              <path class="cls-5" d="M450.79,648.71s-.03.01-.05.02c.02,0,.03,0,.05-.02Z"/>
              <polygon class="cls-5" points="443.56 653.6 443.56 653.61 443.56 653.6 443.56 653.6"/>
              <path class="cls-5" d="M444.96,652.58s.08-.01.12-.03c-.04,0-.08,0-.12.03Z"/>
              <polygon class="cls-5" points="453.92 646.02 453.92 646.03 453.92 646.02 453.92 646.02"/>
              <path class="cls-5" d="M443.36,653.71l.2-.11s-.04-.07.02-.16l-.22.27Z"/>
              <path class="cls-5" d="M452.07,647.64s.03-.05.04-.08c-.04.04-.04.06-.04.08Z"/>
              <path class="cls-5" d="M453.79,645.97c-.09.14.04.07.13.05-.02-.03-.05-.05-.13-.05Z"/>
              <path class="cls-5" d="M438.72,657.55s.03-.07,0-.09c-.03.05-.02.08,0,.09Z"/>
              <path class="cls-5" d="M425.18,666.32s.04,0,.06,0c-.01,0-.04-.01-.06,0Z"/>
              <path class="cls-5" d="M426.04,666.32s.09-.04.15-.08c-.07.02-.12.05-.15.08Z"/>
              <path class="cls-5" d="M441.96,655.17s.09-.09.11-.14c-.08.06-.1.1-.11.14Z"/>
              <path class="cls-5" d="M426.34,666.14l.2-.06s0-.02,0-.03l-.19.09Z"/>
              <path class="cls-5" d="M424.92,666.37c.08-.02.18-.04.25-.05-.11-.02-.19,0-.25.05Z"/>
              <path class="cls-5" d="M433.87,661.26s.01-.01.02-.02c.11-.16.03-.07-.02.02Z"/>
              <polygon class="cls-5" points="427.04 665.49 427.07 665.49 427.1 665.42 427.04 665.49"/>
              <path class="cls-5" d="M424.05,666.48s.07-.02.1-.05c-.03,0-.07,0-.12,0,.01.02.02.03.02.05Z"/>
              <path class="cls-5" d="M430.89,663.07c-.02.09-.01.14,0,.16.06-.05.09-.1,0-.16Z"/>
            </g>
          </g>
        </g>
        <path class="cls-4" d="M379.9,649.5c4-6.38,5.05-10.3,5.1-16.24,0,0,.09-7.67-2.58-11.31l17.43,2.72c8.38,1.31,16.23-4.42,17.54-12.8h0c1.31-8.38-4.42-16.23-12.8-17.54l-30.62-4.79c-6.83-1.72-12.1,3.13-16.36,8.2"/>
        <text class="cls-13" transform="translate(350.9 659.25) rotate(44.28)"><tspan x="0" y="0">#1</tspan></text>
        <g>
          <path class="cls-5" d="M385.3,592.71l-.14.02c.09,0,.12,0,.14-.02Z"/>
          <path class="cls-5" d="M367.25,590.62l.43-.12s0-.01,0-.02c-.1.03-.23.07-.44.14Z"/>
          <path class="cls-5" d="M395.11,594.42s.13-.02.2-.02c-.09-.02-.17-.02-.2.02Z"/>
          <path class="cls-5" d="M363.71,590.7l.23-.02s-.12-.04-.23.02Z"/>
          <path class="cls-5" d="M358.71,595.77s-.01-.01-.03,0c0,0,.02,0,.03,0Z"/>
          <path class="cls-5" d="M360.9,594.11c.03-.05.07-.11.11-.17-.06.06-.14.13-.11.17Z"/>
          <path class="cls-5" d="M361.01,593.94s.06-.07.05-.08l-.05.08Z"/>
          <path class="cls-5" d="M379.13,648.39l.16-.54c-.11.16-.12.35-.16.54Z"/>
          <path class="cls-5" d="M414.74,614.2l-.03-.05s.01.04.03.05Z"/>
          <path class="cls-5" d="M367.11,588.67c.18-.17.64-.21.61-.29-.22.08-.56.12-.61.29Z"/>
          <path class="cls-5" d="M415.85,620.34c.05-.05.07-.09.09-.12l-.09.12Z"/>
          <path class="cls-5" d="M379.97,648.56l.11-.13s-.05,0-.07.01c0,.04-.02.08-.04.11Z"/>
          <path class="cls-5" d="M396.97,621.99c.09,0,.17,0,.26,0-.14-.03-.21-.02-.26,0Z"/>
          <path class="cls-5" d="M381.28,619.7c.07,0,.14.01.21.02-.1-.02-.17-.02-.21-.02Z"/>
          <path class="cls-5" d="M403.13,592.86c.15.05.37,0,.5-.06-.15-.02-.3-.02-.5.06Z"/>
          <polygon class="cls-5" points="395.03 591.3 395.03 591.3 395.02 591.31 395.03 591.3"/>
          <path class="cls-5" d="M409.75,594.3h0s0,0,0,0c0,0,0,0,.01,0Z"/>
          <path class="cls-5" d="M366.1,589.27c-.06.06.02.06.11.06-.07,0-.11-.02-.11-.06Z"/>
          <path class="cls-5" d="M362.51,593.09l.09.06c.14-.16.12-.2-.09-.06Z"/>
          <path class="cls-5" d="M395.17,591.2l-.39.04.24.06s.02-.08.14-.1Z"/>
          <path class="cls-5" d="M406.64,593.31s.07,0,.11-.01c-.07-.01-.09,0-.11.01Z"/>
          <path class="cls-5" d="M409.74,594.3s.03-.07-.02-.15c-.23-.06-.06.06.02.15Z"/>
          <path class="cls-5" d="M388.14,590.57c-.06.02-.08.04-.07.06.05,0,.08-.03.07-.06Z"/>
          <path class="cls-5" d="M370.47,588.26c.05,0,.13,0,.23-.03-.1,0-.17,0-.23.03Z"/>
          <path class="cls-5" d="M392.53,591.27c.07,0,.14,0,.2-.02-.11-.01-.16,0-.2.02Z"/>
          <path class="cls-5" d="M368.95,588.16c.11-.01.26-.03.36-.03-.15-.03-.26-.01-.36.03Z"/>
          <path class="cls-5" d="M381.29,589.79h.03c.21-.04.08-.03-.03,0Z"/>
          <polygon class="cls-5" points="372.32 587.91 372.19 587.94 372.23 587.95 372.32 587.91"/>
          <path class="cls-5" d="M398.18,633.3h.44c-.01-.05-.24,0-.44,0Z"/>
          <path class="cls-5" d="M395.53,631.53l.14.14s-.04-.11-.14-.14Z"/>
          <path class="cls-5" d="M391.86,631.03c.05.02.11.03.18.04-.07-.03-.15-.08-.18-.04Z"/>
          <path class="cls-5" d="M387.36,628.37l-.42-.39c.1.17.27.27.42.39Z"/>
          <path class="cls-5" d="M429.29,592.97s-.06,0-.06.02l.06-.02Z"/>
          <path class="cls-5" d="M398.95,631.24c-.16.05-.4,0-.47.15.15-.1.48-.05.47-.15Z"/>
          <path class="cls-5" d="M387.88,627.7l-.06-.14c-.05.07.02.09.06.14Z"/>
          <path class="cls-5" d="M407.81,598.4c-.11.06-.15.11-.17.16.06-.05.11-.11.17-.16Z"/>
          <path class="cls-5" d="M387.36,628.37l.24.22c-.07-.09-.15-.15-.24-.22Z"/>
          <path class="cls-5" d="M424.91,613.97c-.11.08-.2.17-.28.36.12-.06.24-.23.28-.36Z"/>
          <path class="cls-5" d="M387.97,628.59c.14-.1.35-.25.68-.48l-.68.48Z"/>
          <path class="cls-5" d="M387.81,628.71s0,0,0,0c-.07.05-.13.09,0,0Z"/>
          <path class="cls-5" d="M387.97,628.59c-.07.05-.12.09-.16.11l.16-.11Z"/>
          <path class="cls-5" d="M427.01,612.32s-.04.06-.04.08c.01-.03.03-.05.04-.08Z"/>
          <path class="cls-5" d="M428.82,610.78s-.05-.05-.13-.05c-.09.14.04.07.13.05Z"/>
          <path class="cls-5" d="M416.98,619.79c-.08.06-.1.1-.11.14.05-.04.09-.09.11-.14Z"/>
          <path class="cls-5" d="M399.83,631.13c.08-.02.18-.04.25-.05-.11-.02-.19,0-.25.05Z"/>
          <path class="cls-5" d="M408.78,626.02s.01-.01.02-.02c.11-.16.03-.07-.02.02Z"/>
          <path class="cls-5" d="M402,630.18l-.06.07s.05-.06.06-.07Z"/>
          <path class="cls-5" d="M398.95,631.24s.07-.02.1-.05c-.04,0-.14-.03-.1.05Z"/>
          <path class="cls-5" d="M426.32,644.73l-.08.1c.06-.05.08-.08.08-.1Z"/>
          <path class="cls-5" d="M444.43,632.33c.05-.05.09-.08.11-.11l-.11.11Z"/>
          <path class="cls-5" d="M433.66,639.73s.06-.1.11-.14c-.07.04-.12.09-.11.14Z"/>
          <path class="cls-5" d="M408.53,650.68l.14.14s-.04-.11-.14-.14Z"/>
          <path class="cls-5" d="M400.36,647.52l-.42-.39c.1.17.27.27.42.39Z"/>
          <path class="cls-5" d="M400.89,646.85l-.06-.14c-.05.07.02.09.06.14Z"/>
          <path class="cls-5" d="M400.36,647.52l.24.22c-.07-.09-.15-.15-.24-.22Z"/>
          <path class="cls-5" d="M400.95,647.76c-.08.06-.13.09-.13.09-.08.06-.16.12.13-.09Z"/>
          <path class="cls-5" d="M401.21,647.58s.07-.05.11-.08c-.04.03-.08.05-.11.08Z"/>
          <path class="cls-5" d="M401.32,647.5c.1-.07.21-.15.34-.24,0,0-.16.11-.34.24Z"/>
          <path class="cls-5" d="M400.95,647.76s.1-.07.16-.12c-.06.05-.12.08-.16.12Z"/>
          <path class="cls-5" d="M401.11,647.65s.06-.04.1-.07c-.03.02-.07.05-.1.07Z"/>
          <path class="cls-5" d="M413.84,663.51l-.68.48c.14-.1.35-.25.68-.48Z"/>
          <path class="cls-5" d="M401.19,647.39s.07.08.09.11c0-.08-.04-.11-.09-.11Z"/>
          <path class="cls-5" d="M448.41,626.54c.5-6.75-1.76-11.68-6.14-14.41h.03s-.03,0-.04,0c0,0,0,0,0,0-1.02-.63-2.14-1.14-3.37-1.53-.2.45-2.12-.3-2.65-.3-1.52-.13-3.22.68-2.11-.75,4.86-9.89-4.58-18.72-10.9-18.41-4.68-.12-8.11,2.16-11.3,4.53-.22-.16-.42-.33-.52-.51-.24-.08-.61.01-1.06-.23-.23-.35.17-.12-.24-.43l-.14.09c-.35-.22-.28-.22-.24-.28-.4-.19-.42.03-.89-.28h.34c-.4-.12-.55-.21-1.07-.44.04-.08.25.02.4.11-.21-.33-.53-.11-.68-.18.03.07.39.22.16.3-.26-.11-.63,0-.77-.22l.34-.04c-.6-.07-.36.08-.98-.18.04,0,.03-.04.05-.06-.45.06-.96-.2-1.58-.34h.13c-.26-.02-.42.08-.54.05.31.14.23.17.23.31-.41-.32-.7.17-1.38-.09.02-.08.21-.15.39-.03.28-.2.34-.41.79-.45-.25.01-.53,0-.53-.07l-.11.19c-.16-.02-.29-.05-.41-.08h0s0,0,0,0h0s0,0,0,0c-.08.14.28.29-.09.32-.43,0-.19-.27-.27-.18-.59,0-.28.2-.82.04.04,0,.12-.02.17-.02-.38-.14-.94-.11-1.02-.39.06-.05.09-.13.24-.08v.04c.42-.12-.26-.02-.23-.18-.1.08-.56-.02-.77-.08l.05.18c-.92.37.1-.32-.75-.38-.54.03.2.08-.15.14-.35-.09-.46-.25-1-.26-.14-.09-.42-.23-.42-.41-.33.02-.95-.24-1.16-.08.52.24.58-.11,1.17.23l-.21.16c-.44-.08-1.01-.08-1.31-.19.06.05.07.1.03.13-.64-.03-.85.12-1.45-.03-.06-.17.3-.09.56-.06-.37-.19-.41-.08-1.01-.22-.01-.15.41.07.5-.06l-.68-.06s0-.02,0-.03c-.14.23-.51-.1-.94-.09-.98-.16-1.18.14-1.75.25-.14-.08-.17-.16-.1-.21.22.14.19.05.28,0-.33-.03-.68-.35-.48-.42-.54,0,.17.16-.16.18l-.71-.13c.06.13.31.2-.07.24-.32-.02-.46-.07-.88-.14.07-.05-.1-.21.21-.15-.19-.08-.5-.13-.63-.03.43.19-.75,0-.45.24l-.43-.18c.1.02.13-.06.27-.02-.1-.21-.37,0-.53-.01-.15-.06-.56-.14-.58-.22-.15.03-.49-.07-.54-.17-.22,0-.04.12-.11.17l-.71-.13c-.03-.11-.04-.41.08-.43-.28.05-.15.29-.55.21.27-.16-.52-.24-.14-.43-.21-.19-.88-.28-1.26-.29-.25.13.39.15.34.31-1.05-.1-1.18.34-1.93.14l.19.07c-.49.02-.43,0-.73.11.16-.18-.46-.64-1.24-.71-.08.09.41.26.25.41l-.53-.05s.03-.05.1-.06c-.48,0-.82-.4-.99-.18l-.42-.37.17.16c-.09.09-.61.04-.72.06-.55.03-.73-.09-1-.26.08.1.28.33-.14.29.05-.33-.86-.26-.82-.43.08.01.14,0,.12-.12-.08.05-.11.09-.12.12-.17-.02-.46-.17-.49-.03l.06-.2c-.09.28-.7.17-1.18.15.17-.37-.52-.05-.67-.44-.13.25-.85-.03-.97.18-.02,0-.03-.02-.05-.02-.04-.01-.06-.03-.09-.04-.05-.03-.07-.07-.09-.11-.04-.08-.03-.16-.07-.21l-.21.06c-.09-.08-.32-.16-.58-.24-.26-.09-.57-.12-.79-.19l-.44.2-.15-.12c-.07.04-.42.09-.21.17h-.22s0-.02,0-.04l-.29.02h.28c-.01.27-.31.09-.75.21-.11-.04-.08-.1.01-.14-.22,0-.14-.12-.25-.2.05.09-.73.56-.16.59.05.1-.28.22-.49.21l-.17-.21-.21.27c-.32.08-.48-.01-.75.02.26-.08.51-.58-.21-.4.37-.12.53-.3.73-.38-.15.02-.24.02-.02-.13-.56.2-.16.18-.72.35-.01-.21-.2-.24-.71-.17.13.01.28.03.41.05,0,.03-.03.05-.05.07-.05,0-.1.01-.16.02.02.02.03.03.03.04.05-.02.1-.04.13-.06,0,0,0,0,0,0,.15-.01.2,0,.24.08-.11.02-.49.34-.65.35.51.14-.88.56-.49.62-.04.07-.39.22-.47.15.27-.25-.09-.17-.29-.18.1,0,.2,0,.1.09-.25.13-.48.1-.66.11l.09-.09c-.15.03-.29.06-.43.1-.02.12.45-.02.12.2-.11,0-.43.25-.46.17.1-.22-.11-.32.17-.51-.25.15-1.02.61-.61.61l-.3.16c.23-.03.82-.17.25.17l-.02-.04c-.11.12-.2.25-.3.38l-.22.02s0,.13-.14.21c-.07-.03-.22.04-.26-.04-.41.28-.3.36-.32.44-.21.17-.32.2-.28.03-.33.2-.83.62-1.08.7-.33.39.11-.03-.03.26-.57,0-1.35.98-1.88,1.58.37.07-.1.17-.03.46-.07-.07-.67.35-.27-.16-.1.11-.19.22-.28.33-.34.09.4-.6-.08-.45-.33.36-.29.83-.77,1.16-.04-.29-.24.37-.32.1.02-.14.14-.24.24-.37l-.11.04c-.76.75-.01.41-.26.92-.4.5-.46.26-.57.21-.08.04-.21.21-.29.37.18-.29.52-.32.51-.11-.38.04-.63.7-.67.9.8-.51.42-.48,1.2-.93.01-.14-.17-.28.24-.6-.13.31.11.07.2.03-.16-.01.19-.3.26-.45.17-.03.01.43.41.09l-.16-.28c.17-.12.1.21.35-.15-.05.28.23.12-.14.58.67-.32.63-.87.94-1.33-.02.04-.01.07-.02.1.04-.13.18-.25.27-.37.3-.2-.11.3.02.29.14-.14.27-.28.41-.4.02,0,.02,0,.03,0,.08-.13.17-.25.26-.23-.06.18-.04.31-.06.44l.29-.56c.02.12.49-.2.22.14.2-.22.42-.42.64-.61l.1.06c.13-.07.33-.36.52-.57.19-.21.37-.34.43-.12.45-.56.7-.63,1.35-1.18-.22.26-.03.2.14.15.18-.05.34-.1.07.1.39-.11.35-.35.61-.53.28-.06.28.16.07.37l.25-.23v.04c.09-.09.16-.17.25-.25.35-.04.16.16.48.04v-.2s.25,0,.25,0c-.11-.04.05-.17.29-.27v.04s.29-.13.29-.13c-.25.2.27-.06.19.11.25-.06.25-.1.68-.25l-.11-.1c.57-.25.07.17.55.07l-.06-.13c.19.01.35,0,.5-.04.15-.02.29-.06.43-.1.27-.08.51-.19.78-.12-.3.05-.2.23-.2.18.21-.06.51-.05.8-.08.15,0,.29-.04.43-.05.14-.01.27-.03.39-.07.16.23.19.29.64.42.34.04.39.04.52-.06.19.09.51.12.72.17h.01s.06.02.06.02c.13.03.23.06.23.12.1-.11.31.07.52,0l.03.07v-.15c.57.42,1.08-.01,1.66.37l-.11.02h.28c.03.06-.08.08-.11.16l1.23.22-.23-.15c.26.03.46-.08.74.05-.53.14.41.08.46.25l-.27.02q.36.05.36-.1c.48.02.28.33.73.23l-.31-.05c-.07-.1.16-.18.37-.15.04.02.15.1.07.11.37.02.88.17,1.04.13.19.07.11.17,0,.19.8,0,.35.09,1.16.08l-.03.08.28-.05.36.23-.12-.12c.26.02.43,0,.72.09l-.14.1c.74.05.81.34,1.53.27.04.03-.03.05-.09.06.63-.07.43.3,1.1.17-.04.04.02.09-.01.13l.3-.03-.05.16.28-.21.15.2.13-.06c.26.36.75.2,1.14.5l-.04-.22c1.15-.26,2.45.63,3.79.64l-.05.16.57-.11c.27.18-.19.12-.12.21.59,0,.28-.21.96-.15.33.17-.14.1-.31.14.64.02,1.59.07,2.03.23-.02.02-.01.04.1.04-.03-.01-.07-.03-.1-.04.01-.02.04-.04.03-.05.44-.01.97.15,1.44.21-.02.07-.14.07-.26.07.17.03.38.13.54.07l-.19.12c.35.09,1.06.06,1.11.24-.03-.07,0-.19.31-.13.13.27.86.03,1.33.24-.05.04-.26.02-.33.02.24.11.48.02.71-.02l-.08.09,1.17.04c.13.27,1.09.13.98.3.41.07-.32-.16.2-.11.12.13.48.03.43.18h-.06s.37.06.37.06l-.25.12c.32.02.57-.11.61-.23.29.13.72.13.83.29l-.12.02c.83.07,1.36.65,1.94.5.04.03.03.07-.06.05l.45.11-.13.1c.25,0,.52-.04.78-.01l-.03.08c.46.19,1.23.35,1.82.62h-.1c.7.16.59.33,1.08.5-.03.01-.04.01-.06,0l.41.22-.13.02s.06,0,.09.01c.16.04.31.18.41.3.07.1.12.19.12.19,0-.01,0-.03-.01-.05.2.04.53.15.63.1.43.28.04.16.26.39.27.23.41.17.74.54l-.06.06c.18.14.35.17.57.4l-.09-.04c.4.21.32.51.6.63.06.02.13.04.23.05.1.21.39.51.25.6.23.22.47.4.65.63.19.23.37.45.58.7-.18.23.1.1.15.53l.11-.1c.21.41.41.87.51,1.38.06.25.12.5.19.74.07.24.12.49.21.72l-.13.07.21.14c.03.13.06.26.09.41.02.14.04.28.06.43.04.29.09.58.13.87.01.59.1,1.14.08,1.56.07.28.26.7.19,1.15l-.02-.05c0,.39,0,.8-.03,1.21-.05.41-.16.82-.28,1.23-.04-.06-.09-.01-.12-.07.1.23-.12.46-.18.62l.17-.17c.06.27-.18.57-.31.65l.04.41s-.06.05-.08.05l.05.08-.26.12c0,.1-.16.58-.05.81-.07,0-.26.31-.18.05-.21.41-.48.79-.71,1.2l.16-.15c.14.05.02.48-.18.61.07-.3-.16-.13-.32-.09-.04.2.2-.06.21.06-.06.25-.31.7-.43.77l.03-.16c-.13.31-.46.25-.64.5-.09.29-.31.39-.09.51-.23.36-.23.01-.34.1-.05.22-.53.57-.67.53.1.45-.92.63-.79.92l-.37.08c.04.07.11.28-.11.45-.27.07-.3-.09-.42-.11l.02.35c-.18.07-.36.15-.55.24-.19.08-.38.16-.58.24-.19.09-.38.18-.58.28-.2.09-.41.16-.62.24l-.62.24c-.21.06-.43.12-.64.17-.21.05-.43.1-.63.15-.21.02-.43.03-.63.04-.35.11-.74.25-1.16.3-.43.08-.86.16-1.3.12l.09-.04-.84-.09.61.14c-.18.04-.33.09-.51.09-.47-.07-1-.23-1.56-.31-.64-.14-1.32-.24-1.98-.27.01,0,.02,0,.04,0h-.04s0,0,0,0c-.9.22-.51-.4-1.36-.27.07-.02.1-.07.17-.09-.89-.03-1.37-.04-2.28.03.15-.33-.57-.08-.46-.25l-.09.13c-.18-.12-.63-.22-.55-.31l-.41.11v-.15c-.52-.1-1.63-.15-1.86-.48-.65,0-1.47-.08-2.33-.21-.43-.06-.87-.14-1.29-.22-.05,0-.1-.02-.15-.03-.57-.1-1.12-.2-1.65-.3-.3.05-.82,0-1.34-.08-.19-.03-.38-.05-.56-.07l-.83-.31c-.68-.05-1.17.1-1.9-.13-.02-.02-.01-.04.02-.04-.64-.06-1.45-.28-1.83-.18l-.22-.04-.16-.02c-.11-.01-.22-.03-.32-.06-.22-.05-.43-.11-.58-.19-.02,0-.06-.02-.12-.08.13.12.25.26.35.4.06.08.12.17.17.27.06.1.11.21.17.31.2.4.35.79.35.79,0,0,.46.74,1.28,2.05.49.69.71,1.34,1.08,2.16.09.2.19.41.25.62.03.1.07.21.09.33.03.08.04.17.07.26.05.2.11.41.15.64.38,1.8.67,4.5.6,7.24-.05,2.84-.49,5.57-1.27,7.95-.77,2.38-1.7,4.43-2.01,5.72.03.22-.14.67.1.6-.15.35-.45.36-.36.49.34-.37.23.33.64,0l-.13.29c.05.11.12-.38.23-.28l-.17-.21c.17-.2.29-.29.41-.32.04-.26-.19-.57.23-.99l-.07.14c.23-.41.29-.16.38-.22l-.05.09.3-.25c-.22.22-.27.73-.16.5.34-.44-.13.09.05-.29.12-.23.21-.1.27-.05l.22-.41c.1.08-.16.27.05.16l.16-.58c.33.05.18-.64.56-.74-.12.42.11.01.17.12.15-.31.31-.63.46-.94.06-.05.02.13.01.17,0,0,0-.02.01-.03.16-.14.07-.33.12-.42.12-.05.32-.71.5-.6.41-.61-.13-.38.24-.95.15-.03-.18.5.06.28.08-.22.14-.44.21-.67.03.08.14.2.03.43.82-1.69,1.76-2.54,1.93-4.33.2-.22.07.19.13.39.04-1.31.62-1.75.72-2.86l-.12-.03c.25-.75.34-1.59.37-2.44v-.65s.02-.69.02-.69c0-.44,0-.88,0-1.32l-.08.21c-.13-.23-.17-.61-.25-.89.06-.05.29.18.19-.31-.03.11-.06.32-.13.26.1-.75.05-1.91-.14-3.19,0-.02,0-.03,0-.04.77,1.05,1.52,1.53,1.76.72-.47-.06-1.28-1.01-.96-1.37.13.3-.04-.3,0-.3.04.29.45.6.33.4-.53-.51.18-.56-.42-1.21-.05-.24-.09-.48-.12-.73.1.01.2.03.3.05.6.1,1.2.19,1.78.26-.35-.08-.11-.31.2-.2.88.66,1.68.17,2.6.68,1.8.12,3.31.81,5.02.67v.15c.25.1.33.01.59.04l-.02.04c.6.15,1.37.12,1.71.24l.05-.16c.37.04.15.16.59.11l-.02.08.51-.11c-.08.28,1.16.17,1.49.27.27-.02.66-.06,1.09-.1.42-.04.88-.12,1.29-.13.08.06.38.09.73.06.35-.04.76-.1,1.09-.13.15-.04.31-.07.48-.12.16-.05.34-.11.51-.16.35-.11.72-.24,1.11-.36.25-.11.51-.21.77-.32.51.05-.03.4-.07.31-1.46.64-1.53,1.37-2.98,1.97.06-.05.08-.1,0-.16-.02.09-.01.14,0,.16-1.03.77-3.07,2.1-4.35,2.82h0s0,0,0,0c0,0,0,0,0,0l-.19.09s.04-.01.08-.02c0,0,0,0,0,0-.1.06-.19.1-.27.15.02-.01.03-.02.05-.03-.07.02-.12.05-.15.08,0,0,.02,0,.03-.01-.01,0-.02.01-.03.02-.7-.34.09.73-.56.7-.11-.27-.25-.12-.3.09-.88.18-.39-.56-.29-.87-.56.49-.32.07-1,.02.9.15-.52,1.15-.94.98.36-.18-.28-.22-.22-.38-.13.06.29.15.11.23-.59-.03-.57-.61-.72-.1-.43.05-.41-.3-.05-.44-.21.01-.86-.06-.62.17-.66,1.09-3.06-1.32-4.83-1.32,0-.36.05-.3-.14-.47-.08-.27.56.23.39-.17-.51-.05-1.55-.92-.75-.69-.53-.63-.35.02-.77-.19-.58-.55.29-.47-.41-.84.29.15.24.54.05.52-.76-1.45-.59.34.43.7-.43-.09.14.24.34.4-.14.17-.32.52.17.2-.35.81.12.6,1.12,1.06,0,.11.05.24.13.37h-.03s.03,0,.04.01h0c.42.68,1.81,1.45,3.8,1.56-.82.06,1.68.81,1.73.54,5.29-1.2-5.24,7.58,3.21,14.67-.11-.15.21-.48.37-.46-.29-.33-1.05-.97-1.01-1.15-.24-.64.2-.15.05-.65.08.27.42.52.3.33-.43-.54.02-.7-.47-1.57-.43-3.47.72-7.35,5.28-10.74,5.36-3.78,15.62-10.56,21.64-15.09,3.35-2.52,5.49-3.96,8.41-4.22,4.4-.61,10.54,5.57,8.41,10.89-1.45,4.57-7.17,5.05-9.99,8.29-5.59,4.08-11.83,8.22-18.88,12.98-3.81,2.69-3.13,5.31-5.58,4.2-.69,1.06-3.05-1.3-4.84-1.31-.04-.43.08-.26-.14-.48-.08-.26.55.22.39-.16-.53-.07-1.54-.91-.76-.69-.47-.46-1.26.07-.85-.69-.45-.63.08.07-.27.19-1.12-1.57.05.94.76,1.1-.5.52.08.12.29.51-1.2.01.61.59.6.6.12.18.24.33.39.47,0,0,0,0,0,0-.03-.01-.06-.02-.08,0,.03,0,.06.02.1.02,0,0,0,0,0,0,1.27,1.27,3.52,1.44,4.86,2.17.36,2.67-1.05,9.59,3.06,11.57-.01.11.05.13.1.14-.05-.13.27-.53.4-.45-.32-.43-1.42-1.02-1.01-1.57.12.27-.02-.28,0-.3.04.29.45.6.32.39-.33-.48-.54-2.27-.45-2.87-1.36-4.37,5.93-10.27,8.67-11.09,3.15-2.62,7.87-4.87,11.93-8.01,0,0,0,0,0,0,0,.02.02.03.09-.04-.03,0-.06.02-.08.03,0,0,0,0,0,0,.35-.26.69-.53,1.02-.81,1.95-.73,4.57-3.49,7.5-4.76,2.25-1.5,5.08-4.74,7.79-4.11,3.55.67,8.93,6.27,6.81,10.93-.24,2.77-.14,3.36-2.41,5.25-.69-.07-.4,1-2.5,1.9-.15.19.22.55-.77,1.2.36-.84.42-1.26-.22-.4.7.32-1.69,1.56-1.32.96.35-.37-.99.39-.65.54-.33.85-.16-.3-.73.19.04.2-.75.59-1.35.85-1.78,2.2-1.21,1.06-3.05,2.39-1.41,1.76-.8.7-2.05,1.64.58.51-.95.46-.92.82.19.56-1.34.71-1.62,1.37-2.56.93-1.19-.32-3.04,2.23.1.49-.49.08-1.49.75,1.01-.1-.07.56.09.32-2.55,1.45-3.53,3.02-6.81,4.22-.32.45-.74,1.26-1.27.69-.16.29.14,1.25-.48.65-.08.38-.45.37-.75.29.36-.35-.02-.43.22-.74-.24.17-.62-.03-.72-.08.02.02.06.04.11.08.2.38-.81.94-1.22.87.28-.15-.06-.19-.18-.29.18.41-.47-.14-.66-.18.33.51-.82.08-.05-.21-.55-.15-.61.22-.87.14.22,1.11-2.91-.85-4.15-1.37-.5.32-.39-.27-.58-.38-.07-.25.54.22.39-.17-.53-.08-1.54-.9-.75-.69-1.29-.45-.65-.15-1.08-.86.47.82-1.12-1.03-.14.84.6-.15.24.4.85.62-.24.04-.26.62.17.2.23.6-.84.22.16.75,1.63.37.67.93,2.26,1.56.14.34,1.57.59,2.64.69-.34.3.24.38.76.25.5.27-.6.41.17.33,3.66.71,9.49-2.94,11.26-4.48,4.44-2.82,10.13-6.38,15-9.91,1.84-1.53,6.83-4.01,9.5-6.68,7.41-10.1-1.18-21.08-9.35-21.03ZM414.69,621.56c-.15.18-.27.33-.46.47.14-.15.29-.31.46-.47ZM410.45,624.76c-.04.09-.1.17-.15.25l-.09-.12.24-.14ZM409.81,625.31c.15-.07.3-.14.44-.22-.08.12-.18.23-.29.34,0-.06-.06-.1-.15-.12ZM428.06,611.32c-.54.28-.27.24-.08.45-.21.23-.67.68-.4.14-1.46,1.23-1.35,1.12-2.45,2.46.1-.38.69-1.32.02-.85-.03.83-.69,1.43-1.67,1.58.31-.61-.1-.03-.7.27.51.42-2.13.68-2.72,1.57,1.76-1.3-.18.77-.91,1.34-.16-.1.12-.26.31-.41-.32.04-1.1.85-.51.12-.17.1-.34.22-.5.35-.02-.03-.03-.07.03-.16-.05.11-.4.39-.07.19-.96.83-1.71,2.16-2.14,1.55-.09.22,0,.37-.51.6.65-.03-.46.73-.57.62.18-.2.38-.44.4-.21.47-.72-.26-.04-.17-.47.15-.17.25-.41.36-.37-.02.13.26-.04.16.12.12-.14.22-.31.32-.46.05-.03,0,.09-.01.15.26-.52.59-.91.9-1.31.28-.41.56-.81.74-1.31-.05-.11-.22.35-.28.24.17-.49.27-.69.42-.87.14-.18.28-.35.4-.82l.05.24c.04-.33-.02-.49.24-.94.18-.03,0,.47-.02.72.15-.33.36-1.22.13-.99.08-.42.27-.52.38-.74-.04-.02-.22.35-.23.09.26-.52.42-1.41.57-2.1.04.01.11-.03.12.04-.15-.6.21-.49.25-1.28.05-1.06-.02-2.27-.22-3.46-.19-1.19-.51-2.35-.8-3.34-.32-.37-.6-.95-.89-1.54l.24-.18c-.1-.16-.2-.31-.31-.46-.02-.24.24.35.16-.05l-.26-.1c.08-.09-.6-1.28.02-.56-.31-.65-.73-1.25-1.12-1.85-.26-.41-.35-.09-.62-.54,0-.14.16.11.22,0-.21-.35-.42-.59-.62-.77,3.8-2.27,7.16-3.49,9.49-2.37,2.98.12,7.6,6.79,5.61,10.37-.34,2.41.05,3.38-1.98,4.75-.13.28-1.19.95-.77.54ZM443.5,627.33s.05-.07.1-.09c.12.07-.04.07-.1.09Z"/>
          <path class="cls-5" d="M413.39,663.64s.06.07.07.11c0-.06-.03-.1-.07-.11Z"/>
          <path class="cls-5" d="M422.88,667.11s-.03-.05-.04-.08c-.02.03,0,.06.04.08Z"/>
          <path class="cls-5" d="M413.04,664.08h0s-.02,0-.03.01c0,0,0,0,.02,0h0s0,0,0,0c-.01,0-.02.02-.03.02,0,0,.02-.02.03-.02.03,0,.04,0,.01,0,.05-.03.12-.08.12-.08-.05.03-.09.06-.12.08,0,0,0,0,0,0Z"/>
          <path class="cls-5" d="M446.05,651.91s.07-.09.1-.13c-1.18.51-.76.41-.1.13Z"/>
          <path class="cls-5" d="M413,664.11s0,0,0,0c-.07.05-.13.09,0,0Z"/>
        </g>
      </g>
    </g>
    <g>
      <path class="cls-7" d="M255.24,36.99c-5.5-3.13-10.6-6.49-14.94-10.23l9.87-11.42c4.9,4.24,11.42,8.09,18.51,11.75-1.97-8.07-4.06-15.64-6.37-21.66l14.08-5.43c2.27,5.9,4.28,12.88,6.16,20.29,3.62-6.89,6.75-13.01,8.85-17.17l13.48,6.79c-.97,1.92-4.45,8.81-9.07,17.62,11.54-2.75,19.81-4.43,20.6-4.59l2.99,14.79c-.19.04-8.31,1.7-19.8,4.43,7.16,3.72,13.86,7.69,19.18,12.18l-9.74,11.53c-4.83-4.08-11.31-7.79-18.55-11.44,2.13,8.81,4.3,16.62,6.54,21.07l-13.49,6.78c-2.48-4.94-4.65-12.06-6.72-20.25-4.64,7.86-8.94,14.52-12.04,18.1l-11.4-9.89c2.86-3.3,7.34-10.46,12.31-19.07-7.44,2.23-14.75,4.64-21.23,7.15l-5.44-14.08c5.63-2.18,11.78-4.27,18.08-6.23-.61-.34-1.24-.66-1.85-1.01Z"/>
      <path class="cls-6" d="M264.84,81.11l.46-.53c2.68-3.09,6.47-8.72,11.26-16.75,2.24,8.62,4.27,14.61,6.35,18.75l.31.63,14.74-7.41-.31-.63c-1.82-3.62-3.72-9.65-6.12-19.44,7.79,4,13.09,7.31,17.06,10.66l.54.45,10.19-12.06-1.07-.9-9.29,11c-4.22-3.46-9.86-6.9-18.15-11.08l-1.35-.68.35,1.47c2.46,10.21,4.42,16.63,6.29,20.59l-12.24,6.15c-2.06-4.3-4.09-10.52-6.36-19.48l-.42-1.65-.87,1.46c-4.88,8.26-8.75,14.13-11.52,17.46l-10.34-8.97c2.63-3.21,6.64-9.47,11.94-18.64l.88-1.53-1.69.51c-7.84,2.35-14.78,4.67-20.63,6.91l-5.19-13.42-1.31.5,5.7,14.73.65-.25c5.54-2.14,12.08-4.36,19.48-6.62-5.11,8.78-8.92,14.64-11.34,17.43l-.46.53,12.46,10.81Z"/>
    </g>
  </g>
</svg>