<?xml version="1.0" encoding="UTF-8"?>
<svg id="Layer_2" data-name="Layer 2" xmlns="http://www.w3.org/2000/svg" viewBox="0 0 813.61 848.62">
  <defs>
    <style>
      .cls-1 {
        fill: #204385;
      }

      .cls-1, .cls-2, .cls-3, .cls-4, .cls-5, .cls-6, .cls-7, .cls-8, .cls-9, .cls-10, .cls-11, .cls-12, .cls-13 {
        stroke-width: 0px;
      }

      .cls-2 {
        fill: #214287;
      }

      .cls-3 {
        fill: #1f4485;
      }

      .cls-4 {
        fill: #293684;
      }

      .cls-5 {
        fill: #fbe657;
      }

      .cls-6 {
        fill: #e6252a;
      }

      .cls-7 {
        fill: #f4deb1;
      }

      .cls-8 {
        fill: #f4a33b;
      }

      .cls-9 {
        fill: #f8ede3;
      }

      .cls-10 {
        fill: #de2429;
      }

      .cls-11 {
        fill: #f3d9a6;
      }

      .cls-12 {
        fill: #e11e29;
      }

      .cls-13 {
        fill: #f3a23a;
      }
    </style>
  </defs>
  <g id="CHANTS_PAGE" data-name="CHANTS PAGE">
    <g>
      <g>
        <circle class="cls-13" cx="575.58" cy="141.52" r="42.34"/>
        <path class="cls-13" d="M529.7,230.27l3-33.2-1.5,16.6,1.65-16.59c-2.35-.26-58.02-7.19-106.75-86.88l-28.44,17.39c58.07,94.95,129.05,102.4,132.04,102.67Z"/>
        <path class="cls-9" d="M549.38,331.62c.97,1.51,2.19,2.75,3.53,3.69,6.55,4.59,16.34,2.48,19.88-5.57l48.91-111.06c3.1-7.06-1.97-15.03-9.67-15.16-5.89-.11-12.48-.32-19.82-.77-17.64-1.08-39.47-3.65-65.5-9.68-6.88-1.62-13.4,3.73-13.22,10.78.57,25.46,5.6,80.92,35.9,127.77Z"/>
        <path class="cls-13" d="M728.29,310.07l22.42-24.67c-84.65-76.93-136.82-81.54-142.49-81.82l-.8,16.65-1.05,16.63c.45.04,46.12,4.32,121.92,73.2Z"/>
        <path class="cls-9" d="M798.96,509.18l4.14-40.82c-144.15-14.61-221.55-128.89-222.32-130.04-3.09-4.66-7.97-7.87-13.48-8.87-5.51-.99-11.2.29-15.72,3.59-.89.65-21.94,16.05-41.58,37.43-29.69,32.31-41.06,61.7-33.78,87.34,10.06,35.47,52.45,55.58,129.59,61.5l3.14-40.91c-79.88-6.13-91.57-25.87-93.25-31.77-4.63-16.27,19.59-46.04,44.36-67.79,30.15,36.66,110.12,117.29,238.9,130.34Z"/>
        <path class="cls-1" d="M807.49,562.19c3.26.41,6.14-2.19,6.12-5.48l-.03-10.3-.2-72.6c0-3.29-2.9-5.88-6.16-5.45-23.22,3.08-41.09,22.98-41.03,47.03,0,.38,0,.79.02,1.17.64,23.51,18.42,42.73,41.27,45.63Z"/>
        <path class="cls-6" d="M807.49,562.19c3.26.41,6.14-2.19,6.12-5.48l-.03-10.3c-8.75-.34-17.43-2.72-25.07-7-8.9-5.01-15.77-12.32-21.07-20.98-.41-.68-.83-1.3-1.23-1.87.64,23.51,18.42,42.73,41.27,45.63Z"/>
        <path class="cls-1" d="M632.1,567.34c3.23-.6,5.18-3.96,4.16-7.08l-3.16-9.81-22.27-69.1c-1-3.14-4.55-4.72-7.53-3.31-21.18,9.99-32.15,34.39-24.78,57.28.12.37.24.75.38,1.11,7.76,22.2,30.54,35.1,53.2,30.91Z"/>
        <path class="cls-9" d="M633.69,568.19c1.31-.55,2.43-1.51,3.17-2.77,1-1.68,1.22-3.71.62-5.57l-25.43-78.9c-.59-1.86-1.97-3.38-3.77-4.16-1.77-.77-3.8-.74-5.53.09l1.1,2.32c1.08-.49,2.3-.53,3.41-.05,1.12.49,1.98,1.43,2.35,2.59l25.43,78.91c.38,1.16.24,2.42-.39,3.47-.61,1.03-1.64,1.74-2.79,1.96-22.09,4.08-44.34-8.85-51.76-30.07l-2.42.85c7.83,22.41,31.32,36.06,54.64,31.75.47-.09.92-.22,1.36-.41Z"/>
        <path class="cls-5" d="M632.1,567.34c3.23-.6,5.18-3.96,4.16-7.08l-3.16-9.81c-8.44,2.33-17.43,2.71-26.01.96-10.01-2.06-18.77-6.94-26.45-13.57-.6-.52-1.19-.99-1.74-1.4,7.76,22.2,30.54,35.1,53.2,30.91Z"/>
        <path class="cls-5" d="M367.44,141.13c-10.67,4.48-21.25,8.13-31.51,10.23l-5.54-27.05c11.61-2.37,24.48-7.53,37.69-13.71-13.9-6.15-27.2-11.58-38.51-14.93l7.84-26.47c11.08,3.28,23.46,8.17,36.29,13.73-5.95-12.93-11.32-24.31-15.02-31.99l24.89-11.97c1.71,3.55,7.81,16.28,15.43,32.81,8.9-19.8,15.68-33.66,16.34-34.99l24.79,12.17c-.16.32-6.82,13.94-15.68,33.65,13.39-6.23,26.62-11.51,39.07-14.21l5.84,26.99c-11.31,2.45-23.92,7.7-37.29,14.12,15.14,6.75,28.9,12.31,37.84,14.04l-5.23,27.11c-9.93-1.92-22.67-6.73-36.86-12.85,6.21,15.5,11.07,29.17,12.79,37.66l-27.06,5.49c-1.59-7.82-6.97-22.32-13.91-39.13-5.07,13.28-9.74,26.56-13.34,38.76l-26.48-7.82c3.13-10.59,6.96-21.84,11.14-33.17-1.17.51-2.35,1.06-3.52,1.55Z"/>
        <path class="cls-1" d="M442.11,176.46l-.26-1.26c-1.49-7.34-5.43-19.11-11.71-35.01,15,6.37,25.94,10.11,34.28,11.72l1.26.24,5.72-29.63-1.26-.24c-7.28-1.41-18.15-5.38-35.02-12.82,14.49-6.84,25.21-10.82,34.49-12.82l1.25-.27-6.11-28.24-2.51.54,5.57,25.75c-9.73,2.26-21.01,6.59-36.32,13.94l-2.5,1.2,2.53,1.13c17.56,7.83,29.04,12.15,36.87,13.87l-4.75,24.6c-8.53-1.81-19.81-5.81-35.33-12.52l-2.85-1.24,1.16,2.89c6.53,16.3,10.71,28.46,12.45,36.18l-24.55,4.98c-1.71-7.4-6.32-20.2-13.71-38.11l-1.23-2.98-1.15,3.01c-5.34,13.99-9.72,26.64-13.01,37.62l-25.26-7.46-.73,2.46,27.71,8.18.36-1.23c3.07-10.42,7.16-22.39,12.16-35.63,7.02,17.21,11.26,29.28,12.6,35.9l.26,1.26,29.57-6Z"/>
        <path class="cls-5" d="M703.56,324.4c-10.67,4.48-21.25,8.13-31.51,10.23l-5.54-27.05c11.61-2.37,24.48-7.53,37.69-13.71-13.9-6.15-27.2-11.58-38.51-14.93l7.84-26.47c11.08,3.28,23.46,8.17,36.29,13.73-5.95-12.93-11.32-24.31-15.02-31.99l24.89-11.97c1.71,3.55,7.81,16.28,15.43,32.81,8.9-19.8,15.68-33.66,16.34-34.99l24.79,12.17c-.16.32-6.82,13.94-15.68,33.65,13.39-6.23,26.62-11.51,39.07-14.21l5.84,26.99c-11.31,2.45-23.92,7.7-37.29,14.12,15.14,6.75,28.9,12.31,37.84,14.04l-5.23,27.11c-9.93-1.92-22.67-6.73-36.86-12.85,6.21,15.5,11.07,29.17,12.79,37.66l-27.06,5.49c-1.59-7.82-6.97-22.32-13.91-39.13-5.07,13.28-9.74,26.56-13.34,38.76l-26.48-7.82c3.13-10.59,6.96-21.84,11.14-33.17-1.17.51-2.35,1.06-3.52,1.55Z"/>
        <path class="cls-1" d="M750.92,363.96c-1.45-7.17-6.16-20.41-13.98-39.37l-1.23-2.98-1.15,3.02c-5.35,14.02-9.72,26.67-13,37.62l-24.03-7.09c2.86-9.57,6.48-20.28,10.75-31.86l1.04-2.82-4.18,1.83c-.7.31-1.39.62-2.08.91-11.23,4.71-21.06,7.96-30.01,9.89l-5.03-24.54c9.97-2.19,21.69-6.52,36.72-13.54l-1.09-2.32c-15.48,7.24-27.36,11.57-37.4,13.62l-1.26.26,6.05,29.57,1.26-.26c9.45-1.93,19.83-5.3,31.74-10.3.26-.11.52-.22.78-.33-4.02,11.04-7.42,21.25-10.13,30.4l-.36,1.23,28.94,8.55.36-1.23c3.07-10.38,7.15-22.36,12.15-35.63,7.02,17.2,11.26,29.27,12.61,35.9l2.51-.51Z"/>
        <path class="cls-13" d="M612.84,140.7c2.83-2.34,6.44-4.15,10.06-3.55,4.73.78,8.04,5.74,7.88,10.53-.16,4.79-3.21,9.13-7.14,11.87-1.88,1.31-4.01,2.33-6.28,2.57-2.27.24-4.7-.37-6.35-1.96-1.68-1.61-2.38-4.03-2.38-6.36,0-4.09.95-10.4,4.22-13.1Z"/>
        <path class="cls-1" d="M614.66,155.5l2.57-1.15c-1.57-3.52-.37-8.06,2.73-10.35l-1.67-2.26c-4.13,3.04-5.73,9.08-3.63,13.76Z"/>
        <path class="cls-1" d="M529.74,132.66c.53.51,1.45.73,2.92.48,3.81-.64,7.63-1.42,11.49-1.72,3.96-.31,7.92-.41,11.9-.45,6.99-.07,13.97.21,20.94.79,3.82.32,7.63.72,11.42,1.21,7.88,1.01,15.72,2.67,23.53,4.01,2.73.47,3.3.57,5.83.76-.38-4.41-.27-9.67-1.74-13.92-6.88-19.76-25.54-31.78-46.5-29.21-8.89,1.09-17.4,4.69-24.6,10.01-2.95,2.18-5.7,4.66-8,7.52-2.1,2.61-3.77,5.54-5.01,8.64-.79,1.97-1.53,3.98-2.08,6.03-.57,2.13-1.26,4.71-.07,5.84Z"/>
        <path class="cls-1" d="M574.97,91.67c4.85,9,18.88,10.85,31.33,4.13,8.2-4.42,13.63-11.45,15.03-18.29.89.08,1.77.14,2.69.15,10.32.27,19.24-4.12,23.04-10.53,1.16,1.1,2.44,2.18,3.82,3.15,8.5,5.94,18.47,7.03,24.92,3.31.32,1.48.73,2.98,1.29,4.46,3.8,9.99,11.96,16.44,19.53,16.1-.32.99-.62,2-.86,3.04-2.41,11.68,2.45,22.6,10.92,24.34,1.38.31,2.75.31,4.13.1-1.67,1.77-3.17,3.86-4.37,6.22-5.27,10.17-3.57,21.49,3.79,25.29.66.33,1.31.58,2,.77-1.9.71-3.8,1.69-5.6,2.93-9.08,6.19-12.77,16.55-8.28,23.11,2.38,3.48,6.63,5.2,11.45,5.07,4.21-.06,8.86-1.55,13.07-4.45,9.07-6.21,12.77-16.55,8.28-23.11-1.89-2.77-5-4.43-8.59-4.93,4.08-2.11,7.89-5.9,10.5-10.93,5.25-10.16,3.57-21.49-3.79-25.29-2.61-1.34-5.53-1.55-8.49-.83,2.61-3.14,4.62-7.21,5.6-11.92,2.44-11.69-2.45-22.6-10.9-24.35-2.03-.4-4.08-.27-6.06.38.42-4.08-.14-8.6-1.79-13.06-4.41-11.65-14.82-18.53-23.24-15.36-1.55.59-2.94,1.48-4.12,2.61-1.97-4.17-5.31-8.22-9.84-11.38-8.94-6.27-19.59-7.17-25.94-2.68-1.2.84-2.24,1.85-3.1,3.07-.74,1.07-1.29,2.22-1.67,3.42-4.09-2.4-9.21-3.94-14.85-4.07-13.56-.34-24.75,7.34-24.99,17.14,0,.06.02.11.01.18-3.69.51-7.53,1.73-11.21,3.73-12.45,6.72-18.62,19.46-13.74,28.48Z"/>
        <path class="cls-1" d="M652.53,255.7l1.16-2.28c-1.41-.72-34.73-17.67-47.58-18.37l-.14,2.56c12.3.67,46.21,17.92,46.55,18.09Z"/>
        <path class="cls-9" d="M807.1,469.64l.25-2.55c-.57-.06-57.46-5.86-93.63-23.72l-1.13,2.3c36.59,18.06,93.93,23.91,94.5,23.97Z"/>
        <path class="cls-5" d="M509.16,190.72l1.13-2.3c-.21-.1-20.83-10.23-30.79-18.53l-1.64,1.97c10.2,8.5,30.45,18.45,31.31,18.87Z"/>
        <path class="cls-1" d="M592.61,181.71c8.91-3.74,16.47-10.21,21.54-18.44.49.11.97.14,1.37.17,3.5.24,7.01-.97,9.64-3.3l-1.87-2.1c-2.03,1.8-4.87,2.78-7.58,2.59-.43-.03-1.07-.07-1.3-.25l-1.27-.95-.79,1.37c-5.02,8.66-12.96,15.36-22.3,18.9l.99,2.63c.53-.2,1.05-.41,1.57-.63Z"/>
        <path class="cls-5" d="M596.89,141.9c3.51.32,6.64,3.15,7.3,6.62.66,3.46-1.21,7.25-4.36,8.83-1.28.64-2.7.94-4.12,1.06-2.47.22-5.15-.13-7.05-1.72-1.62-1.36-2.48-3.52-2.44-5.63.12-5.7,5.08-9.66,10.68-9.15Z"/>
        <path class="cls-5" d="M547.06,138.59c3.31.3,6.26,2.97,6.88,6.24.62,3.26-1.14,6.83-4.11,8.33-1.2.6-2.55.88-3.89,1-2.33.21-4.85-.12-6.65-1.63-1.53-1.28-2.34-3.32-2.3-5.31.12-5.38,4.79-9.1,10.07-8.63Z"/>
        <path class="cls-1" d="M558.95,160.35l2.02-1.96c-.77-.79-1.52-1.62-2.23-2.48,2.11-1.07,3.77-2.31,5.06-3.76,2.08-2.33,3.12-5.24,2.85-7.97l-2.8.28c.19,1.95-.59,4.07-2.15,5.82-1.33,1.49-3.2,2.74-5.72,3.81l-1.66.71,1.1,1.43c1.09,1.43,2.28,2.81,3.53,4.1Z"/>
        <path class="cls-1" d="M574.12,174.3c2.62-1.1,4.99-2.77,6.88-4.89,3.11-3.5,4.86-8.2,4.79-12.88l-.03-2.2-1.98.95c-3.01,1.45-6.13,2.94-9.33,3.89-3.5,1.04-6.72,1.29-9.56.75l-.53,2.76c3.28.63,6.94.35,10.88-.81,2.64-.79,5.17-1.88,7.61-3.03-.42,3.2-1.8,6.29-3.95,8.7-2.65,2.98-6.44,4.93-10.41,5.34l.29,2.8c1.84-.19,3.65-.66,5.35-1.38Z"/>
        <path class="cls-1" d="M559.56,146.95l2.59-1.1c-2.6-6.16-10.39-9.54-16.67-7.24l.97,2.64c4.94-1.81,11.06.85,13.11,5.7Z"/>
        <path class="cls-1" d="M593.61,143.86l1.21-2.53c-3.4-1.63-7.04-2.24-10.51-1.76-3.18.44-7.07,2.44-7.55,6.62l2.79.32c.3-2.58,2.85-3.84,5.14-4.16,2.92-.41,6,.12,8.91,1.51Z"/>
        <path class="cls-3" d="M552.91,335.31c6.55,4.59,16.34,2.48,19.88-5.57l48.91-111.06c3.1-7.06-1.97-15.03-9.67-15.16-5.89-.11-12.48-.32-19.82-.77.18,1.56.46,3.09.71,4.48,3.28,18.34,1,37.24-3.85,55.1-2.82,10.25-6.48,20.27-10.61,30.04-5.04,11.99-10.78,23.8-18.37,34.36-2.18,3.03-4.53,5.96-7.19,8.58Z"/>
        <path class="cls-1" d="M532.86,423.3c13.26-.34,28.07-1.83,43.56-4.55,52.38-9.2,92.43-29.13,89.45-44.51-1.44-7.41-12.55-12.39-29.48-14.57,9.95-6.57,15.27-13.5,14.06-19.78-1.67-8.62-15.31-14.21-35.38-15.96,8.19-5.33,12.59-10.96,11.6-16.08-2.38-12.35-35.34-16.93-73.62-10.2-12.51,2.19-24.04,5.34-33.8,8.99-20.13,7.51-32.81,17.25-31.2,25.59,1,5.09,7.19,8.86,16.85,11.06-18.09,8.46-28.77,18.31-27.09,26.95,1.22,6.28,8.77,10.95,20.52,13.69-15.02,7.81-23.52,16.25-22.12,23.64,2.1,10.83,24.99,16.54,56.64,15.74Z"/>
        <path class="cls-1" d="M633.81,403.96c22.73-9.54,35.16-20.45,33.33-29.97-1.42-7.35-10.84-12.56-27.32-15.13,8.97-6.54,13.08-13.14,11.91-19.2-1.63-8.43-13.61-14.43-33.06-16.65,7.03-5.23,10.23-10.51,9.29-15.39l-2.52.49c.84,4.34-3.09,9.58-11.05,14.76l-3.11,2.03,3.7.32c19.97,1.75,32.77,7.33,34.23,14.93,1.05,5.46-3.74,12.02-13.51,18.46l-2.88,1.9,3.43.44c16.8,2.16,27.15,7.09,28.39,13.54,1.98,10.28-18.68,24.03-51.42,34.18l.76,2.45c7.27-2.26,13.91-4.66,19.85-7.15Z"/>
        <path class="cls-5" d="M532.86,423.3s-.09-.07-.13-.11c-8.34-6.54-14.71-16.55-14.12-27.14.59-10.59,9.89-20.76,20.48-19.86-9.94-.75-22.1-3.21-24.9-12.74-2.08-7,2.56-14.56,8.84-18.29,6.27-3.69,13.8-4.43,21.06-5.09-9.06-3.96-18.74-8.46-23.53-17.1-2.45-4.45-.02-12.03-1.3-16.34-20.13,7.51-32.81,17.25-31.2,25.59,1,5.09,7.19,8.86,16.85,11.06-18.09,8.46-28.77,18.31-27.09,26.95,1.22,6.28,8.77,10.95,20.52,13.69-15.02,7.81-23.52,16.25-22.12,23.64,2.1,10.83,24.99,16.54,56.64,15.74Z"/>
        <path class="cls-5" d="M654.63,42.19c8.87,4.93,15.59,13.6,18.16,23.44,3.21-5.65,10.81-7.86,17.01-5.89,6.17,1.98,10.82,7.41,13.08,13.5,2.24,6.07,2.37,12.75,1.79,19.22,1.46-3.42,6.56-3.97,9.54-1.75,2.98,2.23,4.1,6.2,4.2,9.94.16,5.82-1.8,11.7-5.42,16.27,7.17.46,12.64,7.59,13.06,14.76.41,7.14-3.26,14.02-8.06,19.36,5.54,5.42,5.51,14.73,2.02,21.65-2.42,4.83-6.11,8.75-10.18,12.35,4.21-.06,8.86-1.55,13.07-4.45,9.07-6.21,12.77-16.55,8.28-23.11-1.89-2.77-5-4.43-8.59-4.93,4.08-2.11,7.89-5.9,10.5-10.93,5.25-10.16,3.57-21.49-3.79-25.29-2.61-1.34-5.53-1.55-8.49-.83,2.61-3.14,4.62-7.21,5.6-11.92,2.44-11.69-2.45-22.6-10.9-24.35-2.03-.4-4.08-.27-6.06.38.42-4.08-.14-8.6-1.79-13.06-4.41-11.65-14.82-18.53-23.24-15.36-1.55.59-2.94,1.48-4.12,2.61-1.97-4.17-5.31-8.22-9.84-11.38-8.94-6.27-19.59-7.17-25.94-2.68.38-.1.77-.14,1.18-.16,3.13-.09,6.19,1.09,8.93,2.62Z"/>
        <polygon class="cls-10" points="547.85 215.36 552.47 238.55 529.04 236.61 549.9 247.64 533.93 264.57 555.4 255.31 558.83 278.18 564.83 255.8 585 267.19 571.09 248.73 592.73 239.88 569.46 239.42 576.19 216.81 561.17 234.9 547.85 215.36"/>
      </g>
      <polygon class="cls-9" points="286.85 248.6 318.47 256.88 317.72 224.4 331.22 254.08 355.89 233.44 341.35 262.3 372.62 268.93 341.25 275.36 355.3 304.13 330.97 283.41 316.98 312.54 318.27 280.4 286.52 287.83 312.71 268.59 286.85 248.6"/>
      <path class="cls-3" d="M240.99,35.34c3.89-.36,7.33.65,9.72,2.88l-6.46,6.93c-.32-.3-1.29-.53-2.7-.35-3.4.44-6.8,2.68-9.11,5.93,4.22,2.86,7.6,7.24,9.56,12.4,1.54,4.07,1.98,7.98,1.29,11.62-1.03,5.45-5.02,9.5-9.73,9.89-2.62.21-5.36-.73-7.71-2.62-4.27-3.44-6.59-9.19-6.71-16.63-.05-3.21.24-6.28.87-9.16-1.87-.09-3.66.22-5.1.97-3.09,1.6-5.56,4.19-7.42,7.21,7.2,5.53,11.86,14.26,12.19,23.39.07,1.89.01,4.71-1.3,7.43-1.59,3.29-4.69,5.48-8.01,5.7-1.49.1-3-.17-4.63-.83-6.98-2.82-11.38-10.45-11.74-20.41-.13-3.45.35-7.24,1.42-10.98-1.31-.34-2.73-.51-4.14-.29-2.12.33-3.99,1.68-4.54,3.29l-8.95-3.1c1.7-4.93,6.43-8.68,12.03-9.55,2.98-.47,6.15-.16,9.34.88,2.73-4.62,6.52-8.63,11.38-11.16,4.11-2.14,8.73-2.45,12.95-1.67.05-.09.1-.18.16-.26,3.8-6.3,10.03-10.59,16.67-11.45.22-.03.44-.05.66-.07ZM232.83,75.2c.23-.11.92-.99,1.15-2.2.35-1.87.06-4.12-.84-6.51-.96-2.53-2.41-4.74-4.19-6.44-.24,1.64-.35,3.38-.32,5.19.05,3.16.64,7.36,3.18,9.41.55.45.95.55,1.03.55ZM209.63,91.45c.07-.07.16-.19.23-.33.3-.61.42-1.58.37-2.96-.19-5.27-2.59-10.48-6.32-14.28-.35,1.89-.5,3.75-.44,5.48.17,4.51,1.79,10.35,5.82,11.97.15.06.26.1.34.12Z"/>
      <g>
        <g>
          <g>
            <path class="cls-8" d="M538.47,817.52c38.32-10.86,70.98-39.52,108.36-50.52,42.64-17.25,72.18-26.28,57.83-60.66,1.92.52-1.39-7.45-3.73-7.22-.42-.25-1.25-.43-.78-.99.14-.76,2.45-4.15-.57-.03-1.72.3-4.4.68-3.47-1.87-1.44-.84-6.2-.06-5.69-3.67-.9-5.03-1.72-1.72-5.77-9.13.13-.52,1.45,1.34,2.56,2.73-6.97-11.71-17.66-33.18-23.57-36.12-2.57-4.18-5.08-10.83-10.78-11.14,8.01-.42,16.93,25.78,8.94,13.78-.96-2.43-4.11-7.07-6.04-9.17-19.44-5.48-2.28,28.89-36.8,24.47-21.48,8.93-37-40.24-47.48,4.76.13,6.43-36.49,90.17-90.32,121.52-17.5,32.19,38.52,30.12,57.3,23.27ZM483.99,792.38c-.4.21-.78.43-1.16.66.32-.29.74-.53,1.16-.66Z"/>
            <path class="cls-8" d="M475.75,805.9c.99-9.15,2.75,6.61,2.2,4.72-.73-.88-1.73-2.8-2.2-4.72Z"/>
            <path class="cls-8" d="M707.69,713.06c.15.36.59,1.62.9,4.6-.29-2.65-1.57-4.13-.9-4.6Z"/>
            <path class="cls-8" d="M707.57,714.26c.01.37.03.77.05,1.24.02-.37-.23-.91-.05-1.24Z"/>
            <path class="cls-8" d="M561.27,694.15c-.43-3.5,2.75-6.45,3.79-9.78-.63,3.66-1.89,5.2-3.79,9.78Z"/>
            <path class="cls-8" d="M636.59,664.06c-8.9,2.11-7.39,2.08.43-.31,6.68-6.65,6.17-4.87-.43.31Z"/>
            <path class="cls-8" d="M708.52,709.14c.64,2.83,1.15,5.87,1.19,9.07-.27-2.83-.57-6.37-1.19-9.07Z"/>
            <path class="cls-8" d="M650.36,770.45c-3.31-.25-5.34,2.29-2.23-.58,4.3-1.5,1.27.41,2.23.58Z"/>
            <path class="cls-8" d="M633.05,775.26c2.51-1.14,4.01-1.53,5.49-1.9-3.04,2.11-3.49,1.39-5.49,1.9Z"/>
          </g>
          <path class="cls-8" d="M478.73,809.95c5.09,10.16,17.72,10.87,27.75,10.87,11.81,0,23.66-2.5,34.89-6.02,7.62-2.39,15.1-5.36,22.24-8.96,23.1-11.72,31.4-21.23,76.8-40.24,5.48-2.29,11.5-4.74,18.17-7.33,10.77-4.2,21.64-8.88,31.18-15.49,6.39-4.41,12.9-10.2,14.67-18.11,1.21-5.42.09-10.65-1.49-15.82-1.11-3.61-2.44-7.17-3.36-10.75.04.13-.49.16-1.24.16-1.82-.02-4.98-.34-5.25-.41-3.46-.97-5.45-3.47-7.28-6.42-1.27-2.05-2.56-4.1-3.83-6.15-8.34-13.4-16.63-26.83-24.89-40.27-2.24-3.66-7.5-3.73-9.89-.17-1.33,1.96-2.55,4.06-3.03,6.39-.92,4.53-.77,8.65-4.42,12.08-2.5,2.34-5.59,3.15-8.81,3.55-1.35.18-2.71.27-4.06.4-2.64.24-5.27.48-7.9.72-3.73.34-7.5,1.41-11.27,1.16-.29-.02-.58-.06-.84-.11-4.59-.95-5.66-6.79-9.66-9.13-5.34-3.13-12.06-7.69-17.65-5.03-5.32,2.51-5.61,11.86-5.84,12.54-3.54,10.48-7.25,22.14-12.43,31.91-11.53,21.77-26.26,42.22-41.81,61.47-2.53,3.15-5.09,6.26-7.66,9.33-3.26,3.9-6.9,7.46-10.79,10.72-3.77,3.15-7.09,6.83-11.57,9.05-2.8,1.39-5.91,2.33-8.28,4.39-1.52,1.32-2.6,3.04-3.23,4.93-1.16,3.44-.86,7.48.79,10.77Z"/>
          <path class="cls-12" d="M519.47,760.77c1.72-.23,3.12-1.42,4.38-2.62,6.17-5.85,11.27-12.72,16.35-19.55,8.58-11.57,17.21-23.2,23.85-35.99,1.64-3.17,3.15-6.4,5.06-9.41,5.5-8.72,13.99-15.08,23.29-19.3,3.62-1.65,10.22-2.64,14.47-4.89-4.59-.95-5.66-6.79-9.66-9.13-5.34-3.13-12.06-7.69-17.65-5.03-5.32,2.51-5.61,11.86-5.84,12.54-3.54,10.48-7.25,22.14-12.43,31.91-11.53,21.77-26.26,42.22-41.81,61.47Z"/>
          <g>
            <path class="cls-7" d="M598.63,743.38l.33-.02c-.15.03-.25.03-.33.02Z"/>
            <path class="cls-7" d="M596.59,744.28l-.13-.17c.14.07.21.13.13.17Z"/>
            <path class="cls-7" d="M579.9,747.86c-.12.12-.29.24-.54.37l.54-.37Z"/>
            <path class="cls-7" d="M609.3,736.67l.61.06c-.42.43-.41.07-.61-.06Z"/>
            <path class="cls-7" d="M621.27,694.97s-.03-.08-.06-.11c.06-.01.07.04.06.11Z"/>
            <path class="cls-7" d="M580.09,723.99v.02c-.04-.12-.03-.1,0-.02Z"/>
            <path class="cls-7" d="M617.42,717.77s-.01-.04-.03-.07c.25-.23.2-.12.03.07Z"/>
            <path class="cls-7" d="M565.6,740.48c.04-.06.04-.03.03.02l-.03-.02Z"/>
            <path class="cls-7" d="M565,741.95c.64-.65.61-.95.63-1.45,1.87.86.55.67-.63,1.45Z"/>
            <path class="cls-7" d="M616.93,724.58s.04-.08.06-.12c-.01.05-.03.09-.06.12Z"/>
            <path class="cls-7" d="M597.67,743.67l.12-.04s-.08.03-.12.04Z"/>
            <path class="cls-7" d="M570.66,747.62c1.38,1.42.09.22.23-.35.6.59,2.29.45,1.82,1.47,2.2-.28,4.18-.37.48-.61.03-3.4,3.52,1.4,5.35.29,0-1.26.71-.17.43-.85,1.44-.45-1.17-.65-.97-1.27,1.5-.64,1.76,2.01,2.71.98,2.24,2.16,3.51-1.98,5.34.12-.35-.56.6,0,.68.13.17-.24-.59-.25-.03-.63,2.33.6,2.46-1.08,3.4.56-.04-1.44.67-1.24,1.76-.74-.43-1.54,3.35-2.18,1.35.35.66-.6,2.35-1.79.69-1.54,1.18-1.33,1.75.4,1.91-1.22-1.17.51-1.46-.67-.2-.28.02-.2-.46.04-.2-.28,1.53.62,2.72-.2,3.44-1,1.45-.45,1.95,1.02,2.1-.49.79,1.27,2.61-1.29,3.47-.14.81-1.33-2.2.6-.88-1.18-1.85.83.81-1.03,1.57-.5.19-.4-.88-.72.14-1.16,1.4-.7.41,1.03,1.26.6.5-2.24,3.61-3.62,5.12-5.2-.66-.55.53-1.46,1.06-1.72-1.1.57-1.56-.25-.45-.61-1.61-.2,3.32-1.51,1.09-2.11.18.63-.31.63-.7.64.59-.82.04-.27.03-.84.69-.37,2.92-1.63,1.7-1.93.87-.82.21-.49-.41-.37-.03-1.08,2.35-.4.96-1.58.44-.46,1.32-.31.94-1,1.26.85.69-.07.84-1.35,1.62,1.04-.78-1.49.34-2.6.15.73,1.13-.2.63,1.26.11-.76.79-2.71-.28-1.88.51-1.38.82-2.26,1.27-3.81-2.25,4.19-.45.4-1.88,1.53-.08-1.4,2.05-3.2.84-1.1,3.17-.89-1.35-5.28,1.07-5.55.31-.39-.54,1.72.68,1.14-1.1-.73,1.59-3.69-1-3.21.67-1.89.85-1.13,1.88-3.03-1.09,1.09-.45-4.81-.06-3.97.71-1.02.67-7.02,1.07-5.51,1.02-2.06-1.5-1.63-.4-2.59-1.11-.61.46-.31.2-.81-2-4.14-3.07-8.95-9.1-6.21-5.77,5.46-13.06,15.03-19.92,22.12-2.42,1.31-6.6,10.09-10.26,10.88,2.21-1.25.96-1.07-.4-.66.25.91.81-.64.85.32-.84.73-.92,2.39-2.1,3.87-.05.89-1.62.94-1.91.4-.47.57-.2.82-.75,1.2.06-1.22-.03.23-.68-.13-.46.46.15.39.11.73-1.91.35,2.36.24.5,1.57-.28-.3-.43-.01-.08.11-.94,2.38-2.84-3.09-2.5-.08.07,1.07-1.18.67-1.37,1.37,1.25-.54.24.56-.38.65,3.03.72-.62,2.4-1.58,1.39,1.64-1.1,2.24-1-.08-.84-2.19,3.94,4.09.6,1.54,3.24-2.15-.63-2.92-.05-1,.87-.53.54-3.47.89-2.83.4-2.12,1.65,1.21,2.1-1.73,2.31,1.79.48.66,1.45-.25.34.09,1.35.31,3.01-.73,1.22-.64.65-.72,1.26-.72,1.7.56-1.01,2.7-.31,2.03.67-.98.45-3.41,2.42-.98,1.35-2.03,3.59,3.69,4.3,3.98,5.17ZM593.44,745.21c.28-.28.35-.61.78-.13-.04.34-.54.16-.78.13ZM577.39,747.49c.23-.15.45-.19.64-.17-.25.23-.47.33-.64.17Z"/>
            <path class="cls-7" d="M621.22,697.06v.06s0-.03,0-.06Z"/>
            <path class="cls-7" d="M579.29,748.01c.05-.09.05-.19.05-.29.09.08.11.18-.05.29Z"/>
            <path class="cls-7" d="M609.19,736.66c.02-.05.08,0,.11.01h-.11Z"/>
            <path class="cls-7" d="M576.21,725.73c-.05.2-.04.34,0,.46-.11-.07-.14-.2,0-.46Z"/>
            <path class="cls-7" d="M589.56,712.41l.32-.61c.02.17-.22.48-.32.61Z"/>
            <path class="cls-7" d="M584.11,717.04c.47-.2.38.03.53.41,0,0-.53-.41-.53-.41Z"/>
            <path class="cls-7" d="M583.06,718.49c-.19-.06-1.08.49-.47-.2.19.06.77-.41.47.2Z"/>
            <path class="cls-7" d="M569.07,733.68c.33-.81.65.28.88-.52.38.43-.43,1.45-.88.52Z"/>
            <path class="cls-7" d="M570.07,733.8c.09-.04.18-.07.3-.09-.15.07-.23.09-.3.09Z"/>
            <path class="cls-7" d="M592.68,746.55l-.31.52c-.21-.24.01-.39.31-.52Z"/>
            <path class="cls-7" d="M599.6,743.68c-.24.31-.1-.57-.16-.61,0,0,.16.61.16.61Z"/>
            <path class="cls-7" d="M606.05,740.84c-.18.15-.44.24-.66.37.4-.34.3-.98.66-.37Z"/>
            <path class="cls-7" d="M605.4,741.2s-.1.07-.16.1c.05-.04.1-.07.16-.1Z"/>
          </g>
          <g>
            <path class="cls-7" d="M542.86,793.19h.26c-.11,0-.19.01-.26,0Z"/>
            <path class="cls-7" d="M541.44,794.05l-.14-.16c.12.06.19.12.14.16Z"/>
            <path class="cls-7" d="M529.45,798.92c-.05.13-.15.28-.3.44l.3-.44Z"/>
            <path class="cls-7" d="M550.78,788.31l.52.18c-.34.29-.35-.03-.52-.18Z"/>
            <path class="cls-7" d="M542.55,772.34s-.03.05-.04.09c-.04-.05-.01-.07.04-.09Z"/>
            <path class="cls-7" d="M504.96,790.86v.02c-.09-.06-.08-.05,0-.02Z"/>
            <path class="cls-7" d="M558.59,773.63s-.02-.03-.04-.05c.23-.31.19-.18.04.05Z"/>
            <path class="cls-7" d="M517.06,801.55s-.02-.03.01-.04v.04Z"/>
            <path class="cls-7" d="M517.88,801.97c-.33-.6-.52-.55-.8-.45.48-1.96.42-.84.8.45Z"/>
            <path class="cls-7" d="M506.75,797.83c0-1.58.29,1.36,1.36-1,2.46,4.71-1.35-.38-.16,2.91,1.19.31,1.34.99,1.26-.15,1.46.59.37-1.17.49-2.19.69-1.15,1.27,1.76.93,2.26.58.08.88-1.2.87-1.47,1.14,1.25.67,2.6,1.99,2.81,1.07-2.65.86,1.64,1.35-1.22.48,2.93,2.31-1.32,1.14,1.59.48.34.8.26,1.06.16-.61-3.8.76.59,4.51-.44-.17-1.49,1.89.56,2.14-.17-2.14.05.82-1.32.81.23.68-1.24,1.46.02,1.82-1.02-1.8.16-1.56.2-2.17-1.21,1.85.21,4.33,2.28,4.34-.03,1.63.11-1.71-1.21-.5-1.29.05-.03,1.68.31,1.46,1.3.55-1.21,1.24-.08,2.35-.2-.06-.27-.38-.38-.3-.62,1.46.03,1.15-2.01,2.45-.4-.4-.54.43-.01.55.06-.9-1.08,1.5-.23,1.77-1.06.92-.31.12,1.17.8.71-.36-2.84.93.63,1.35-2.09,1.48-.5,1.13.49.97,1.53.32-.76.85-.7.77-1.61l-.58.1c.63-1.32,1.47.31,1.23-1.24-.74.5-1.39-.54-.22-.26-.76-.5,1.79.35,1.49-.61.92-.01.41.04.8-.63.57-.6,1.94.97,1.43.06.05-.39,5.04-.6,1.79-.83-.17-.87-.29-1.21,1.44-.93.11-.33-.81-.78-.02-1.03,1.08-.42.45,1,1.1.74.03-1.78,2.8-2.58,4.11-3.47-.54-.63.36-1.05.96-1.2-2.27.33.18-1.92.36-.93,1.19-.94.91-1.13-.35-.84.27-.73.32-1.41,1.2-.56.02-.81,1.59-1,.5-1.33,1-.59.02-.27-.36-.41.04-.86,2.21.14.96-1.09.42-.29,1.28.03.94-.63.97.76.69.2.86-.97,1.51,1.16-.66-1.28.36-2.12.72.35.9,1.64.78.2-.2-1.91.4-2.33.61-5.09-.18.94-1.14,3.79-.97,1.5-.16.25-.47.59-.67.68.21-3.19,2.34-.23.94-3.92.25.03-1.73-.64-2.31-.39-.77-.32-1.01-1.57.11-.89,1.81.52-1.21-1.72-2.53-.98.31.52-.26,1.21-.57.93-1.21-.19-.78-.77-2.61-.74.5,1.21-1.95,1.42-3,2.14-1.96-.23-4.2,1.47-5.39,1.88.74-.41.48,1.38-.09.54l.04.35c-.47.28-.16-.59-.63-.31.32,1.18-1.93,1.32-1.8,2.45.47-2.3-1.52.54-3.27,1.4-2.5,4.29-14.89,9.76-21.78,7.41-5.24-1.24-10.93,5.56-9.24,2.26-.51.15-1.11.76-1.5.6.39.82.69-.67.87.23-.18.26-.47.26-.66.35.55.92,1.1,4.46-.56,4.71.18.68.55.55.58,1.16-.99-.56.16.12-.42.53.23.62,1.16-.31.44.73.61-.12,1.78-2.32,1.57-.5,1.77.17-.77,1.79-1.42,1.89.98.39,1.49.35,2.05,1.67ZM539.16,795.05c.16-.28.14-.59.58-.16.05.33-.39.18-.58.16ZM527.47,798.99c.13-.19.28-.26.43-.27-.12.26-.27.4-.43.27Z"/>
            <path class="cls-7" d="M542.17,793.46l.08-.04s-.06.03-.08.04Z"/>
            <path class="cls-7" d="M558.03,779.85s.04-.06.06-.09c-.02.04-.04.07-.06.09Z"/>
            <path class="cls-7" d="M529.04,799.17c.01-.1-.01-.19-.04-.29.09.06.13.15.04.29Z"/>
            <path class="cls-7" d="M550.68,788.27s.07.02.1.03l-.1-.03Z"/>
            <path class="cls-7" d="M504.13,794.62c.16.12.3.15.42.15-.1.08-.24.07-.42-.15Z"/>
            <path class="cls-7" d="M512.86,784.4l.51-.17c-.08.12-.38.16-.51.17Z"/>
            <path class="cls-7" d="M507.08,784.77c.46-.01.32.18.38.55l-.38-.55Z"/>
            <path class="cls-7" d="M505.9,785.84c-.17-.1-1.07.35-.43-.26.18.07.77-.26.43.26Z"/>
            <path class="cls-7" d="M510.78,800.41c.3-.49,1.34-.12.67.63-.8-.02.07-.7-.67-.63Z"/>
            <path class="cls-7" d="M511.3,800.08c-.05-.07-.1-.14-.15-.24.09.11.13.18.15.24Z"/>
            <path class="cls-7" d="M538.87,796.36l-.12.51c-.2-.18-.11-.37.12-.51Z"/>
            <path class="cls-7" d="M543.69,793.49c-.14.27-.2-.56-.24-.58,0,0,.24.58.24.58Z"/>
            <path class="cls-7" d="M547.91,791.62s-.07.06-.13.08c.04-.03.08-.06.13-.08Z"/>
            <path class="cls-7" d="M548.39,791.39c-.12.11-.32.15-.48.23.27-.26.11-.83.48-.23Z"/>
          </g>
          <path class="cls-12" d="M640.41,765.59c5.48-2.29,11.5-4.74,18.17-7.33,10.77-4.2,21.64-8.88,31.18-15.49,6.39-4.41,12.9-10.2,14.67-18.11,1.21-5.42.09-10.65-1.49-15.82-1.11-3.61-2.44-7.17-3.36-10.75.04.13-.49.16-1.24.16-1.82-.02-4.98-.34-5.25-.41-3.46-.97-5.45-3.47-7.28-6.42-1.27-2.05-2.56-4.1-3.83-6.15-8.34-13.4-16.63-26.83-24.89-40.27-2.24-3.66-7.5-3.73-9.89-.17-1.33,1.96-2.55,4.06-3.03,6.39-.92,4.53-.77,8.65-4.42,12.08-2.5,2.34-5.59,3.15-8.81,3.55.7.92,1.37,1.86,2.03,2.8,14.1,20.2,19.48,46.29,14.52,70.43-1.78,8.65-4.81,17-7.08,25.51Z"/>
          <g>
            <path class="cls-2" d="M552.37,676.86c.21-.06.48-.13.64-.19.28,0-.02.08-.64.19Z"/>
            <path class="cls-2" d="M544.14,677.3c1.32-.31,6.72.07,8.23-.45-2.2.74-5.93.85-8.23.45Z"/>
            <path class="cls-2" d="M551.86,676.04c1.61-.56.13.26-1.35.3,0,0,1.35-.3,1.35-.3Z"/>
            <path class="cls-2" d="M552.77,675.78c.12-.04.26-.08.42-.12l-.42.12Z"/>
            <path class="cls-2" d="M552.32,676.41c1.52-.34,1.86-.43.19.18,0,0-.19-.18-.19-.18Z"/>
            <path class="cls-2" d="M565.58,687.69c-.18-.09-.36-.19-.54-.3.01-.25.24-.03.54.3Z"/>
            <path class="cls-2" d="M573.61,691.08c-.3-.17-.65-.36-1.17-.61.55.24.84.39,1.17.61Z"/>
            <path class="cls-2" d="M567.89,680.22c-.51.26-1.01.58-1.46.93.44-.38.93-.69,1.46-.93Z"/>
            <path class="cls-2" d="M565.15,640.49c-.34.82-.67,1.93-.79,3.11.01-.65-.45-1.04.79-3.11Z"/>
            <path class="cls-2" d="M569.39,698.06l.1.29c-.52-.42-.37-.4-.1-.29Z"/>
            <path class="cls-2" d="M575.3,688.83l.36.45c-.18-.08-.55-.24-.36-.45Z"/>
            <path class="cls-2" d="M574.05,679.38l-.99.18c-.13-.09.52-.18.99-.18Z"/>
            <path class="cls-2" d="M562.47,696.13c-.18.06-.31.29-.24-.03.07-.12.63-.29.24.03Z"/>
            <path class="cls-2" d="M573.61,691.08s.11.06.15.09c-.06-.01-.09-.06-.15-.09Z"/>
            <path class="cls-2" d="M568.46,685.2c.1.15.22.34.31.57-.13-.17-.26-.34-.31-.57Z"/>
            <path class="cls-2" d="M564.3,644.58c.02-.33.03-.65.07-.98.02.24.02.53-.07.98Z"/>
            <path class="cls-2" d="M561.38,673.38c-.09.19-.2.44-1.03.87.27-.26.63-.55,1.03-.87Z"/>
            <path class="cls-2" d="M533.06,750.36c.05.08.11.19.18.34l-.18-.34Z"/>
            <path class="cls-2" d="M546.44,737.89c-.06-.19-.13-.4-.19-.6.1-.02.21.18.19.6Z"/>
            <path class="cls-2" d="M531.93,749.72c.2-1.58,1.22,2.52,2.02,2.55-2.17-5.2-.1-2.07-2.54-8.28.2-1.8.59,1.64,1.27,2.24-1.43-4.64.31.35-.1-3.12-1.14-3.61,1.19-6.38,2.22-8.96-1.92,1.68-.22-1.11.93-1.53-.11-1.81,2.99-1.97,2.02-1.5-2.05,2,.22-.41,1.1-.07.18,4.77-.81,7.23,3.19,9.08,2.64.26,1.43,1.24-1.04.29,1.05.99,2.87,1.21,4,.35,4.5-7.3-8.77-14.96,1.67-19.74,2.81-.49,5.76,2.81,7.65,7.51,9.51-2.67,1.06-7.74,1.52-14.92-.19-10.44,11.71,5.47,14.33,4.42,4.91,1.2,1.97,1.18-.75,4.92-.2.66-1.27,1.59-.69,1.77-1.27,1.45,0-1-1.17.44,0,0,.1-.15.1-.15-1.85,1.81-11.24,12.8-8.15,10.55-1.27,1.57-2.59,5.89-1.14,2.87-.04.53.06,2.15-.04,3.08-.19.51-.64-2.15-.56.2.96.56,1.02,3.87,2.1,4.03,1.08,1.2-.11.77.94,1.88.32.05-.26-1,.41-.58,1.56.94.73,1.13,1.94,2.5.26-.24.48-.64-.52-1.45.69.22,1.74.59,1.03-.25,1.31,2.41,7.43,2.76,7.27,4.66,1.33.38,1.43.61.82-.49.76-.09,2.44.13.87.85,1.06-.21,1.26.5,2.01.35-1.5-.29.85-.68-1.08-.94,1.56.06.3-.5-.38-.81,2.08.31,3.47.71.73-.25,1.45-.16,2.39.37,2.85-.1-2.12.27-2.74-1.13,0-.86.44.27-.4.43-1,.37,3.31,1.57,4.31-1.29,8.07.03-2.14-.02,2.52.28.11.32,1.32,1.35-2.73.16-3.59.48.45.78,3.5-.21,2.26.99,2.78.99,2.12-.63,4.3.87,1.55-1.39,6.85-.35,2.68-1.09,7.07-1.06-6.8.55-4.39-1.57,2.63,1.15,6.23.46,8.58.78.4-1.13,3.44-2.35,6.39-2.05.64.1,1.41.14,2.43-.39.21-.57-1.66.25-.92-.54,3.12-1.75,3,.48,4.58-.6-2.12.76,1.06-2.07,2.58-1.95.78-.86,2.95-1.49,1.63-.45,1.13-1.13.62-.4,1.62-.64-1.01.07.81-.99.37-1.41-1.95,1.51-1,.31-.25-.9,1.17-.98.77.23,1.05,1.14.87-1.2.6-1.79.6-2.57,7.79-3.86,12.63-14.96,13.87-23.24-3.27,4.93,1.72-5.04.71-7.02-.97-10.54,8.92-22.56,18.62-23.19,2.07-2.13,7.33-1.2,15.26-.42,2.16.1,2.95.07.37-.48-.78-.07-2.21-.45-1.05-.25-.1-.14-1.93-.33-.24-.6,1.2-.12.56.91,1.73.4-1.56-.33.63-.28-.39-.73.47-.22.94.23,1.45.64-2.55-.35,1.47.78,2.21.4.81,1.19,2.69-.41,5.3.62-2.42.48-.13.43.62,1.06-.49.77,3.43-.85,2.24.48,3.77.34,1.85.26.84,2.97.15.36,1.74-1.44,1.28,0-4.91,3.84-4.85,7.37-9.44,12.85-.6,1.04-4.37,6.17-3.7,6.01-.48.61-2.79.92-1.5,1.6-1.48.72-1.87.82-2.28,1.79.46-.19.08.49.23.42.66-1.23-.1,1.58-.43.59.66.89-.81,1.14-.56-.02-1,2.48-3.87,3.28-6.11,5.77-2.17,2.74,1.27-.65,1.54-.14-.1,1.22-.95.33-1.15,1.18.84-.63-.03.52.69.26-.35,1.01-1.71-.8-1.92,1.2-1.44.04-.65,1.56-2.32,2.95.33-1.02,0-.98-.7-.65.88.17-.76.26-.69.83.54-.63-.31,2.17-.57.75-.39,1.55-2.14,1.97-2.37,2.9.41-.66,1.48-.36,1.86.09-.94.43-1.49.07-2.6-.01-.41.72-1.05.78-.74,1.4-.33.07-1.03-.06-.44.37-1.39.21-1.23,1.03-2.77,1.47,1.37.72,1.74-1.09,2.68-.59-1.12,1.05-2.35,1.26-3.6,1.44.71,1.38-1.84-.39-1.14,1.64.51-.58.98.12,1.41-.31-1.72.27-.28-.84.68-.94-1.16,1.21,2.04-.32,1.24.7,1.1-1.08-.35-.67,1.69-1.7-1.06.3-1.44.02-.22-.27-.09-.98,1.11-1.15,1.72-1.33-1.29.52-.43-.86.22-1.06-.65.88,1.76-1.31.67.68.23-.22.52-.83.75-.57.14-.6,1.3-.45.51-.96,1.21-.78,1.02-1.03,1.04,0-.16-.48.37-.05.59-.4-.82.13.35-.9-.24-.8.3-.66,1.53-.36.95-.93,1.53-1.23-1.69-1.43,2.16-1.44-1-.13.26-1.01.56-.71.06.18-.19,1.04-.18.83.52-.2-.17,1.02.54.29-.8-3.51,3.06-1.72,3.93-4.42-.04-.7,1.21-1.69,1.79-1.89.23.27.63-1.24.24-.84.89-.65,1.17-.86,1.15-1.39.59-.16,2.32-1.85,4.25-2.78-.65-.16.53-2.98,1.35-3.17,1.03-.6,1.83-.97,2.45-2.04,0-1.12-.93-.12.04-1.37.86-1.55.6.24.15,1.03.81-.87,2.39-.82,1.65-1.5,1.11-.65,2.22-.22,2.51-2.06-.37.54-1.05.72-1.34,1.07-.92-.96-2.06,2.69-2.15.71,1.12-.53.45-.88.72-1.65-.12.42.77-.05.24.51,1.39-.89,1.7-2.39,2.54-1.36-.35-.38-1.28,1.13-.65-.06,0,0-.66.69-.66.68.96.17.91-.14,2.02-.93-.66-.64.51-1.26.6-1.82-.72.65-.34-.29-.29-.85.98.27,2.58-2.66.9-1.34,3.03-3.42,3.74-1.13,4.98-5.86-.28,1.86,1.19-1.1,1.45-1.66-.47-.03-1.09.1-.39-.79.86-.25,1.25-.07,1.67-1.13,1.98,1.53,5.22,8.53,9.42,8.37.78.76,3.22.2,3.22,1.31-.59,4.23-3.55,6.11-5.48,9.22-1.55.71-1.59,3.4-3.11,3.65,1.61.08-.85,1.24-1.3,1.79.51-.15-.37,1.15-1.01,1.03,1.77.53-.88.69-.99,1.82.18-2.22-2.04-.04-2.39.24-2.25,2.65-5.54,3.5-7.14,5.49-.17.16-.67.71-.77.2-.76,1.25.82,0,1.12.32-1.04,1.06-5.22,4.2-3.79,2.47,1.46-.81.08.53-.42-.49-5.85,3.74-10.76,8.21-16.31,9.07-4.22,2.76-7.07,4.49-13.87,5.87-.74,1.42-3.76-2.4-2.33-.12-.09.67,6.72,3.15,5.5,1.3.81-.06,1.84,1.6,1.59.37,1.24-.47-.61-.12.2-.75,1.96-.6-.35,1.18,1.48.85-.47-1.4,1.86-.64,2.82-.6.21-.54,1.06-1.16-.51-.3-1.16-1.18,9.55-1.15,8.73-3.37-.06-.55-1.68-.11-.96-.82.66.34,3.48-.44,1.81.66.85-.15,2.48-1.6,1.93-.46,1.82.63.8-.63,2.09-.65-3.7-.19,4.31-1.3,4.72-3.22,6.59-2.67,10.51-7.47,16.62-10.89-.07-1.49,5.66-2.94,2.9-2.88.8-1.16,1.26.19,2.13-.99,0-.75-.4-.23-.79-.03,1.67-2.64.76,1.21,2.17-2.03.04.21,1.48-.37.87-.57.96-.66,1.35.12.58-.87.47-1.02.85-.33,1.72-.73-2.94-.95.63-1.46,1.67-3.63,1.23-.53,1.68.06,2.31-.62-1.84-.08.08-1.91.14-.35.09-.76.75-.57.82-1.1-.66.8-.39-.84-1.11.24.56-1.08-.54-.24-.81-.14.89-1.26,1.39-1.71-.04-.57.23-.96.92-1.3.63-1.78-.34,1.49-1.72,1.08-.76-.38.36-.14.28.42.08.77,2.01-1,.16-3.89,2.07-4.83-.35,1.27.29-.87.48-.37,1.12,1.11-.35,1-.64,2.78.64.33.55-1.43,1.18-1.52-.5,1.02,1.52-.27,1.56-.9-1.54.68.45-.98.82-1.39-.27-1.87,0-3.35.9-5.09-2.42,4.33.3-.97-1.03.31-.46,1.4-1.48,6.98-2.92,5.37,1.77-1.52,2.47-4.71,3.01-6.96-1.85.33-5.29,1.79-7.48-.99.47,1.98-1.98-.18-.8-1.09-.58-.12-.41-.12-.2.38-.33.18-.89-.51-.79.12-1.51-.97-1.18-2.09-1.15-2.91-.17.67-.63-.28-1.08.09,1.42,1.59-2.98-.23.4-.6.09-.4-1.41.06-1.59-.32.2.68-.19-.03-.4.27-.28-3.02-2.37-3.7-2.04-4.93-4.69-8.7-3.84-4.73-7.85,1.28.57.84-1.62-.14-.99-.36.33,0,1.17.52.91.02-.03.06-2.33-.53-1.78.05-2.26-.9-2.16-1.19-4.09-.28-.73-.7-.27-1.28-1.64-1.79.47,1.43-2.6-.68-.22-.41-.73-.4,1.41-.3-.16-.64-.05.97-6.41.94-4.55-.67-6.62-.52-10.54-.02-14.66.38.69-.51-4.31.28-6.14.16-.47,1.82-5.87,3.05-7.71,3.69-1.81.82-1.47.78-2.03,2.39-.9.07-.88,1.3-1.81,1.26.72-.95.78-1.32,1.72-2.19-.94.44-2.97,1.65-2.59,1.05-.94,1-.98,2.23-2.46,1.6-6.1,7.44,4.2-3.17,3.11-.35-1.72.84-.81.88-1.66,2.33-.43-1.21-1.97,1.36-3.13,2.85.97-1.47-.84.37-.51-.66,1.7-1.04.92-.74,1.76-1.45-1.63-.8-3.99,6.28-2.84,4.59-.05,1.59-2.82,7.3-.82,4.38,0,0-.03.99-.03.99-2.22,4.18-2.48,4.88-3,8.88,2.14,6.6-8.51,25.85-22.07,30.34-11.08,5.37-40.24,6.21-37.37-6.3.11.36.62-.65.46-1.1.08,1.57,1.03.79,1.85,0,1.9-3.81,5.47-6.78,9.12-10.74-.1-.63.17-.92.68-1.26-.36-.06.24-.58.39-.45.01-.68,1.09-.7,1.17-1.51-3.98,2.79.52-1.33,1.37-2.81,1.12-2.26,3.49-3.32.49-.25,7-5.06,11.85-15.3,18.39-20.72,1.56-2.99,3.79-4.79,4.81-7.62-.23.14-.87,1.25-.54.24.86-.8,2.64-5.48,1.63-4.63,3.85-6.27,3.39-13.43.39-18.62,0,1.22.41,4.52.77,5.22.45,1.18-2.25,4.05-.19,3.3-.18,1.05-2.24,1.93-.96,1.93-.2,1.79.42-.72.56.65-.28,2.65-1.81-1.59-1.08,2.41-1.05,1.08-1.95,2.17-2.28,3.95.53.03.63-2.64,1.44-1.45-.72.94-3,3.18-2.52,4.26-.53,1.07-5.51,4.92-5.12,7.24.26.53,1.96-1.3,1.39.05-.82.22-3.87,3.26-2.32.81-.86.75-2.48,3.68-2.12,1.98.15-.07-2.96,1.26-1.25,1.11-.29.62-.68.83-1.08,1.11,3.99-1.45-3.27,2.63-3.87,4.59-1.7,3.31-6.46,6.75-9.16,10.85.41-2.02-2.76-7.73-.86-3.36.27,8.4.39-1.04-3.44-3.78,7.31,7.88-6.93-9-9.18-11.58-2.23-2.07,4.9-1.52,7.38.57.33.72,2.61,2.35,2.53,3.08-1.32-1.11-4.14-3.33-1.8-1.19,4.05,2.63,3.44,5.27,8.81,6.34,13.82-2.18-1.04-17.95-9.27-19.24-5.52-7.84,16.02-2.44,20.28-.84.55-.51,1.12-3,1.32-3.29-1.77-.63-8.69-3.71-5.43-2.94-28.33-21.23-4.46-14.77-7.87-40.49-.49-1.09-4.2-3.21-.77-1.42.8.6,1.35,1.37.91.52-3.75-6.25-13.62,3.85-11.57,1.85-1.91,2.65-1.03,7.03-1.35,9.75-.83-5.66-1.85-4.82-1.03-1.07.84,5.32,8.55,23.59,2.25,11.13.1-.73,1.74,3.03,1.24,1.76-1.47-3.81-3.55-9.61-.8-1.71-4.22-7.8,3.53,8.77,1.37,4.97,2.35,3.09-15.15,11.86-6.81,8.18-.25.55-2.97,1.91-3.99,2.05.7,1.07,4.92-3.16,4.12-1.74,4.13-1.96,5.67-8.86,9.65-4.2.59-.12-.45-1.26-1.13-2.97,9.14,15.11,17.08,11.01-2.71,15.17-3.5-.65-3.73,7.53,1.71,8.22,5.67.64,6.36,3.14,7.84,5.08,1.87,1.33,1.81,2.16,2.11,3.24,6.32,2.34,1.84,9.57-5.55,1.16.14-3.25,6.25,7.05,7.85,2.42-.49-.23-3.54,1.44-2.15-.05.94-.19-2.67-1.39-3.73-3.56-2.82-2.84-6.83-3.81-9.77-4.96-1.42-.59-2.35-.19-3.28-.56-2.14-.62,5.72-.13,6.8.63-6.47-5.22-18.3,2.19-8.45,9.14-.81-1.4-2.85-3-3.16-4.24.18-.28,1.61,1.32,1.09.16,4.02,6.8,17,17.14,11.7,17.14-3.51-2.2-4.61-3.9-8.61-7.3-12.03-5.26-8.88,7.08-9.15,10.33-.58-3.86-.15.07.17.73-2.45-1.79-3.81-2.79-6.63-1.75-5.24-.07-4.43,8.69-10.31,11.33-6.75,3.89-7.75,11.82-6.34,16.56-.04.6-.53-.86-.76-1.26.36,3.99,6.82,13.43,3.38,5.89ZM567.04,708.61c-.08.06-1.57-1.36-1.47-1.39,0,0,1.47,1.39,1.47,1.39ZM570.54,666.6c-.18-.2-.36-.38-.53-.55.44-1.47,1.34,1.59.53.55ZM566.82,656.09c2.06,7.71-.71-1.42-1.36-5.47.34-.57,3.27,10.78,1.36,5.47ZM570.01,637.72c-.5.24-.88.63-1.43.74.46-.3.93-.57,1.43-.74ZM576.37,650.78l.63-.82c-.32.92-.58,2.82-.63.82ZM573.92,637.87c1.76-.65,5.11,4.83,3.37,2.84-.81-1.27-1.23-1.84-.73-.37.8,2.43.95,2.21.71,5.88-6.35,35.36-18.69-7.08-3.34-8.36ZM581.94,679.93c.71.64-1.41-.06-1.5,0-.55-.29.54-.22,1.5,0ZM586.92,683.29s.01-.02.01-.02c.02,0,0,.02-.01.02ZM581.83,677.41c.07.28.86,1.2-.77-.47l.77.47c.07-.27,1.16.8,0,0ZM582.05,678.22c.54.32,3.09,2.03,3.39,2.54-.49-.29-2.64-1.85-3.39-2.54ZM590.23,684.8c0-.2.48-.56.07-.58.5-.14-.11.5-.1.64-.51.37.77-.72.18-.8.51-.21-.24.83-.23.94-.29-.06-.18-.27.08-.2ZM577.37,681.86c2.02-.96,8.18.36,3.06-.41.26.34-.53.79-3.06.41ZM575.11,682.05c1.58-.78,5.26,1,3.22.3-1.06-.15-2.14-.27-3.22-.3ZM558.43,694.13c.2-.33.47-.63.78-.89,2.07-.38-.19.15-.78.89ZM567.43,694.57c-1.44-.63-1.16-.31-2.93-.6-1.71.08,1.25-.48,2.93.6ZM562.86,695.6c-.23.06-.48.09-.64.07-1.04.11.27-.08.64-.07ZM558.51,695.07c.55-2.42,7.89-2.13,1.97-1.46-1.19-.13-1.7,2.26-1.97,1.46ZM561.02,697.12c1.92,2.58-2.33-2.5.62-.04.5.76-.34,0-.62.04ZM648.96,726.03s-.1-.01-.15-.02l.15.02ZM656.7,722.02l-.02.14c-.38.03-.22-.01.02-.14ZM662.2,716.53c.13-.94-2.26,2.37-1.04.63-.23.2,1.77-2.44,1.04-.63ZM676.76,689.59c.16.09.28.14.17.32-.28.13-.36-.13-.17-.32ZM672.12,688.02s.08.1.11.15l-.11-.15ZM659.82,683.4l.18-.07c.44.27.21.18-.18.07ZM650.39,683.67c.08.58-.79.08-1.92.6-3.59.76-.31-.36,1.92-.6ZM570.5,710.78c1.67,2.19,1.77,1.4,3.02,4.49-.14-1.45-2.45-3.18-3.02-4.49ZM556.62,709.52c.49-.75,3.95.89,2.47.26-.86-.13-1.72.13-2.47-.26ZM555.04,709.91c.04-1.15,1.74-1.79.42-1.06.91-.4-.65,1.05.57.41.12-.09-1.11,2.24-.59.53.33-.7-.29-.23-.4.11ZM554.88,723.65c-.14-.33-.61-1.28-.35-1.41-.04.22.18.8.35,1.41ZM553.2,716.63c.02,2.64,1.94,4.7-.48,2.43.21-.17.13-2.44.48-2.43ZM538.83,727.4c0,.37-.38.2-.65.27.21-.1.43-.19.65-.27ZM543.19,737.97s.02-.07.03-.1c.01-.03-.04.11-.03.1ZM543.15,738.33s0,0,0,0h0ZM543.23,738.44s0-.01,0,0c0-.01,0,0,0,0ZM541.42,735.09c.25.61.5.85.72,1.05.3,1.07-.57.15-.72-1.05ZM541.25,735.42c-.34-.77-.5-.93-.42-2.25.17.88.43,1.96.42,2.25ZM539.33,726.24c.41-1.09.69-3.57,1.75-4.11-.66.91-1.18,4.01-1.75,4.11ZM541.63,729.11c.35.29.47.65.37-.08.96.81,1.76,1.57.72.86,4.53,6.29-1.61-3.08,1.43,3.59-.4-1.52-1.82-3.18-2.52-4.36ZM542.4,738.2s0,0,0,0h0ZM532.91,733.48c.35.26-.14,1-.24,1.41-.66,1.17-.36-.35.24-1.41Z"/>
            <path class="cls-2" d="M551.56,723.87c-.06-.05-.13-.1-.21-.18.07.06.14.12.21.18Z"/>
            <path class="cls-2" d="M540.46,739.9c-.16-.2-.36-.41-.54-.72.38.53,1.59,1.85.54.72Z"/>
            <path class="cls-2" d="M571.05,694.54c.31.28.4.41.4.47-.23-.21-.4-.37-.4-.47Z"/>
            <path class="cls-2" d="M575.39,697.98c-.1-.07-.18-.14-.27-.23l.27.23Z"/>
            <path class="cls-2" d="M561.85,673.85c.49-.54.91-.49,1.62-.98-.69.51-2.34,1.88-1.62.98Z"/>
            <path class="cls-2" d="M565.34,670.82c.66-.58,1.11-1.14,1.4-1.56-.54.8-.97,1.23-1.4,1.56Z"/>
            <path class="cls-2" d="M564.25,671.59c2.23-1.59-.35.49-1.62,1.19.71-.53,1.21-.9,1.62-1.19Z"/>
            <path class="cls-2" d="M575.42,656.85c-.11.23-.18.37-.18.37.07-.14.13-.26.18-.37Z"/>
            <path class="cls-2" d="M575.42,656.85c1.18-3.48,1.17-1.81-.13,1.78.06-.39,1.74-5.02.13-1.78Z"/>
            <path class="cls-2" d="M577.53,649.97c.12-.31.24-.72.35-1.15-.08.38-.19.76-.35,1.15Z"/>
            <path class="cls-2" d="M577.88,648.82c.07-1.9.94-6.66.61-1.52-.14-.54-.34.49-.61,1.52Z"/>
            <path class="cls-2" d="M575.12,673.89c-.91.71-.1.08-1.37-1.34,0,0,1.37,1.34,1.37,1.34Z"/>
            <path class="cls-2" d="M575.18,670.09c.05.19-.28-.34-.37-.44,0,0,.37.44.37.44Z"/>
            <path class="cls-2" d="M568.86,713.06c1.15-.31-.38-3.31.95-.98.13,2.83-3.73-.26-.95.98Z"/>
            <path class="cls-2" d="M537.85,731.42c.01,1.38.19,2.77.59,4.12-.73-3.17-.63-.9-.59-4.12Z"/>
            <path class="cls-2" d="M636.82,740.56l.21.4c-.26.39-.15-.04-.21-.4Z"/>
            <path class="cls-2" d="M636.82,740.56c-.05-.1-.07-.2-.11-.31.08.08.09.19.11.31Z"/>
            <path class="cls-2" d="M636.14,739.46c-.19-.65.25-1.93,1-1.84-.64.47-.52,1.42-1,1.84Z"/>
            <path class="cls-2" d="M637.29,738.26c-.18.18-.27.48-.58.4.19-.15.38-.29.58-.4Z"/>
            <path class="cls-2" d="M637.08,739.11l-.07-.1c.57-.84.5-.71.07.1Z"/>
            <path class="cls-2" d="M638.4,736.64c-.5.61-.75-.28-1.28.67-.27-.26,1.02-1.32.57-1.54.54-.65.7.16.19.41-.15.69.62,0,.52.47Z"/>
            <path class="cls-2" d="M667.13,711.46s.01-.07.02-.1c.02.06.03.11-.02.1Z"/>
            <path class="cls-2" d="M673.64,703.37c.04-.15.1-.28.16-.41.08.15-.05.31-.16.41Z"/>
            <path class="cls-2" d="M662.24,715.8c-.05.15-.11.28-.17.39,0-.11.04-.23.17-.39Z"/>
            <path class="cls-2" d="M697.53,704.76s.1-.01.16,0c0,.03-.23.14-.16,0Z"/>
            <path class="cls-2" d="M680.61,693.98c.09-.14.18-.27.29-.38-.13.24-.22.34-.29.38Z"/>
            <path class="cls-2" d="M672.23,706.54c.06-.13.11-.26.17-.34-.04.13-.1.24-.17.34Z"/>
            <path class="cls-2" d="M645.37,729.21c.1-.15.23-.22.37-.26-.03.13-.13.24-.37.26Z"/>
            <path class="cls-2" d="M648.13,726.85h-.02s0-.04.02,0Z"/>
            <path class="cls-2" d="M649.8,725.24l-.04.02c-.01-.05,0-.07.04-.02Z"/>
            <path class="cls-2" d="M645.74,728.95c-.04-.36.02-1.09.5-.5,1.22-1.14.6.66-.5.5Z"/>
            <path class="cls-2" d="M667.01,711.41c.08.11-.13.26,0,0h0Z"/>
            <path class="cls-2" d="M664.57,713.53l.18-.26c-.04.09-.09.19-.18.26Z"/>
            <path class="cls-2" d="M656.65,722.54l.02-.06c.06.04.02.06-.02.06Z"/>
            <path class="cls-2" d="M664.76,713.28c.04-.08.08-.17.18-.23l-.18.23Z"/>
            <path class="cls-2" d="M661.66,738.29c.94-.85.45.16-.19.23.02-.46.27-.85.19-.23Z"/>
            <path class="cls-2" d="M697.07,707.96c.02-.21.29.06.14.43-.44.16-.59-.54-1.17-.17.23-.64.39.08,1.03-.27Z"/>
            <path class="cls-2" d="M696.24,707.43s.05.37-.02.36c-.1-.12.01-.24.02-.36Z"/>
            <path class="cls-2" d="M668.65,734.2c.08-.06.15-.12.21-.17-.07.14-.14.18-.21.17Z"/>
            <path class="cls-2" d="M675.37,691.73c-.1.08-.2.15-.28.2.11-.14.2-.18.28-.2Z"/>
            <path class="cls-2" d="M698.93,702.05c-.01-.21.02-.4.1-.61l-.1.61Z"/>
            <path class="cls-2" d="M685.38,715.28c.48.24-.13.07-.21.54-.86.16-.03-.33.21-.54Z"/>
            <path class="cls-2" d="M661.46,738.56s-.04-.04,0-.04v.04Z"/>
            <path class="cls-2" d="M676.88,721.94s.04-.1.11-.16c-.04.06-.07.11-.11.16Z"/>
            <path class="cls-2" d="M697.04,705.68c.19-.45.36-.91.53-1.36-.09.38-.18,1.11-.53,1.36Z"/>
            <path class="cls-2" d="M650.69,742.54s.06.03.09.05c-.04-.01-.07-.03-.09-.05Z"/>
            <path class="cls-2" d="M700.62,695.89s-.04.06-.08.09c0-.03.03-.06.08-.09Z"/>
            <path class="cls-2" d="M658.1,720.85c-.03.06-.06.12-.11.19l.11-.19Z"/>
            <path class="cls-2" d="M700.66,699.49c.02-.1.04-.21.07-.36-.03.15-.04.26-.07.36Z"/>
            <path class="cls-2" d="M640.5,736.44c-3.05.98,1.28-2.05-.01-.35.48-.28,0,.22.01.35Z"/>
            <path class="cls-2" d="M639.43,733.51c.45.05-.05.36-.11.53,0-.12.03-.44.11-.53Z"/>
            <path class="cls-2" d="M645.69,727.47l-.42.62c-.29.01.12-.79.42-.62Z"/>
            <path class="cls-2" d="M645.9,731.94c-.45.19,0,.18-.3.43-.94.31.02-.68.3-.43Z"/>
            <path class="cls-2" d="M647.91,725.73c-.21.05-.49.71-.79.43.45.16.42-.61.79-.43Z"/>
            <path class="cls-2" d="M649.38,729.45c.09.45-.44.45-.73.83.29-.26.43-.93.73-.83Z"/>
            <path class="cls-2" d="M649.57,725.16c.33-.93.78-1.96,1.21-.78-.94-.08-.1.49-1.21.78Z"/>
            <path class="cls-2" d="M650.26,728.74c-.85,1.68-.26.44-.67,0,.21-.53.16.48.67,0Z"/>
            <path class="cls-2" d="M651.74,722.33c-.16.49-1.1.95-1.55.92.49-.42,1.18-.86,1.55-.92Z"/>
            <path class="cls-2" d="M651.31,727.16c-.25.64-.36.04-.08-.21.43.17.38.74.08.21Z"/>
            <path class="cls-2" d="M652.91,726.12l.65-.34c.07.81-.34,1.3-.65.34Z"/>
            <path class="cls-2" d="M654.55,724.95c-.57.12-.95.53-1.25.22,0,0,1.25-.22,1.25-.22Z"/>
            <path class="cls-2" d="M659.71,714c.23.05.03.68.03.33-.21-.03.12-.81-.03-.33Z"/>
            <path class="cls-2" d="M660.96,718.46c.09-.32.97-.85,1.36-1.09-.41.33-1.19,1.33-1.36,1.09Z"/>
            <path class="cls-2" d="M662.48,717.28s-.09.05-.16.09c.06-.05.11-.08.16-.09Z"/>
            <path class="cls-2" d="M674.7,703.54s-.08.05-.12.08c.03-.03.07-.06.12-.08Z"/>
            <path class="cls-2" d="M674.22,703.9c-.11.28-.56.69-.8.64.21-.39,1.67-1.15.8-.64Z"/>
            <path class="cls-2" d="M676.02,700.59c0-.15.43-.42.47-.22-.23.11-.34.39-.47.22Z"/>
            <path class="cls-2" d="M690.96,693.55c-.24-.23.01-.23-.09-.47.29.13.36.3.09.47Z"/>
            <path class="cls-2" d="M691.33,693.75l.29-.06s-.67.3-.29.06Z"/>
            <path class="cls-2" d="M693.05,694.48c0-.05-.01-.12-.04-.17.07.08.14.16.04.17Z"/>
            <path class="cls-2" d="M692.82,694.31c.05-.14.04-.18.15-.04-.04-.03-.09-.03-.15.04Z"/>
            <path class="cls-2" d="M693.08,694.94c-.26-.34.48-.07.32-.66.29.38.02.48-.32.66Z"/>
            <path class="cls-2" d="M698.81,696.32c-2.62-.29-1.95-1.24-4.2-1.4.61.37,4.27.02,3.41.84-.25.21-.4.41.79.55Z"/>
            <path class="cls-2" d="M695.32,695.8c-.26-.02-.84.34-1.03.02.02-.4.88-.12,1.03-.02Z"/>
            <path class="cls-2" d="M699.57,695.44c.11.05,1.19-.4,1.06-.01,0,0-1.06.01-1.06.01Z"/>
            <path class="cls-2" d="M702.02,695.33c-.16.33-.29,1.45-.44.99l.44-.99Z"/>
            <path class="cls-2" d="M700.94,700.45c.13-.12.27.66.49-.27,0,.73-.87,1.39-.47-.05l-.02.32Z"/>
            <path class="cls-2" d="M698.2,706.71c.11-.27.33-.55.45-.43-.08,0-.61,1.13-.45.43Z"/>
            <path class="cls-2" d="M696.99,704.71c-.13.56-.05.52-.37,1.15-.3-.41.33-.63.37-1.15Z"/>
            <path class="cls-2" d="M698.74,707.14c.19.2-.12.68-.37.67.26-.12.31-.47.37-.67Z"/>
            <path class="cls-2" d="M696.35,709.87c1.12-1.19,2.97-2.18,1.29-.98.58,1.13-.44,1.76-1.29.98Z"/>
            <path class="cls-2" d="M696.6,707.44c-.45-.37.39-.59.54-.81.14.64-.18.33-.54.81Z"/>
            <path class="cls-2" d="M694.13,713.31l.54-.44c-.21.19-.97,1.05-.54.44Z"/>
            <path class="cls-2" d="M694.42,713.49c.38.15-.56.45-.6.54,0,0,.6-.54.6-.54Z"/>
            <path class="cls-2" d="M694.46,713.96l-.54.49c0-.1.47-.43.54-.49Z"/>
            <path class="cls-2" d="M693.15,715.36c-.23.1-.54.52-.5.76-.15-.24.29-.99.5-.76Z"/>
            <path class="cls-2" d="M683.54,716.56c.23-.22.44-.27.46.14,0,0-.46-.14-.46-.14Z"/>
            <path class="cls-2" d="M682.53,717.63c.9-.63,1.94-.93.59-.09.73.02-.58.06-.59.09Z"/>
            <path class="cls-2" d="M670.75,726.72c1.07-.46.87-.88,2.24-.72-.69.11-1.9,1.38-2.24.72Z"/>
            <path class="cls-2" d="M640.46,743.84s0-.01,0-.02c.02,0,.02.01,0,.02Z"/>
            <path class="cls-2" d="M640.46,743.84c.06.14-.06.26-.19.38-.55-.2.12-.31.19-.38Z"/>
            <path class="cls-2" d="M636.8,687.48s-.07.08-.1.12c.02-.08.05-.14.1-.12Z"/>
            <path class="cls-2" d="M625.65,700.35c-.03.24-.07.48-.12.7-.11-.18.04-.53.12-.7Z"/>
            <path class="cls-2" d="M646.79,684.62c.22-.1.42-.19.6-.26-.1.1-.28.19-.6.26Z"/>
            <path class="cls-2" d="M582.74,751.16s.13.13.06.16c-.05-.07-.32-.14-.06-.16Z"/>
            <path class="cls-2" d="M621.97,718.08c-.05.23-.1.45-.17.64.06-.38.12-.56.17-.64Z"/>
            <path class="cls-2" d="M627.52,694.8c-.1.23-.19.44-.29.6.08-.22.18-.41.29-.6Z"/>
            <path class="cls-2" d="M673.84,688.5h.03c-.05.06-.06.04-.03,0Z"/>
            <path class="cls-2" d="M670.43,687.55l.06.03c-.05.03-.07.04-.06-.03Z"/>
            <path class="cls-2" d="M636.92,687.56c-.02-.14.37-.3,0,0h0Z"/>
            <path class="cls-2" d="M641.79,685.84c-.15.07-.3.13-.46.2.14-.08.28-.16.46-.2Z"/>
            <path class="cls-2" d="M660.48,683.11s-.06.02-.09.02c-.02-.07.05-.06.09-.02Z"/>
            <path class="cls-2" d="M640.9,686.21l.43-.17c-.12.08-.25.14-.43.17Z"/>
            <path class="cls-2" d="M588.17,700.81c-.77,1.41-.75.39.18-.39,0,0,.01.66.01.66-.57.4.18-.44-.2-.27Z"/>
            <path class="cls-2" d="M578.02,751.98c.29-.08.14.28-.49.3-.51-.34.34-.75-.55-1.15.96-.05.15.34,1.05.85Z"/>
            <path class="cls-2" d="M577.67,751.15c.13-.17.37-.1.54-.15-.1.07-.31.12-.54.15Z"/>
            <path class="cls-2" d="M580.19,710.11c-.09.12-.17.24-.24.34.07-.21.15-.3.24-.34Z"/>
            <path class="cls-2" d="M627.72,717.86c.07-.18.15-.35.22-.49-.07.28-.14.41-.22.49Z"/>
            <path class="cls-2" d="M586.98,751.42c.23-.08.46-.13.72-.12l-.72.12Z"/>
            <path class="cls-2" d="M563.37,741.43c-.3.41-.39-.62-.16-.8.11.27.1.55.16.8Z"/>
            <path class="cls-2" d="M588.35,700.37s.05.03,0,.05v-.05Z"/>
            <path class="cls-2" d="M570.62,729.72c-.02.06-.05.14-.13.25.05-.09.09-.17.13-.25Z"/>
            <path class="cls-2" d="M581.15,751.07c.74-.01,1.49,0,2.23-.05-.6.08-1.63.26-2.23.05Z"/>
            <path class="cls-2" d="M656.96,683.15c.09-.02.2-.04.34-.05l-.34.05Z"/>
            <path class="cls-2" d="M598.67,687.26s-.08.04-.12.05c.05-.04.09-.05.12-.05Z"/>
            <path class="cls-2" d="M593.82,751.52s-.04-.05-.04-.08c.03.02.04.05.04.08Z"/>
            <path class="cls-2" d="M589.75,752.29c.1-.01.21-.02.35-.03-.15.01-.26.02-.35.03Z"/>
            <path class="cls-2" d="M673.87,689.77c-.19-.5-1.09-.17-1.19-.61.24.19,1.27.2,1.19.61Z"/>
            <path class="cls-2" d="M675.92,686.27c.48-.25.94.3,1.67.48-.58-.22-1.53-.14-1.67-.48Z"/>
            <path class="cls-2" d="M670.54,687.8c-1.22.07-3.07.26-2.05-.75.79.88.74-.14,2.05.75Z"/>
            <path class="cls-2" d="M674.68,685.9l.18.43c-.84,0,.44-.34-.62-.67,1.07-.21,2.74.67.44.24Z"/>
            <path class="cls-2" d="M667.72,688.14c-.94-.24-2.1-.61-2.52-.89.79-.12,2.12.46,2.52.89Z"/>
            <path class="cls-2" d="M671.17,685.44c-.12-.62.51-.65.18-.17.26-.01.62.05.77.19-.92-.34-.16.35-.95-.02Z"/>
            <path class="cls-2" d="M668.55,684.28l-1.04-.43c.81-.38,2.03-.44,1.04.43Z"/>
            <path class="cls-2" d="M665.51,683.42c.93.46,1,.43,1.65.91-.07.25-1.56-.9-1.65-.91Z"/>
            <path class="cls-2" d="M647.95,687.52c-.22-.17.62-.61.29-.3.2.13-.91.65-.29.3Z"/>
            <path class="cls-2" d="M648.32,683.17c.46.04,2.5-.5,2.76-.14-.46.19-2.05.16-2.76.14Z"/>
            <path class="cls-2" d="M648.32,683.17c-.13,0-.22.01-.29,0,.06,0,.16,0,.29,0Z"/>
            <path class="cls-2" d="M624.61,700.6c-.03.07-.07.14-.12.2.04-.07.08-.13.12-.2Z"/>
            <path class="cls-2" d="M624.96,699.93c.07-.5.59-1.4.86-1.47-.24.61-1.75,2.85-.86,1.47Z"/>
            <path class="cls-2" d="M623.5,706.7c.18-.33.19-.81.37-.66.06.21-.27.91-.37.66Z"/>
            <path class="cls-2" d="M609.21,746.15c-.51.43-.89.55-.89.2.63-.37.38,0,.89-.2Z"/>
            <path class="cls-2" d="M607.56,746.89c-.41.67-.18.24,0-.18,0,0,0,.18,0,.18Z"/>
            <path class="cls-2" d="M604.02,749.14c-.25.07-.47.12-.3,0,.05.03.18.03.3,0Z"/>
            <path class="cls-2" d="M604.38,748.89c.23.19-.04.13-.23.21.12-.04.23-.12.23-.21Z"/>
            <path class="cls-2" d="M603.26,749.68c-1.12.14-.57-.14-.16-.72.92-.13-.85.6.16.72Z"/>
            <path class="cls-2" d="M594.96,750.77c2.83-.58,2.34.55,4.67-.14-.74.39-2.07.05-2.36.7-2.3.31.26-1.01-2.31-.56Z"/>
            <path class="cls-2" d="M599.7,749.63c.22.22-.75.58-1.11.49.28-.12.64-.63,1.11-.49Z"/>
            <path class="cls-2" d="M594.58,752c-.68-.22.58-.25.64-.36,0,0-.64.36-.64.36Z"/>
            <path class="cls-2" d="M592.63,752.31l.74.19c-.25-.08-1.26.13-.74-.19Z"/>
            <path class="cls-2" d="M589.08,752.79c-.18-.02-.97.5-.08.48-.63.17-1.29-.49.08-.48Z"/>
            <path class="cls-2" d="M581.29,752.77c-.4-.05-.8-.1-1.19-.17.31-.13,1.32-.05,1.19.17Z"/>
            <path class="cls-2" d="M582.49,750.65c-.87.09-.77.15-1.86.11.39-.45,1.09.04,1.86-.11Z"/>
            <path class="cls-2" d="M580.17,753.2c-.15.25-.98.15-1.13-.07.32.2.83.09,1.13.07Z"/>
            <path class="cls-2" d="M574.97,752.04c2.2.54,4.85,1.89,2.16.82-1.05.89-2.58.49-2.16-.82Z"/>
            <path class="cls-2" d="M578.43,751.35c.25-.51,2.33.26.75.41.15-.25-.38-.31-.75-.41Z"/>
            <path class="cls-2" d="M568.76,751.18l1.01.39c-.42-.13-2.19-.65-1.01-.39Z"/>
            <path class="cls-2" d="M568.73,751.53l-.08.15c-1.24-.65-1.2-.65.08-.15Z"/>
            <path class="cls-2" d="M568.12,751.7c-.25-.1-1.34-.49-.9-.41,0,0,.9.41.9.41Z"/>
            <path class="cls-2" d="M565.12,750.54c-.31-.24-1.14-.62-1.47-.59.37-.13,1.65.37,1.47.59Z"/>
            <path class="cls-2" d="M563.09,739.62c.15-.06.3-.12.45-.17-.05.3-.16.45-.45.17Z"/>
            <path class="cls-2" d="M563.93,737.95c-.62,1.1-1.29,1.95-.53.41-.51.29.33-.29.53-.41Z"/>
            <path class="cls-2" d="M578.28,720.21c-1.3,1.15-.96,1.56-2.82,2.27.88-.49,2.11-2.72,2.82-2.27Z"/>
            <path class="cls-2" d="M603.73,673.89s.01,0,.02,0c0,.02,0,.02-.02,0Z"/>
            <path class="cls-2" d="M603.73,673.89c-.14.1-.26-.06-.39-.22.15-.72.33.14.39.22Z"/>
          </g>
          <g>
            <path class="cls-2" d="M541.38,814.8c42.94-11.48,55.27-40.92,119.9-54.16,4.83-3.96,14.19-9.91,20.58-9.42.23-.66.8-.02,1-.61-1.9-.27,1.06-.74,1.48-1.03-2.67-.41,5.32-1.2,5.72-2.57,4.63-2.64,10.6-6.26,12.74-11.56-.89.71-.32,1.97-1.53,1.12.56-1.23,2.39-2.06,2.69-2.93.58-.63,2.8-1.87.97-1.28,0,0,.38-.4.38-.4.03-.6,1.51-.42,1.78-1.81-.47.05.14-.62.18-.72-1.51,1.9.29-1.11.61-1.5-.69-.19.76-2.03.07-2.49-.51,1.02-.12-.46-.51-.41,3.03-2.27,1.74-8.59.17-13.47.9-.7-1.1-.16-.12-1.32.18-1.41-.37-2.8-.58-4.52.31.94-.65,1.4.13,1.83.03,1.79-.63-.89-1-1.64-.14-1.92.34-1.66-.94-.62-.43-.34-2.14-2.24-.17-1.42.54-1.17-.03-7.3-2.43-6.06-3.62.97-1.22-.94-.42-2.9-1.2,2.26-.7,1.07.22-.45,2.45-3.27-3.33,4.44-2.74,3.65-.62.32-1.52.1-2.23.12-.33-2.02,2.37-5.44-1.55-4.9-1.03.26-2.33-1.43-2.66-.18,0-1.4-.8-.96-1.34-1.86-.4-.47-1.17-2.19-1.34-1.31-1.73-4.45-4.29-6.92-5.73-10.6-.44-.12-.79-.55-1.03-1.13-.19.64.17,2.44-1.04,1.53.29,2.06.17,2.35-.79-.04.38.71-1.1-.21-.61-.76.67-.15,1.07-1.38.18-.64-1.02-1.93.34.63-.78.48-1.32-1.94.46-1.94-.27-2.64,1.57-1.6,1.4,3.62,2.83,1.77.15-1.19-1.64-1.7-1.11-3.03-.98.48-.44-2.96-1.95-3.43,1.12,4.43-1.71-2.76-2.36-3.79-.72-.53-.37,1.27-1.22.36.45-.71.4-1.92-.2-1.77-.54.1-1.4-1.3-.14-.47.35-1.51-2.1-2.43-1.91-4.1-.42.41.26,1.08.17,1.59-.49-.56-1.91-1.11-1.34-2.24,1.27,2.08-.15-1.8-1.45-2.53.33.26.63-.09.27-.53-1.11-.3.27,1.27-.57,1.39-.85-.84-.67-1.96.32-2.05-2.78-1.27-.65-2.43-3.46-5.37-.39.61-1.18-.35-.69-.36-.52-.96-1.56-1.23-.61-.25,1.25,3.26-.43,1.61-1.34-.87-1.66,3.53-.32-2.55-1.5-3.31.79,2.13-.67.94-2.02-.19.17-.72.94-1.29.43-2.28.3,1.09-.27,1.15-.65,1.8.04.18,1.3,2.13.25,1.61,1.77.92,1.52,5.82.71,1.81-.74.69-2,.12-2-.96,2.51.9.63-1.28-.54-3.05.99-.52-2.38-4.46-2.17-5.61-1.98-.53-.08.5-.06,1.48-.77-1.3-1.45-.67-2.4-1.02-2.06-1.95-1.01-1.45.88-.26-1.87-1.19-.29-.66-1.69-1.87-4.22.07-2.76-1.74-8.98.67.91.29-1.26,1.84-1.41,1.26-1.01,1.28.45.81.73.83-.16.16-.65.69-.34.65,1.56-2.63,1.83-.19,3.69-1.64.43-.46-2.21-.22.16-.91,2.5.11,1.66.53.22,1.08-.8.19-3.57,2.72-1.46,1.2-.1.98-1.29,1.53.03,1.53-1.11.88-1.01,1.43.39.53-.8.69.69.03.93-.28-.82.23.1-.53,1.23-.3-.69-.77-1.01-1.4.31-1.34,1.37.2.3-1.7,1.77-2.57,1.6.75.73-.73,1.91.25-.23.09-.45.18-.67.27,3.27.25,3.77,3.35,3.25,5.34-1.09-.18-1-1.24-.16-1.42-2.54-1.65-3.01-.28-4.77-1.99-.64.52,1.65,1.02.81,1.77-1.22-1.2-.47-.13-.2.43-1.52,1.41,1.22-.85,2.11.44-1.15-1.35,1.59-1.13.71.12,1.07,1.79-.2,1,.55,2.8,1.5-.53,1.11-1,1.48.39,0,0-.59-.16-.59-.16.07.7.21,1.59-.16,2.18,2.33.33.86,2.05,2.87,3.42-.66-1.09.07-.44.42-.06.03-.25-.27-.84.11-.66.62.34,1.19,1.26,1.37,1.99.53-1.27,1.51-.37,1.21.49-.31-.71-1.04-.7-.82.21-.91-.87-1.96-1.98-.8-.55-2.9.36,2.55,2.04,3.31,4.39.2-.8.83-2.34.92-.95l.45-1.25c.18.73,2.47.83,1.33,1.72-.56.54.95,1.11.22,1.43-.05-.42-1.54-1.86-1.19-.83.97,0,.64,1.85,2.14,1.43.47,1.99,1.23,4.42-1.42,1.85.45.91-.32,2.75-.86,1.31.69-.8-.44-2.41-1.1-3.46-1.44,3.2,4.08,5.47,3.11,7.25.45-.31,1.27-.09,1.57.93-.09-.12-.08-1.14-.42-.88-1.21-1.75,1.99.4,1.38,1.14.43,1.68-.71-.17-.57,1.39.58.59,1.16,3.45,1.15,2.36,1.35.84-.8.61-.26,1.99,1.46,1.43,1.59,4.28,2.81.75,1.71.09,1.96,3.8,1,.95-.43.45.95,1.68-.49.99-1.12,1.87,2.2,2.03.15,2.35.56.41.42,1.31.64,1.37.17-1.92.4,1.34,1.37,1.48-1.52-1.28,0-2.02.95-1.21-.43.7.15,1.12-.11,2.03.63-.8,1.92,2.03.73,1.05-.07.03.39,1.47,0,.94,0,0,.54.74.54.74-.96-2.39,1.28.3.11.71-.24-.15-.15-.47-.35-.44.08,1.15,1.15.94,1.75,1.66-1.12.56,1.07,1.03-.69,1.02,1.82,1.29,2.21,2.44,3.47,4.42-1.81-2.56-.33-3.09.65-.14,1.46,3.05.59,1.06-.37.84.86,1.4,1.62,1.54,2.03,2.94-.98-.77.01.36.17.59.96-1.17.48-.03,1.27.8-.09-.75,1.03.5,1.2.31.12.56-.77.61.04,1.32-.12-.39-.27-.85.55-.36.55-.61-1.46-1.56-1.03-2,1.21,1.59,3.55,1.38,4.96,3.23-1.33.27.09,1.36,1.29.79,1.09.04.01.97,1.09.22.55,1.13.9-.04-.15-.32.57-.28,1.54.76,1.23-.05.65.13.72,1.41.14.75-.25.65-.14.44-.09.77-.35.57.36-.03.63-.43.19-.51-.49-.91.12-1.41.42-.06.96.09.4.33.22.03.52,0,.43.28-.12,1.64-.44.82-.76.88.14.31-.03.95.09.75-.52,1.07.77,2.24.42,3.73,1.98-3.99.95-1.05,1.33,1.63-.59-.13-.63.81-.12,1.13.02-.81.39-1.72.57-2.1.65,1.28.45-.23,1.02,1.1-.09.12-.9,1.24-.86.19-.84.43-.73,2.4.61,2.44-1.18.4-1,.73-1.09,2.2.66.29.37,1.8.96,2.61.41-.65.19-1.8-.21-1.56.19-.58-.32-1.13.34-1.24-1.46-.2-.77-.57.07-1.6,2.66,14.43-24.23,28.43-39.66,33.88-27.14,14.22-59.54,7.64-86.78,18.21-12.54,5.95,4.21,14.13,3.21,21.61-21.92,30.76-66.89,25.9-98.16,13.62-3.09,31.92,44.52,21.37,63.43,15.62ZM700.49,714.65c-.05.26-.19.5-.27.75.03-.4-.17-1.18.27-.75Z"/>
            <path class="cls-2" d="M647.07,641.24c-.02.06-.16.16-.5.36l.5-.36Z"/>
            <path class="cls-2" d="M646.51,642.34s-.02.03-.03.04c0-.02,0-.03.03-.04Z"/>
            <path class="cls-2" d="M708.02,727.94c-.06,0-.1-.01-.14-.03.05-.03.1-.03.14.03Z"/>
            <path class="cls-2" d="M653.25,639.88c-.09,0-.19,0-.27.01-.04-.13.22-.1.27-.01Z"/>
            <path class="cls-2" d="M666.54,651.18c0,.06.03.12.05.18-.04-.05-.06-.11-.05-.18Z"/>
            <path class="cls-2" d="M654.88,638.65s-.05-.04-.08-.06c.03.02.06.04.08.06Z"/>
            <path class="cls-2" d="M644.49,640.58s.02-.03.04-.06c-.02.02-.03.04-.04.06Z"/>
            <path class="cls-2" d="M649.23,640.12s.07.04.1.06c-.04-.01-.08-.03-.1-.06Z"/>
            <path class="cls-2" d="M653.25,639.88c.31,0,.04.04-.05.1.07-.04.07-.07.05-.1Z"/>
            <path class="cls-2" d="M696.24,703.27s-.08.09-.14.14c.02-.02.08-.09.14-.14Z"/>
            <path class="cls-2" d="M684.77,697.55c.05-.02.09-.05.13-.07-.02.04-.05.06-.13.07Z"/>
            <path class="cls-2" d="M652.18,643.89c-.07,0-.1-.05-.2-.1l.2.1Z"/>
          </g>
          <g>
            <path class="cls-11" d="M656.97,639.51c2.87.12,5.73.24,8.6.37.26.01.55.04.69.26.11.18.07.41.02.62-1.2,4.98-2.41,9.96-3.61,14.94-1.11,4.61-2.24,9.3-1.96,14.03-.08-1.36-6.34-2.53-7.36-3.62-1.97-2.13-1.17-4.66-.77-7.33.99-6.51,2.48-12.96,4.39-19.27Z"/>
            <path class="cls-11" d="M660.16,669.77c-.16-.48-2.47-1.27-3.71-1.7-1.6-.55-2.98-1.03-3.51-1.6-1.89-2.04-1.47-4.42-1.08-6.73.06-.35.12-.7.17-1.05.97-6.38,2.45-12.88,4.41-19.34l.12-.4,9.01.38c.25.01.82.03,1.12.51.24.38.14.82.09,1.03l-3.61,14.94c-1.09,4.51-2.22,9.18-1.95,13.87,0,0,0,0,0,0l-1.07.08ZM665.82,640.45s-.1-.03-.27-.03l-8.18-.35c-1.88,6.28-3.31,12.59-4.25,18.79-.05.36-.12.72-.18,1.07-.39,2.23-.72,4.16.81,5.81.34.37,1.85.89,3.07,1.31,1.42.49,2.55.89,3.31,1.32-.02-4.37,1.02-8.65,2.02-12.8l3.61-14.94c.02-.1.04-.17.06-.18,0,0,0,0,0,0Z"/>
          </g>
        </g>
        <g>
          <path class="cls-12" d="M571.7,742.32c-.1,0,.1-.4.12-.48.08.14-.17.59-.12.48Z"/>
          <path class="cls-12" d="M573.04,743.7c-.08-.52.16.26.21.3l-.21-.3Z"/>
          <path class="cls-12" d="M574.84,743.78c-.17.87-.9-.4-1.06.3-.39-1.32.57.1,1.06-.3Z"/>
          <path class="cls-12" d="M575.76,742.08c-.04.3.22.25-.22.11.04-.12.08-.06.22-.11Z"/>
          <path class="cls-12" d="M575.58,742.11c-.19-.01.11-.26,0,0h0Z"/>
          <path class="cls-12" d="M576.49,742.22c-.41-.2-.12-.38-.11-.61.28.12.24.3.11.61Z"/>
          <path class="cls-12" d="M576.79,742.76l-.15-.1c.02-.08.05-.1.15.1Z"/>
          <path class="cls-12" d="M576.33,742.44c.28.03.4.78.17.14.04.23-.03.01-.17-.14Z"/>
          <path class="cls-12" d="M576.17,742.57c-.13.18-.32.3-.04.54-.51-.07-.47-.62.04-.54Z"/>
          <path class="cls-12" d="M574.95,744.58c-.17.25-.24.22-.38-.03.09.13.39-.21.38.03Z"/>
          <path class="cls-12" d="M578.1,741.67c-.03.2.09.89-.25.49.09-.12.27-.24.25-.49Z"/>
          <path class="cls-12" d="M578.06,742.33l.33.25c-.26.06-.32-.07-.33-.25Z"/>
          <path class="cls-12" d="M576.91,743.61l-.25-.26c-.9-.81.56.34.25.26Z"/>
          <path class="cls-12" d="M579.2,741.52l-.21-.36s.64.88.21.36Z"/>
          <path class="cls-12" d="M579.94,741.48c-.17-.78.05-.86.54-.24-.18-.11-.35-.05-.54.24Z"/>
          <path class="cls-12" d="M580.79,741.55c-.09-.06-.2-.18-.31-.31.1.06.2.15.31.31Z"/>
          <path class="cls-12" d="M578.87,742.43c.01-.1.02-.36.17-.49-.04.08.02.56-.17.49Z"/>
          <path class="cls-12" d="M578.99,742.43c.08-.06.23-.05.25-.07-.03,0-.11.03-.25.07Z"/>
          <path class="cls-12" d="M578.85,742.44h.03s-.01.06-.03,0Z"/>
          <path class="cls-12" d="M577.65,743.12c.2.24.6.48.28.9-.16-.3.02-.54-.28-.9Z"/>
          <path class="cls-12" d="M578.77,743.03c-.42.25-.21.02-.38-.28,0,0,.38.28.38.28Z"/>
          <path class="cls-12" d="M578.94,743.16l-.17-.13c.13-.11.13.03.17.13Z"/>
          <path class="cls-12" d="M580.33,742.06c.16.18.31.17.49.18-.28.34-.85.14-.49-.18Z"/>
          <path class="cls-12" d="M579.68,742.28l.03.02s-.03.06-.03-.02Z"/>
          <path class="cls-12" d="M582.45,741.95c-.01.09,0,.1-.03.01h.03Z"/>
          <path class="cls-12" d="M580.28,742.55c-.12.11-.22,0-.32-.12.08.05.46,0,.32.12Z"/>
          <path class="cls-12" d="M581.28,741.69c-.05.11-.12.2-.19.29.04-.16.14-.4.19-.29Z"/>
          <path class="cls-12" d="M579.74,742.17s-.01-.01-.02-.02c.03-.1.03-.06.02.02Z"/>
          <path class="cls-12" d="M579.74,742.17c.08.06.15.16.22.25-.13-.04-.29-.08-.22-.25Z"/>
          <path class="cls-12" d="M583.52,744.76c-.11-.42-.55-.73-.78-.22-.25-.07-.85-3.37.13-1.96-.6.48-.16,1.71.22.52.32,1.13.98.75.43,1.66Z"/>
          <path class="cls-12" d="M581.86,742.19c-.26-.06.41-1.07.56-.23,0,.04-.79.13-.56.23Z"/>
          <path class="cls-12" d="M581.15,742.25c1.09,2.08-.66.22-.07-.24,0,.27.25.25,0,0,.42.06,1.03.24.07.24Z"/>
          <path class="cls-12" d="M578.37,744.99s.01-.08,0-.11c.05.05.07.09,0,.11Z"/>
          <path class="cls-12" d="M578.6,744.68c-.18-.36-.39-.1-.22.2-.1-.11-.35-.3-.09-.55.8-.75.45-.89.31.36Z"/>
          <path class="cls-12" d="M579.94,743.6c.43.1.65.14.34.59.02-.33-.36-.16-.34-.59Z"/>
          <path class="cls-12" d="M582.47,741.71l-.16-.47c.01.12.8.96.16.47Z"/>
          <path class="cls-12" d="M583.12,741.64l-.11-.41c.14.12.28.25.11.41Z"/>
          <path class="cls-12" d="M616.24,723.62l.17-.11c-.06.06-.12.09-.17.11Z"/>
          <path class="cls-12" d="M615.79,724.74l-.2-.06c.13,0,.22,0,.2.06Z"/>
          <path class="cls-12" d="M598.42,736.47c0-.45-.09-1.11.11-.67.22.37.07.4-.11.67Z"/>
          <path class="cls-12" d="M608.72,731.65c.18.28-.24,0-.38-.02.12,0,.24.02.38.02Z"/>
          <path class="cls-12" d="M610.33,732.75l-.04-.44c.04.12.05.26.04.44Z"/>
          <path class="cls-12" d="M618.77,717.57l.51-.07c-.08.29-.28.1-.51.07Z"/>
          <path class="cls-12" d="M589.74,740.1c.13-.23.24-.35.36-.41-.13.33-.19.77-.36.41Z"/>
          <path class="cls-12" d="M611.48,722.11c.11-.05.22-.05.31,0-.11.05-.21.07-.31,0Z"/>
          <path class="cls-12" d="M590.62,739.51c-.05.26-.34.02-.52.17.1-.24.24-.42.52-.17Z"/>
          <path class="cls-12" d="M621.18,694.6s-.03-.04-.06-.06c.06,0,.07.02.06.06Z"/>
          <path class="cls-12" d="M615.29,689.91s.04.08.07.12c-.04,0-.07-.02-.07-.12Z"/>
          <path class="cls-12" d="M585.67,740.86c-.14,0-.03-.04,0,0h0Z"/>
          <path class="cls-12" d="M585.43,742.82s.08.1.11.21c-.04-.11-.07-.17-.11-.21Z"/>
          <path class="cls-12" d="M592.92,741.8h.01c-.01.1,0,.08-.01,0Z"/>
          <path class="cls-12" d="M585.51,741.12c.04-.07.08-.13.14-.18-.02.04-.06.1-.14.18Z"/>
          <path class="cls-12" d="M585.49,740.89s-.08.05-.11.07c-.04-.07-.03-.12.11-.07Z"/>
          <path class="cls-12" d="M585.86,740.83c-.08.01-.15.05-.21.1.02-.13.06-.07.21-.1Z"/>
          <path class="cls-12" d="M619.05,706.72s-.02-.02-.04-.04c.21-.13.17-.07.04.04Z"/>
          <path class="cls-12" d="M604.17,738.67s-.03-.01-.02-.04l.02.04Z"/>
          <path class="cls-12" d="M604.84,738.63c-.98-.24-.84-.26-1.3-1.2,0,0,1.3,1.2,1.3,1.2Z"/>
          <path class="cls-12" d="M618.06,720.35c-.14-.25-1.1-.19-.69-.65.5-.67.98.46,1.28.06-.72-.34-.27-1.77.03-2.2,1.57-2-.36-1.29.89-2.42-1.43.9-1.15-1.17-.24-.68.64-1.85-.51.1-1.1-.87.81-.55.78-.18,1.36-1.16-1.06.11.17-.62-1.11-.19-.27-.8,1.02.04.83-.84-1.48-.15.92-.28.04-.68.36-.26.65.64.86-.07-.79-.49-.15-1.16.02-.29.41-1.06-1.67-.92-.85-1.8.33.38,1.04-.15.91.64-.05-.6-.04-1.38-.73-.99.33-.47.39-.25-.16-.37.95-.38-.32-.94.88-1.1-.94.1.09-.35-.25-.59-1.21,2.04-.41.49-1.56.85-.42-.66.61-.89.88-1.23-.61,1.4.9.08.61-.62-.12-.25-2.53-1.74-.6-1.72.26-.21-.34.91.8.61-1.24-.52.55-.79-.25-1.75-2.13.2-.25-.62.58-1.55-.54.09-1.23-.37-.47-.78.1-.38-.61-1.48.21-1.33.72-.5.36-3.86.9-2.91.85-1.3-1.5-.86-.39-1.41-.92-.31.32-.16.26-.42-1.17-.19-.28-1.85-1.39-2.08.56-.23,1.15,1.09.54-.06,1.4-.4-1.96-2.79-1.26-3.78-.67.84-.07-.77-1.12-.66-1.15-.76-2.92,1.15-2.71,1.97.15.66,1.36.06,0,1.04,1.72-.31,2.08,3.82,1.45,4.06.45.48-1.11.42.5.98-1.49-.08-.61,2.93.11,3.06-1.39-.17-1.1,1.73.4,1.78-.87.42-2.05,2.36-.72,3.93-.68-.34-.37-.01-.7.23-.64-.54-.67.02-.58.47,1.25.4-.21.7-.37,1.07,0,.21.69-.65.94.05-1.72.67.35-.18-.02.9-1.51-.82-.82,5.08,0,5.03.16-.34.78.24.61.52-.7-.03-1.2-.49-1.69.07-1.97-.06-.13,1.52-.94,2.23.21.21-.42,2.14.5,2.06-1.01.33-1.37.99-.62,1.43-1.09,0-.7.78-1.1,1.44,1.55.55-1.42.98.15,1.84-2.66.96.02,1.45-3.11,2.74-.09.31.51.39.79.64-.36.36-1.29-.76-1,.11.23-.31,1.65,1.64,1.26,1.59-.89-1.04.43,1.58-.57.84-.31-.55-.8.43-.61.92-.27,1.03-.8-.13-1.38,1.29-1.07-.09-.94.74-.38,1.15-1.49.38-1.75-1.05-2.19-.1.71.31-.13.39-.55.98.54,0,.2,1.53-.17.62-1.47,2.08-1.67,3.53-3.54,2.91.95.71.56,1.22-.29.5.68,1.14-.85.6-1.55.42.28.87-.54.05-.25.85-.39-.01-.59-1.01-.7-.7.39,1.09-.58.1-.39.56-.2,1.01-1.85-.06-2.14,1.07.56-.6-.67,1.13-.98.77-.14-1.07-1.42.1-1.49-.88-2.2.49-3.15,3.22-5.8,2.6-.69-.28-1.48.24-1.24,1.51,0-.3-1.43.56-1.2-.73-.45-.46-.72-.07-.97.88-.12-.88-2.18-.65.23.52-.62,1.34.5.34.66.29-.64-.02-.21.43-.44-.38,2.11-.46.72,3.07,3.97.42-.35.37-.77-.06-.34-.37-.74,1.11-1.2.18-1.16-.95.6-.85.94.88,1.84.44-.29-1.4,1.88.43,1.96,1.3-1.63-.54-.6.24.08.73-.66-.9.19-1.24,1.56-2.2-.02-1.56,1.09,1.63,1.85.57-.27.83.06-.14.38.52.36-.04-.01-.38.08-.59,1.07.89-.58-.87-.53-1.49.67-4.76,1.67,4.27,2.09,1.65-.03-.79,1.87.44.67-.41,1.32-.22.19-.31.04-1.36.54-.38,1.68.55,1.97,1.22-1.71-.24-1.1-.3-.07.67,2.48-.77-3.31-3.95-1.91-3.96-.06-1.22,2.39,2,2.69,2.15-.72-2.8-.33-.87,1.4-.82-.37.91.46-.17.6.1-.44-1.49-.74-1.29.59-.54-1.11-1.06-.42-1.59.19-.1.02-1.37.16-1.83.58-.38,1.45.04-1.14-1.9-1.35-2.8,2.65,1.91,2.5,1.74,4.43-.35-.94-.55,1.18.48.94-.27-.26.36-.57.14-.8-.14,4.07-1.02,1.08-1.65,1.13-.53-2.53-2.31,1.83-.27,2.25-1.77-.5-1.71-1.25-.58-2.32-1.89.64-.55,2.87,1.67,2.43.37,2.21.38.9-1.15,1.58-1.82.98.04.57.04,1.39-.01-1.3-.45.87-.63.61-1.38.46-.55.8.81,1,.23-1.05-.85-.68-.95.34-1.02-1.42-.84.28-2.22.97-.23-.14-.47-.04-1.83-.82-1.12-.4-1.14,1.24-.33.08-1.3-.15.58-1.4.19-.33-.1-.15-.12-.22.16-.33-.1.62,0,1.48-.54.99-.86.7-.4.29-.1.15-.72.04-.67,1.64.09,1.17-.64-.1.28-.26-.12-.31-.22,1.39.46.66-1.38,2.06-.96-.35-.8-1.09.72-1.41-.42-.65.92-.19-.79.69-.63ZM615.13,725.94c.24.21-.16.27-.31.32-.07-.25-.29-.46.31-.32ZM609.1,732.59c.06.24.04.39-.14.34-.01-.18.05-.29.14-.34ZM587.28,740.9s-.01-.01-.02-.02c.13-.14.18-.23.02.02ZM587.06,741.05c-.18.15-.41-.14-.2.17.17.08.2-.03.2-.17ZM615.85,704.91l-.13-.11c.16-.04.3-.09.13.11Z"/>
          <path class="cls-12" d="M610.14,732.62c-.05-.08-.12-.15-.19-.22.1.02.18.08.19.22Z"/>
          <path class="cls-12" d="M618.68,717.58s.06-.01.09-.01h-.09Z"/>
          <path class="cls-12" d="M595.52,743.04c.07-.11.09-.22.09-.32.05.12.05.23-.09.32Z"/>
          <path class="cls-12" d="M584.21,740.96c.39.08.23,0,.1.29-.02-.12,0-.3-.1-.29Z"/>
          <path class="cls-12" d="M582.21,744.65c-.17,0-.17-.14-.18-.29.2-.02.37.15.18.29Z"/>
          <path class="cls-12" d="M584.31,742.71c.13.45-.31.33-.35.29-.19-.59.08-.44.35-.29Z"/>
          <path class="cls-12" d="M583.87,743c-.07,0-.14,0-.2.03-.07-.24.07-.07.2-.03Z"/>
          <path class="cls-12" d="M586.2,741.09c-.07.13-.2-.53-.21-.34-.25-.51.82.49.21.34Z"/>
          <path class="cls-12" d="M584.44,744.16l-.04-.55c.07.17.34.44.04.55Z"/>
          <path class="cls-12" d="M586.06,743.38l-.31.23c-.26-.22.27-.37.31-.23Z"/>
          <path class="cls-12" d="M585.61,743.45c-.11.04-.22.05-.3-.02.06,0,.19-.02.3.02Z"/>
          <path class="cls-12" d="M584.95,744.21c.02-.12.21-.2.31-.23l-.31.23Z"/>
          <path class="cls-12" d="M589.69,742.27l.41.04c.21.44-.44.26-.41-.04Z"/>
          <path class="cls-12" d="M588.98,744.02c.07-.14.04-.26.05-.44,0,.17.47.99-.05.44Z"/>
          <path class="cls-12" d="M590.12,743.85c.09.17.71.34.21.45-.09-.16-.52-.2-.21-.45Z"/>
          <path class="cls-12" d="M595.41,741.1c-.15.2-.43-.98-.49-1,0,0,.49,1,.49,1Z"/>
          <path class="cls-12" d="M601.37,741.24c-.31.47-.42-.54-.66-.04-.2-.55.43-.89.66.04Z"/>
          <path class="cls-12" d="M600.69,740.65c-.06-.02-.13-.04-.21-.08.11.02.17.05.21.08Z"/>
          <path class="cls-12" d="M614.58,690.11c-.31.25-.1.03.04-.14l-.04.14Z"/>
          <path class="cls-12" d="M614.7,689.26l-.29.64c.1-.32.04-.55.29-.64Z"/>
          <path class="cls-12" d="M615.67,727.69c-.22-.04-.33-.22-.23-.41l.23.41Z"/>
          <path class="cls-12" d="M617.02,723.51c.06.23-.52-.32-.55-.29l.55.29Z"/>
          <path class="cls-12" d="M619.01,720.36c-.02.15-.21.27-.23.42.21-.28-.51-.7.23-.42Z"/>
        </g>
      </g>
      <g>
        <path class="cls-5" d="M152.55,120.11l1.31-3L75.3,6.69l-3.27.26-25.47,51.56L0,99.11l1.04,3.33,9.23,1.05-2.01,12.2,1.67,2.21,9.64,1.1-1.76,10.08,1.7,2.23,9.73.92-2.24,9.63,1.73,2.34,10.82.73-2.63,10.85,2.77,2.13,55.97-30.37,56.9-7.42ZM138.13,101.58l10.78,15.15-45.21,5.9,34.42-21.05ZM94.62,123.72l-14.2-1.62,4.75-10.5,43.36-8.61-33.9,20.73ZM56.11,76.5l-3.14,12.96-9.7-.62,2.72-11.67,10.12-.67ZM38.53,92.36l-2.38,10.23-9.64-1.09,1.71-9.8,10.31.66ZM42.39,92.61l9.67.62-2.63,10.87-9.46-1.07,2.43-10.41ZM68.98,94.31l-3.42,11.61-12.31-1.4,2.68-11.05,13.05.84ZM48.52,107.83l-2.5,10.34-9.34-1.06,2.41-10.35,9.43,1.07ZM52.35,108.27l12.12,1.37-3.03,10.29-11.6-1.32,2.5-10.35ZM81.01,111.52l-4.58,10.13-11.14-1.27,3.03-10.3,12.69,1.44ZM60.35,123.65l-2.2,7.48-11.08-1.05,1.87-7.73,11.41,1.3ZM64.2,124.09l10.59,1.21-3.21,7.1-9.56-.9,2.18-7.4ZM135.38,97.73l-44.76,8.89,31.78-27.13,12.98,18.24ZM83.22,107.92l-13.81-1.57,3.61-12.28,41.44-12.84-31.25,26.68ZM119.67,75.64l-43.28,13.41,26.64-36.8,16.64,23.39ZM70.55,90.59l-13.72-.88,3.4-14.04,36.06-20.64-25.74,35.56ZM100.26,48.36l-36.33,20.79,23.3-39.1,13.03,18.31ZM57.45,72.58l-10.55.7,2.92-12.54,29.75-25.29-22.12,37.12ZM74.04,11.5l10.48,14.74-30.62,26.02,20.13-40.76ZM34.48,74.11l10.42-9.09-1.99,8.53-8.43.56ZM42.01,77.44l-2.6,11.15-10.53-.68,1.7-9.72,11.42-.76ZM26.15,81.37l-1.1,6.3-5.7-.37,6.8-5.93ZM5.77,99.14l6.09-5.31-.97,5.89-5.12-.58ZM14.69,100.15l1.52-9.23,8.18.53-1.68,9.61-8.02-.91ZM12.36,114.34l1.71-10.41,7.98.9-1.82,10.4-7.87-.9ZM24.03,115.67l1.82-10.41,9.43,1.07-2.41,10.35-8.83-1.01ZM21.92,127.71l1.45-8.27,8.62.98-1.88,8.06-8.19-.77ZM33.95,128.84l1.86-7.99,9.3,1.06-1.89,7.81-9.28-.88ZM31.22,140.54l1.85-7.95,9.24.87-1.86,7.7-9.23-.62ZM44.32,141.43l1.84-7.6,10.89,1.03-2.14,7.28-10.59-.71ZM41.64,152.5l1.77-7.31,10.41.7-12.18,6.61ZM58.54,143.33l2.38-8.11,10.69,1.01-13.08,7.1ZM74.82,134.5l3.95-8.75,10.05,1.15-14,7.6Z"/>
        <rect class="cls-13" x="107.74" y="-10.67" width="10.32" height="147.52" transform="translate(-15.67 77.14) rotate(-35.43)"/>
        <path class="cls-4" d="M81.6,28l-15.67-22.02,8.41-5.98,13.55,19.05c-2.32,2.82-4.42,5.82-6.29,8.96Z"/>
      </g>
      <g>
        <path class="cls-5" d="M335.81,802.39c-5.5-3.13-10.6-6.49-14.94-10.23l9.87-11.42c4.9,4.24,11.42,8.09,18.51,11.75-1.97-8.07-4.06-15.64-6.37-21.66l14.08-5.43c2.27,5.9,4.28,12.88,6.16,20.29,3.62-6.89,6.75-13.01,8.85-17.17l13.48,6.79c-.97,1.92-4.45,8.81-9.07,17.62,11.54-2.75,19.81-4.43,20.6-4.59l2.99,14.79c-.19.04-8.31,1.7-19.8,4.43,7.16,3.72,13.86,7.69,19.18,12.18l-9.74,11.53c-4.83-4.08-11.31-7.79-18.55-11.44,2.13,8.81,4.3,16.62,6.54,21.07l-13.49,6.78c-2.48-4.94-4.65-12.06-6.72-20.25-4.64,7.86-8.94,14.52-12.04,18.1l-11.4-9.89c2.86-3.3,7.34-10.46,12.31-19.07-7.44,2.23-14.75,4.64-21.23,7.15l-5.44-14.08c5.63-2.18,11.78-4.27,18.08-6.23-.61-.34-1.24-.66-1.85-1.01Z"/>
        <path class="cls-3" d="M345.41,846.51l.46-.53c2.68-3.09,6.47-8.72,11.26-16.75,2.24,8.62,4.27,14.61,6.35,18.75l.31.63,14.74-7.41-.31-.63c-1.82-3.62-3.72-9.65-6.12-19.44,7.79,4,13.09,7.31,17.06,10.66l.54.45,10.19-12.06-1.07-.9-9.29,11c-4.22-3.46-9.86-6.9-18.15-11.08l-1.35-.68.35,1.47c2.46,10.21,4.42,16.63,6.29,20.59l-12.24,6.15c-2.06-4.3-4.09-10.52-6.36-19.48l-.42-1.65-.87,1.46c-4.88,8.26-8.75,14.13-11.52,17.46l-10.34-8.97c2.63-3.21,6.64-9.47,11.94-18.64l.88-1.53-1.69.51c-7.84,2.35-14.78,4.67-20.63,6.91l-5.19-13.42-1.31.5,5.7,14.73.65-.25c5.54-2.14,12.08-4.36,19.48-6.62-5.11,8.78-8.92,14.64-11.34,17.43l-.46.53,12.46,10.81Z"/>
      </g>
    </g>
  </g>
</svg>