<?xml version="1.0" encoding="UTF-8"?>
<svg id="Layer_2" data-name="Layer 2" xmlns="http://www.w3.org/2000/svg" viewBox="0 0 773.49 758.53">
  <defs>
    <style>
      .cls-1 {
        fill: #1f4387;
      }

      .cls-1, .cls-2, .cls-3 {
        stroke-width: 0px;
      }

      .cls-2 {
        fill: #f4a33b;
      }

      .cls-3 {
        fill: #fde758;
      }
    </style>
  </defs>
  <g id="CHANTS_PAGE" data-name="CHANTS PAGE">
    <g>
      <path class="cls-3" d="M464.41,83.91c-8.48,9.38-16.88,21.21-14.25,33.58,2.1,9.92,10.75,17.05,14.97,26.26,8.25,18.04-2.48,39.68-17.64,52.49-15.15,12.8-34.24,20-50.43,31.46-23.76,16.82-40.89,43.72-43.11,72.75-2.22,29.03,11.68,59.44,36.66,74.4,23.9,14.32,53.98,13.49,81.25,7.76,78.79-16.55,148.33-72.27,181.67-145.55,25.92-56.98,43.22-172.76-9.72-221.67-52.53-48.53-144.38,29.81-179.4,68.53Z"/>
      <path class="cls-1" d="M37.82,366.04c-7.92.1-16.05.25-23.38,3.22-7.34,2.97-13.82,9.44-14.39,17.34-.53,7.22,4.04,14.12,10.12,18.05,6.08,3.93,13.44,5.34,20.66,5.92,25.38,2.05,63.15-6.46,79.96-27.68,14.5-18.3,5.25-16.99-15.41-17.59-19.12-.55-38.43.5-57.56.76Z"/>
      <path class="cls-1" d="M557.78,189.1c-25.8,52.6-46.22,109.27-85.37,152.84-54.47,60.62-140.83,90.76-181.6,161.33-12.54,21.71-19.8,49.09-8.95,71.69,18.59,38.73,73.15,38.42,115.45,30.97,73.25-12.91,146.82-30,212.51-64.89,65.69-34.89,123.43-89.55,148.9-159.44,29.74-81.61,12.63-183.76-33.89-256.32-62.76-97.89-132.58-6.45-167.05,63.82Z"/>
      <path class="cls-2" d="M320.28,362.57c-43,7.05-89.51,11.81-122.36,40.44-7.53,6.56-14.23,14.47-17.5,23.91-6.78,19.58,3.11,42.12,19.4,54.92,16.29,12.8,37.6,17.42,58.28,18.61,75.27,4.35,158.72-35.4,194.48-103.89,11.59-22.2,22.59-67.69-14.04-71.71-13.57-1.49-39.96,18.12-53.46,22.65-21.03,7.05-42.95,11.48-64.8,15.07Z"/>
      <path class="cls-1" d="M370.81,109.54c-4.25,6.76-6.94,14.93-5.37,22.76,3.57,17.8,25.18,24.32,43.07,27.41,32.21,5.57,129.25-4.78,87.04-59.2-26.38-34-103.2-25.23-124.74,9.03Z"/>
      <path class="cls-3" d="M350.6,697.86c-5.03,9.76-7.69,21.32-4.42,31.8,5.06,16.25,22.69,25.36,39.51,27.96,10.51,1.62,21.57,1.33,31.35-2.85,6.61-2.83,12.39-7.33,17.5-12.39,13.29-13.16,22.65-31.88,19.53-50.33-9.85-58.09-85.45-29.09-103.46,5.82Z"/>
    </g>
  </g>
</svg>