<?xml version="1.0" encoding="UTF-8"?>
<svg id="Layer_2" data-name="Layer 2" xmlns="http://www.w3.org/2000/svg" viewBox="0 0 598.05 220.1">
  <defs>
    <style>
      .cls-1 {
        fill: #f3dfbb;
      }

      .cls-1, .cls-2, .cls-3, .cls-4, .cls-5 {
        stroke-width: 0px;
      }

      .cls-2 {
        fill: #f4a33a;
      }

      .cls-3 {
        fill: #1f4485;
      }

      .cls-4 {
        fill: #293684;
      }

      .cls-5 {
        fill: #e12d29;
      }
    </style>
  </defs>
  <g id="Homepage_Good_Challenge" data-name="Homepage Good Challenge">
    <g>
      <path class="cls-2" d="M597.89,133.13c0,.05-.04.68,0,2.16l.12,4.57c.08,3.3.11,7.2-.2,11.33-.35,4.71-1.08,8.98-2.22,13.02-1.39,4.92-3.44,9.51-6.07,13.6-2.68,4.2-6.24,8.14-10.25,11.35-3.45,2.8-7.51,5.25-12.03,7.27-6.97,3.05-14.4,4.95-23.43,5.98l-.85.09c-1.53.16-3.11.29-4.69.4l-14.09.83-18.65,1.22c-12.73.86-25.45,1.79-37.38,2.66-38.91,2.87-94.47,7.58-148.47,12.02-11.01.9-20.74-7.12-21.96-18.1l-153.82,16.02c-3.24,1.08-6.8,1.84-10.66,2.24-3.88.4-7.45.4-10.69-.01h-.02c-5.86-.73-10.65-2.79-14.32-6.16l-.1-.09c-4.27-4.01-6.8-9.56-7.52-16.48-.26-2.46-.28-5.12-.08-7.89l1.37-18.75c.34-4.71,1.32-8.97,2.89-12.75l-5.17.71-18.3,2.61c-3.03.43-6.03.87-9.03,1.34l-4.6.7-2.5.37-.74.1c-.65.1-1.31.19-1.98.26-.44.06-.97.12-1.51.18-3.49.36-6.76.51-10.01.47-4.59-.06-8.76-.51-12.76-1.37-4.83-1.01-9.43-2.69-13.62-4.97-4.69-2.57-8.96-6.03-12.37-10.01-3.26-3.8-5.92-8.24-7.9-13.17-1.62-4.07-2.8-8.53-3.5-13.27-.58-4-.83-8.05-.74-12.44.03-1.88.13-3.81.31-5.9.08-.96.18-1.92.28-2.85l.52-4.4c.61-5.11,5.3-8.72,10.4-7.99l20.1,2.86c1.43-9.56,5.52-17.09,11.99-22.32-.44.03-4.23.4-8.01.77-3.78.38-7.56.76-8,.78-1.22-12.34,7.56-23.43,19.86-25.07,37.81-5.04,83.35-10.98,119.33-16.12,9.43-1.35,20.62-2.96,31.87-4.66,5.01-.75,10.39-1.57,15.81-2.44l4.24-.67,2.43-.33,2.3-.26c3.57-.35,6.9-.5,10.17-.43,8.62.17,16.1,1.75,22.87,4.82,4.27,1.94,8.12,4.47,11.46,7.51,3.33,2.97,6.26,6.58,8.66,10.7,3.84,6.63,6.22,14.4,7.07,23.09.33,3.42.43,7.01.29,10.67-.07,1.7-.18,3.41-.33,5.11l-.26,2.49h0c-.87,7.31-7.58,12.46-14.87,11.42l-12.77-1.82c-.9,7.95-3.93,14.78-9.06,20.31,8.43-.58,23.54-1.85,35.63-2.8,5.83-.45,12.87,1.87,18.86,8.9l257.09-26.78c5.07-.53,9.83,2.8,10.85,7.8.21,1.02.3,2.09.22,3.2l-1.08,14.52,19.42,1.45c6.32.48,10.97,6.13,10.21,12.42Z"/>
      <path class="cls-5" d="M597.89,124.08c0,.05-.04.68,0,2.16l.12,4.57c.08,3.3.11,7.2-.2,11.33-.35,4.71-1.08,8.98-2.22,13.02-1.39,4.92-3.44,9.51-6.07,13.6-2.68,4.2-6.24,8.14-10.25,11.35-3.45,2.8-7.51,5.25-12.03,7.27-6.97,3.05-14.4,4.95-23.43,5.98l-.85.09c-1.53.16-3.11.29-4.69.4l-14.09.83-18.65,1.22c-12.73.86-25.45,1.79-37.38,2.66-38.91,2.87-94.47,7.58-148.47,12.02-11.01.9-20.74-7.12-21.96-18.1l-153.82,16.02c-3.24,1.08-6.8,1.84-10.66,2.24-3.88.4-7.45.4-10.69-.01h-.02c-5.86-.73-10.65-2.79-14.32-6.16l-.1-.09c-4.27-4.01-6.8-9.56-7.52-16.48-.26-2.46-.28-5.12-.08-7.89l1.37-18.75c.34-4.71,1.32-8.97,2.89-12.75l-5.17.71-18.3,2.61c-3.03.43-6.03.87-9.03,1.34l-4.6.7-2.5.37-.74.1c-.65.1-1.31.19-1.98.26-.44.06-.97.12-1.51.18-3.49.36-6.76.51-10.01.47-4.59-.06-8.76-.51-12.76-1.37-4.83-1.01-9.43-2.69-13.62-4.97-4.69-2.57-8.96-6.03-12.37-10.01-3.26-3.8-5.92-8.24-7.9-13.17-1.62-4.07-2.8-8.53-3.5-13.27-.58-4-.83-8.05-.74-12.44.03-1.88.13-3.81.31-5.9.08-.96.18-1.92.28-2.85l.52-4.4c.61-5.11,5.3-8.72,10.4-7.99l20.1,2.86c1.43-9.56,5.52-17.09,11.99-22.32-.44.03-4.23.4-8.01.77-3.78.38-7.56.76-8,.78-1.22-12.34,7.56-23.43,19.86-25.07,37.81-5.04,83.35-10.98,119.33-16.12,9.43-1.35,20.62-2.96,31.87-4.66,5.01-.75,10.39-1.57,15.81-2.44l4.24-.67,2.43-.33,2.3-.26c3.57-.35,6.9-.5,10.17-.43,8.62.17,16.1,1.75,22.87,4.82,4.27,1.94,8.12,4.47,11.46,7.51,3.33,2.97,6.26,6.58,8.66,10.7,3.84,6.63,6.22,14.4,7.07,23.09.33,3.42.43,7.01.29,10.67-.07,1.7-.18,3.41-.33,5.11l-.26,2.49h0c-.87,7.31-7.58,12.46-14.87,11.42l-12.77-1.82c-.9,7.95-3.93,14.78-9.06,20.31,8.43-.58,23.54-1.85,35.63-2.8,5.83-.45,12.87,1.87,18.86,8.9l257.09-26.78c5.07-.53,9.83,2.8,10.85,7.8.21,1.02.3,2.09.22,3.2l-1.08,14.52,19.42,1.45c6.32.48,10.97,6.13,10.21,12.42Z"/>
      <path class="cls-4" d="M597.89,113.02c0,.05-.04.68,0,2.16l.12,4.57c.08,3.3.11,7.2-.2,11.33-.35,4.71-1.08,8.98-2.22,13.02-1.39,4.92-3.44,9.51-6.07,13.6-2.68,4.2-6.24,8.14-10.25,11.35-3.45,2.8-7.51,5.25-12.03,7.27-6.97,3.05-14.4,4.95-23.43,5.98l-.85.09c-1.53.16-3.11.29-4.69.4l-14.09.83-18.65,1.22c-12.73.86-25.45,1.79-37.38,2.66-38.91,2.87-94.47,7.58-148.47,12.02-11.01.9-20.74-7.12-21.96-18.1l-153.82,16.02c-3.24,1.08-6.8,1.84-10.66,2.24-3.88.4-7.45.4-10.69-.01h-.02c-5.86-.73-10.65-2.79-14.32-6.16l-.1-.09c-4.27-4.01-6.8-9.56-7.52-16.48-.26-2.46-.28-5.12-.08-7.89l1.37-18.75c.34-4.71,1.32-8.97,2.89-12.75l-5.17.71-18.3,2.61c-3.03.43-6.03.87-9.03,1.34l-4.6.7-2.5.37-.74.1c-.65.1-1.31.19-1.98.26-.44.06-.97.12-1.51.18-3.49.36-6.76.51-10.01.47-4.59-.06-8.76-.51-12.76-1.37-4.83-1.01-9.43-2.69-13.62-4.97-4.69-2.57-8.96-6.03-12.37-10.01-3.26-3.8-5.92-8.24-7.9-13.17-1.62-4.07-2.8-8.53-3.5-13.27-.58-4-.83-8.05-.74-12.44.03-1.88.13-3.81.31-5.9.08-.96.18-1.92.28-2.85l.52-4.4c.61-5.11,5.3-8.72,10.4-7.99l20.1,2.86c1.43-9.56,5.52-17.09,11.99-22.32-.44.03-4.23.4-8.01.77-3.78.38-7.56.76-8,.78-1.22-12.34,7.56-23.43,19.86-25.07,37.81-5.04,83.35-10.98,119.33-16.12,9.43-1.35,20.62-2.96,31.87-4.66,5.01-.75,10.39-1.57,15.81-2.44l4.24-.67,2.43-.33,2.3-.26c3.57-.35,6.9-.5,10.17-.43,8.62.17,16.1,1.75,22.87,4.82,4.27,1.94,8.12,4.47,11.46,7.51,3.33,2.97,6.26,6.58,8.66,10.7,3.84,6.63,6.22,14.4,7.07,23.09.33,3.42.43,7.01.29,10.67-.07,1.7-.18,3.41-.33,5.11l-.26,2.49h0c-.87,7.31-7.58,12.46-14.87,11.42l-12.77-1.82c-.9,7.95-3.93,14.78-9.06,20.31,8.43-.58,23.54-1.85,35.63-2.8,5.83-.45,12.87,1.87,18.86,8.9l257.09-26.78c5.07-.53,9.83,2.8,10.85,7.8.21,1.02.3,2.09.22,3.2l-1.08,14.52,19.42,1.45c6.32.48,10.97,6.13,10.21,12.42Z"/>
      <path class="cls-3" d="M63.3,115.29c-7.58.79-13-.43-16.25-3.65-2.23-2.25-3.57-5.51-4.02-9.78-.21-1.98-.22-4.16-.04-6.56l1.13-16.31c1.02-14.57,9.03-22.64,24.04-24.2,6.19-.65,11.03.19,14.51,2.5,3.48,2.31,5.46,5.76,5.94,10.35.19,1.87.14,3.79-.17,5.77-.31,1.98-.65,3.47-1.03,4.48l-.65,1.53-14.18,1.48c1.19-2.07,1.65-4.35,1.39-6.87-.5-4.81-2.75-7-6.76-6.58-5.39.56-8.3,4.02-8.72,10.38l-1.12,15.66c-.12,1.47-.1,2.9.04,4.29.38,3.68,2.75,5.3,7.1,4.85,4.35-.45,6.91-2.93,7.69-7.44l-6.57.68.68-9.06,21.23-2.21-.56,7.02-.16,2.36c-.95,12.68-8.79,19.78-23.53,21.32Z"/>
      <path class="cls-3" d="M120.16,49.36c12.87-1.34,19.85,3.25,20.95,13.77.18,1.76.19,3.68.03,5.75l-1.13,16.31c-.51,7.56-2.71,13.35-6.61,17.37-3.9,4.02-9.72,6.44-17.46,7.24-7.74.81-13.32-.42-16.74-3.68-2.34-2.24-3.73-5.52-4.18-9.85-.2-1.92-.21-4.05-.02-6.4l1.13-16.31c1.02-14.57,9.03-22.64,24.04-24.2ZM116.8,97.16c2.67-.28,4.73-1.19,6.19-2.75,1.46-1.56,2.31-4.24,2.56-8.04l1.12-15.66c.05-1.08.03-2.05-.06-2.91-.45-4.33-2.87-6.26-7.24-5.8-5.49.68-8.45,4.15-8.88,10.4l-1.12,15.66c-.07,1.36-.04,2.76.11,4.2.39,3.74,2.83,5.37,7.31,4.91Z"/>
      <path class="cls-3" d="M173.35,43.82c12.87-1.34,19.85,3.25,20.95,13.77.18,1.76.19,3.68.03,5.75l-1.13,16.31c-.51,7.56-2.71,13.35-6.61,17.37-3.9,4.02-9.72,6.44-17.46,7.24-7.74.81-13.32-.42-16.74-3.68-2.34-2.24-3.73-5.52-4.18-9.85-.2-1.92-.21-4.05-.02-6.4l1.13-16.31c1.02-14.57,9.03-22.64,24.04-24.2ZM169.99,91.62c2.67-.28,4.73-1.19,6.19-2.75,1.46-1.56,2.31-4.24,2.56-8.04l1.12-15.66c.05-1.08.03-2.05-.06-2.91-.45-4.33-2.87-6.26-7.24-5.8-5.49.68-8.45,4.15-8.88,10.4l-1.12,15.66c-.08,1.36-.04,2.76.11,4.2.39,3.74,2.83,5.37,7.31,4.91Z"/>
      <path class="cls-3" d="M228.04,38.69c7-.73,12.17.51,15.53,3.73,2.47,2.44,3.91,5.67,4.33,9.67.15,1.44.17,2.98.08,4.61l-1.26,18.19c-.44,6.15-2.55,11.25-6.34,15.32-3.79,4.07-8.99,6.44-15.61,7.13l-23.31,2.43,4.16-58.73,22.43-2.34ZM224.29,51.71l-5.21.54-2.28,33.27,7.61-.79c2.51-.26,4.4-1.15,5.68-2.66,1.27-1.51,2.02-3.84,2.23-6.99l.95-13.38c.09-1.2.09-2.28-.01-3.24-.53-5.07-3.52-7.33-8.96-6.76Z"/>
      <path class="cls-3" d="M133.91,192.07c-7.64.8-13.1-.31-16.38-3.31-2.27-2.14-3.63-5.32-4.07-9.54-.19-1.82-.21-3.78-.05-5.91l1.36-18.77c1-13.76,8.97-21.42,23.92-22.98,6.19-.65,11.03.19,14.51,2.5,3.48,2.31,5.46,5.76,5.94,10.35.22,2.14.14,4.29-.26,6.46-.39,2.17-.83,3.8-1.31,4.87l-.71,1.69-14.18,1.48c1.55-2.21,2.13-5.19,1.74-8.93-.21-1.98-.88-3.48-2.01-4.53-1.14-1.04-2.69-1.46-4.67-1.25-5.39.56-8.29,3.89-8.68,9.97l-1.12,16.47c-.12,1.42-.11,2.79.03,4.13.37,3.52,2.66,5.07,6.88,4.63,5.07-.53,7.82-3.7,8.24-9.52l14.42-1.5-.16,2.36c-.84,12.67-8.66,19.77-23.45,21.31Z"/>
      <path class="cls-3" d="M213.98,124.3l-4.08,58.73-14.5,1.51,1.51-21.21-15.62,1.63-1.44,21.2-14.5,1.51,4.16-58.73,14.42-1.5-1.79,24.8,15.62-1.63,1.79-24.8,14.42-1.5Z"/>
      <path class="cls-3" d="M249.7,178.87l-.83-12.63-13.38,1.39-2.61,12.98-15.3,1.59,14.58-59.82,26.43-2.75,6.33,57.64-15.22,1.59ZM241.87,135.56l-4.21,21.01,10.49-1.09-1.24-20.44-5.05.53Z"/>
      <path class="cls-3" d="M309.06,172.69l-36.53,3.81,4.16-58.73,14.42-1.5-3.22,46,22.11-2.3-.94,12.73Z"/>
      <path class="cls-3" d="M352,168.22l-36.53,3.81,4.16-58.73,14.42-1.5-3.22,46,22.11-2.3-.94,12.73Z"/>
      <path class="cls-3" d="M398.62,163.36l-40.21,4.19,4.16-58.73,40.21-4.19-.94,12.73-25.79,2.69-.72,11.01,21.31-2.22-.94,12.73-21.31,2.22-.63,9.54,25.79-2.69-.94,12.73Z"/>
      <path class="cls-3" d="M456.45,99.03l-4.08,58.73-14.5,1.51-13.38-30.51-2.16,32.13-14.5,1.51,4.16-58.73,14.9-1.55,13,28.44,2.14-30.02,14.42-1.5Z"/>
      <path class="cls-3" d="M483.88,155.61c-7.58.79-13-.43-16.25-3.65-2.23-2.25-3.57-5.51-4.02-9.78-.21-1.98-.22-4.16-.04-6.56l1.13-16.31c1.02-14.57,9.03-22.64,24.04-24.2,6.19-.65,11.03.19,14.51,2.5,3.48,2.31,5.46,5.76,5.94,10.35.19,1.87.14,3.79-.17,5.77-.31,1.98-.65,3.47-1.03,4.48l-.65,1.53-14.18,1.48c1.19-2.07,1.65-4.35,1.39-6.87-.5-4.81-2.75-7-6.76-6.58-5.39.56-8.3,4.02-8.72,10.38l-1.12,15.66c-.12,1.47-.1,2.9.04,4.29.38,3.68,2.75,5.3,7.1,4.85,4.35-.45,6.91-2.93,7.69-7.44l-6.57.68.68-9.06,21.23-2.21-.56,7.02-.16,2.36c-.95,12.68-8.79,19.78-23.53,21.32Z"/>
      <path class="cls-3" d="M555.86,146.98l-40.21,4.19,4.16-58.73,40.21-4.19-.94,12.73-25.79,2.69-.72,11.01,21.31-2.22-.94,12.73-21.31,2.22-.63,9.54,25.79-2.69-.94,12.73Z"/>
      <path class="cls-3" d="M30.61,85.03l-.39,2.25c-.12.7-.22,1.38-.32,2.06-.19,1.37-.34,2.73-.44,4.08-.2,2.7-.21,5.37.02,7.93.45,5.14,1.91,9.8,4.57,13.27,1.32,1.74,2.95,3.21,4.88,4.43,1.94,1.2,4.17,2.15,6.63,2.81,4.91,1.34,10.54,1.59,16.23,1.22l18.37-1.64,18.55-1.55,37.07-2.89c49.42-3.72,98.85-7.19,148.28-10.56-49.15,6.25-98.29,12.6-147.37,19.19l-36.79,5.04-18.36,2.62c-3.06.44-6.11.89-9.16,1.36l-4.57.69-2.32.35c-.82.11-1.64.24-2.47.33-3.31.4-6.69.62-10.14.58-3.45-.05-6.99-.35-10.56-1.12-3.57-.75-7.19-1.99-10.63-3.87-3.43-1.88-6.64-4.43-9.24-7.48-2.61-3.04-4.61-6.52-6.02-10.07-1.42-3.56-2.3-7.19-2.83-10.76-.52-3.58-.69-7.12-.62-10.6.03-1.74.13-3.47.27-5.18.07-.85.16-1.71.25-2.54l.28-2.35,16.82,2.4Z"/>
      <path class="cls-3" d="M257.14,66.14l.34-1.97.29-1.8c.18-1.19.32-2.38.43-3.56.22-2.36.29-4.69.2-6.97-.18-4.55-1.09-8.85-2.87-12.35-1.77-3.51-4.43-6.22-8.03-8.12-3.59-1.91-8.07-2.94-12.81-3.28-2.37-.17-4.81-.19-7.28-.07l-1.86.11-1.87.16-4.02.35c-5.4.48-10.78.91-16.17,1.33-10.77.85-21.52,1.64-32.28,2.41-43.03,3.06-86.05,5.85-129.08,8.59,42.72-5.77,85.45-11.6,128.1-17.69,10.66-1.53,21.32-3.07,31.96-4.67,5.32-.8,10.64-1.61,15.92-2.46l4-.63,2.14-.3,2.17-.24c2.9-.29,5.85-.44,8.86-.38,5.99.12,12.34,1.05,18.48,3.84,3.05,1.39,6.01,3.27,8.59,5.61,2.6,2.33,4.8,5.11,6.52,8.06,3.45,5.95,5.01,12.41,5.61,18.57.3,3.1.36,6.16.25,9.17-.06,1.51-.16,3.01-.3,4.49l-.23,2.2-.24,2.02-16.82-2.4Z"/>
      <path class="cls-3" d="M588.7,115.13c-.1.86-.12,2.25-.09,3.69l.12,4.65c.08,3.25.1,6.68-.17,10.21-.26,3.53-.8,7.18-1.84,10.83-1.03,3.64-2.58,7.29-4.72,10.61-2.13,3.33-4.85,6.29-7.85,8.7-3.01,2.43-6.29,4.31-9.61,5.79-6.68,2.93-13.5,4.32-20.16,5.08-1.67.19-3.33.33-4.99.43l-4.71.28-9.34.55-18.72,1.23c-12.48.84-24.97,1.75-37.46,2.67-49.96,3.7-99.92,7.66-149.87,11.72,49.63-6.97,99.27-13.84,148.97-20.45,12.43-1.65,24.85-3.28,37.3-4.86l18.68-2.33,9.37-1.1,4.65-.54c1.46-.17,2.91-.37,4.35-.6,5.72-.94,11.24-2.46,15.93-4.83,4.7-2.38,8.37-5.6,10.63-9.62,2.3-4.01,3.27-8.94,3.39-14.38.06-2.72-.09-5.56-.32-8.57l-.36-4.73c-.11-1.68-.23-3.43-.12-5.7l16.94,1.27Z"/>
      <g>
        <path class="cls-1" d="M59.6,111.85c-7.58.79-13-.43-16.25-3.65-2.23-2.25-3.57-5.51-4.02-9.78-.21-1.98-.22-4.16-.04-6.56l1.13-16.31c1.02-14.57,9.03-22.64,24.04-24.2,6.19-.65,11.03.19,14.51,2.5,3.48,2.31,5.46,5.76,5.94,10.35.19,1.87.14,3.79-.17,5.77-.31,1.98-.65,3.47-1.03,4.48l-.65,1.53-14.18,1.48c1.19-2.07,1.65-4.35,1.39-6.87-.5-4.81-2.75-7-6.76-6.58-5.39.56-8.3,4.02-8.72,10.38l-1.12,15.66c-.12,1.47-.1,2.9.04,4.29.38,3.68,2.75,5.3,7.1,4.85,4.35-.45,6.91-2.93,7.69-7.44l-6.57.68.68-9.06,21.23-2.21-.56,7.02-.16,2.36c-.95,12.68-8.79,19.78-23.53,21.32Z"/>
        <path class="cls-1" d="M116.46,45.92c12.87-1.34,19.85,3.25,20.95,13.77.18,1.76.19,3.68.03,5.75l-1.13,16.31c-.51,7.56-2.71,13.35-6.61,17.37-3.9,4.02-9.72,6.44-17.46,7.24-7.74.81-13.32-.42-16.74-3.68-2.34-2.24-3.73-5.52-4.18-9.85-.2-1.92-.21-4.05-.02-6.4l1.13-16.31c1.02-14.57,9.03-22.64,24.04-24.2ZM113.1,93.72c2.67-.28,4.73-1.19,6.19-2.75,1.46-1.56,2.31-4.24,2.56-8.04l1.12-15.66c.05-1.08.03-2.05-.06-2.91-.45-4.33-2.87-6.26-7.24-5.8-5.49.68-8.45,4.15-8.88,10.4l-1.12,15.66c-.07,1.36-.04,2.76.11,4.2.39,3.74,2.83,5.37,7.31,4.91Z"/>
        <path class="cls-1" d="M169.64,40.38c12.87-1.34,19.85,3.25,20.95,13.77.18,1.76.19,3.68.03,5.75l-1.13,16.31c-.51,7.56-2.71,13.35-6.61,17.37-3.9,4.02-9.72,6.44-17.46,7.24-7.74.81-13.32-.42-16.74-3.68-2.34-2.24-3.73-5.52-4.18-9.85-.2-1.92-.21-4.05-.02-6.4l1.13-16.31c1.02-14.57,9.03-22.64,24.04-24.2ZM166.28,88.18c2.67-.28,4.73-1.19,6.19-2.75,1.46-1.56,2.31-4.24,2.56-8.04l1.12-15.66c.05-1.08.03-2.05-.06-2.91-.45-4.33-2.87-6.26-7.24-5.8-5.49.68-8.45,4.15-8.88,10.4l-1.12,15.66c-.08,1.36-.04,2.76.11,4.2.39,3.74,2.83,5.37,7.31,4.91Z"/>
        <path class="cls-1" d="M224.33,35.25c7-.73,12.17.51,15.53,3.73,2.47,2.44,3.91,5.67,4.33,9.67.15,1.44.17,2.98.08,4.61l-1.26,18.19c-.44,6.15-2.55,11.25-6.34,15.32-3.79,4.07-8.99,6.44-15.61,7.13l-23.31,2.43,4.16-58.73,22.43-2.34ZM220.59,48.27l-5.21.54-2.28,33.27,7.61-.79c2.51-.26,4.4-1.15,5.68-2.66,1.27-1.51,2.02-3.84,2.23-6.99l.95-13.38c.09-1.2.09-2.28-.01-3.24-.53-5.07-3.52-7.33-8.96-6.76Z"/>
      </g>
      <g>
        <path class="cls-1" d="M130.21,188.63c-7.64.8-13.1-.31-16.38-3.31-2.27-2.14-3.63-5.32-4.07-9.54-.19-1.82-.21-3.78-.05-5.91l1.36-18.77c1-13.76,8.97-21.42,23.92-22.98,6.19-.65,11.03.19,14.51,2.5,3.48,2.31,5.46,5.76,5.94,10.35.22,2.14.14,4.29-.26,6.46-.39,2.17-.83,3.8-1.31,4.87l-.71,1.69-14.18,1.48c1.55-2.21,2.13-5.19,1.74-8.93-.21-1.98-.88-3.48-2.01-4.53-1.14-1.04-2.69-1.46-4.67-1.25-5.39.56-8.29,3.89-8.68,9.97l-1.12,16.47c-.12,1.42-.11,2.79.03,4.13.37,3.52,2.66,5.07,6.88,4.63,5.07-.53,7.82-3.7,8.24-9.52l14.42-1.5-.16,2.36c-.84,12.67-8.66,19.77-23.45,21.31Z"/>
        <path class="cls-1" d="M210.27,120.86l-4.08,58.73-14.5,1.51,1.51-21.21-15.62,1.63-1.44,21.2-14.5,1.51,4.16-58.73,14.42-1.5-1.79,24.8,15.62-1.63,1.79-24.8,14.42-1.5Z"/>
        <path class="cls-1" d="M246,175.43l-.83-12.63-13.38,1.39-2.61,12.98-15.3,1.59,14.58-59.82,26.43-2.75,6.33,57.64-15.22,1.59ZM238.17,132.12l-4.21,21.01,10.49-1.09-1.24-20.44-5.05.53Z"/>
        <path class="cls-1" d="M305.36,169.25l-36.53,3.81,4.16-58.73,14.42-1.5-3.22,46,22.11-2.3-.94,12.73Z"/>
        <path class="cls-1" d="M348.29,164.78l-36.53,3.81,4.16-58.73,14.42-1.5-3.22,46,22.11-2.3-.94,12.73Z"/>
        <path class="cls-1" d="M394.91,159.92l-40.21,4.19,4.16-58.73,40.21-4.19-.94,12.73-25.79,2.69-.72,11.01,21.31-2.22-.94,12.73-21.31,2.22-.63,9.54,25.79-2.69-.94,12.73Z"/>
        <path class="cls-1" d="M452.75,95.6l-4.08,58.73-14.5,1.51-13.38-30.51-2.16,32.13-14.5,1.51,4.16-58.73,14.9-1.55,13,28.44,2.14-30.02,14.42-1.5Z"/>
        <path class="cls-1" d="M480.18,152.17c-7.58.79-13-.43-16.25-3.65-2.23-2.25-3.57-5.51-4.02-9.78-.21-1.98-.22-4.16-.04-6.56l1.13-16.31c1.02-14.57,9.03-22.64,24.04-24.2,6.19-.65,11.03.19,14.51,2.5,3.48,2.31,5.46,5.76,5.94,10.35.19,1.87.14,3.79-.17,5.77-.31,1.98-.65,3.47-1.03,4.48l-.65,1.53-14.18,1.48c1.19-2.07,1.65-4.35,1.39-6.87-.5-4.81-2.75-7-6.76-6.58-5.39.56-8.3,4.02-8.72,10.38l-1.12,15.66c-.12,1.47-.1,2.9.04,4.29.38,3.68,2.75,5.3,7.1,4.85,4.35-.45,6.91-2.93,7.69-7.44l-6.57.68.68-9.06,21.23-2.21-.56,7.02-.16,2.36c-.95,12.68-8.79,19.78-23.53,21.32Z"/>
        <path class="cls-1" d="M552.15,143.54l-40.21,4.19,4.16-58.73,40.21-4.19-.94,12.73-25.79,2.69-.72,11.01,21.31-2.22-.94,12.73-21.31,2.22-.63,9.54,25.79-2.69-.94,12.73Z"/>
      </g>
      <path class="cls-1" d="M26.91,81.59l-.39,2.25c-.12.7-.22,1.38-.32,2.06-.19,1.37-.34,2.73-.44,4.08-.2,2.7-.21,5.37.02,7.93.45,5.14,1.91,9.8,4.57,13.27,1.32,1.74,2.95,3.21,4.88,4.43,1.94,1.2,4.17,2.15,6.63,2.81,4.91,1.34,10.54,1.59,16.23,1.22l18.37-1.64,18.55-1.55,37.07-2.89c49.42-3.72,98.85-7.19,148.28-10.56-49.15,6.25-98.29,12.6-147.37,19.19l-36.79,5.04-18.36,2.62c-3.06.44-6.11.89-9.16,1.36l-4.57.69-2.32.35c-.82.11-1.64.24-2.47.33-3.31.4-6.69.62-10.14.58-3.45-.05-6.99-.35-10.56-1.12-3.57-.75-7.19-1.99-10.63-3.87-3.43-1.88-6.64-4.43-9.24-7.48-2.61-3.04-4.61-6.52-6.02-10.07-1.42-3.56-2.3-7.19-2.83-10.76-.52-3.58-.69-7.12-.62-10.6.03-1.74.13-3.47.27-5.18.07-.85.16-1.71.25-2.54l.28-2.35,16.82,2.4Z"/>
      <path class="cls-1" d="M253.43,62.7l.34-1.97.29-1.8c.18-1.19.32-2.38.43-3.56.22-2.36.29-4.69.2-6.97-.18-4.55-1.09-8.85-2.87-12.35-1.77-3.51-4.43-6.22-8.03-8.12-3.59-1.91-8.07-2.94-12.81-3.28-2.37-.17-4.81-.19-7.28-.07l-1.86.11-1.87.16-4.02.35c-5.4.48-10.78.91-16.17,1.33-10.77.85-21.52,1.64-32.28,2.41-43.03,3.06-86.05,5.85-129.08,8.59,42.72-5.77,85.45-11.6,128.1-17.69,10.66-1.53,21.32-3.07,31.96-4.67,5.32-.8,10.64-1.61,15.92-2.46l4-.63,2.14-.3,2.17-.24c2.9-.29,5.85-.44,8.86-.38,5.99.12,12.34,1.05,18.48,3.84,3.05,1.39,6.01,3.27,8.59,5.61,2.6,2.33,4.8,5.11,6.52,8.06,3.45,5.95,5.01,12.41,5.61,18.57.3,3.1.36,6.16.25,9.17-.06,1.51-.16,3.01-.3,4.49l-.23,2.2-.24,2.02-16.82-2.4Z"/>
      <path class="cls-1" d="M585,111.69c-.1.86-.12,2.25-.09,3.69l.12,4.65c.08,3.25.1,6.68-.17,10.21-.26,3.53-.8,7.18-1.84,10.83-1.03,3.64-2.58,7.29-4.72,10.61-2.13,3.33-4.85,6.29-7.85,8.7-3.01,2.43-6.29,4.31-9.61,5.79-6.68,2.93-13.5,4.32-20.16,5.08-1.67.19-3.33.33-4.99.43l-4.71.28-9.34.55-18.72,1.23c-12.48.84-24.97,1.75-37.46,2.67-49.96,3.7-99.92,7.66-149.87,11.72,49.63-6.97,99.27-13.84,148.97-20.45,12.43-1.65,24.85-3.28,37.3-4.86l18.68-2.33,9.37-1.1,4.65-.54c1.46-.17,2.91-.37,4.35-.6,5.72-.94,11.24-2.46,15.93-4.83,4.7-2.38,8.37-5.6,10.63-9.62,2.3-4.01,3.27-8.94,3.39-14.38.06-2.72-.09-5.56-.32-8.57l-.36-4.73c-.11-1.68-.23-3.43-.12-5.7l16.94,1.27Z"/>
    </g>
  </g>
</svg>