<?xml version="1.0" encoding="UTF-8"?>
<svg id="Layer_2" data-name="Layer 2" xmlns="http://www.w3.org/2000/svg" viewBox="0 0 533.93 889.07">
  <defs>
    <style>
      .cls-1 {
        fill: #1f4387;
      }

      .cls-1, .cls-2, .cls-3, .cls-4, .cls-5 {
        stroke-width: 0px;
      }

      .cls-2 {
        fill: #214287;
      }

      .cls-3 {
        fill: #f4a33b;
      }

      .cls-4 {
        fill: #fde758;
      }

      .cls-5 {
        fill: #e11e29;
      }
    </style>
  </defs>
  <g id="FINALIST">
    <g>
      <circle class="cls-3" cx="225.19" cy="231.99" r="58.15"/>
      <path class="cls-4" d="M330.48,320l-21.45-40.46,10.73,20.23-10.91-20.13c2.84-1.57,69.65-39.95,89-166.79l45.27,6.91c-23.06,151.14-108.99,198.3-112.63,200.24Z"/>
      <path class="cls-3" d="M359.45,458.83c-.42,2.43-1.3,4.65-2.5,6.55-5.85,9.3-19.37,11.84-28.14,3.52l-120.99-114.65c-7.68-7.29-5.49-20.08,4.19-24.34,7.4-3.28,15.64-7.04,24.69-11.52,21.77-10.74,48.05-25.61,77.81-47.09,7.85-5.71,18.95-2.4,22.47,6.62,12.82,32.55,35.93,105.46,22.47,180.91Z"/>
      <path class="cls-1" d="M121.4,526.66l-41.51-19.32c66.31-142.44,129.93-176.02,136.96-179.39l9.87,20.66,10.17,20.51c-.55.29-56.11,29.99-115.49,157.54Z"/>
      <path class="cls-1" d="M137.77,816.42l-26.94-49.5c174.79-95.15,212.06-281.04,212.41-282.9,1.44-7.55,5.9-14.21,12.35-18.39,6.45-4.18,14.33-5.58,21.81-3.81,1.47.35,36.31,8.66,72.57,25.3,54.78,25.13,84.8,56.31,89.23,92.66,6.12,50.27-36.87,98.28-131.42,146.79l-25.73-50.15c97.91-50.23,102.22-81.45,101.21-89.82-2.79-23.07-49.29-47.9-92.22-62.27-18.69,62.46-77.1,207.1-233.26,292.1Z"/>
      <path class="cls-3" d="M155.16,888.08c-3.91,2.25-8.94.49-10.67-3.69l-5.45-13.06-38.35-92.04c-1.75-4.17.54-8.99,4.91-10.17,31.04-8.45,64.26,7.26,76.97,37.74.2.49.41,1,.59,1.49,11.69,30.11-.6,63.9-28.01,79.74Z"/>
      <path class="cls-1" d="M155.16,888.08c-3.91,2.25-8.94.49-10.67-3.69l-5.45-13.06c10.89-5.09,20.63-12.71,28.03-22.19,8.61-11.08,13.42-23.99,15.53-37.77.16-1.08.36-2.09.56-3.02,11.69,30.11-.6,63.9-28.01,79.74Z"/>
      <path class="cls-3" d="M380.03,801.34c-4.41.96-8.67-2.25-9.04-6.76l-1.21-14.1-8.53-99.35c-.4-4.51,3.25-8.4,7.77-8.2,32.14,1.39,59,26.47,61.84,59.37.05.53.09,1.08.11,1.6,1.98,32.24-20.02,60.69-50.94,67.44Z"/>
      <path class="cls-5" d="M378.47,803.26c-1.95,0-3.88-.63-5.49-1.82-2.16-1.6-3.53-4.05-3.75-6.72l-9.75-113.45c-.24-2.68.69-5.33,2.56-7.28,1.84-1.92,4.42-2.96,7.04-2.83l-.16,3.52c-1.63-.04-3.19.55-4.34,1.75-1.16,1.21-1.74,2.86-1.6,4.53l9.75,113.46c.14,1.67.99,3.2,2.34,4.19,1.32.98,3,1.33,4.57,1,30.15-6.58,51.45-34.78,49.56-65.61l3.52-.21c2,32.54-20.49,62.32-52.32,69.26-.64.14-1.29.21-1.93.21Z"/>
      <path class="cls-4" d="M380.03,801.34c-4.41.96-8.67-2.25-9.04-6.76l-1.21-14.1c11.93-1.53,23.52-5.83,33.45-12.62,11.58-7.93,20.08-18.77,26.29-31.26.48-.98.98-1.88,1.45-2.7,1.98,32.24-20.02,60.69-50.94,67.44Z"/>
      <path class="cls-3" d="M488.59,120.83c15.89,0,31.23-1,45.34-3.8l-7.37-37.21c-15.96,3.17-35,3.47-55.02,2.67,14.34-15.19,28.29-29.13,40.83-39.39l-24.01-29.36c-12.29,10.05-25.36,22.83-38.66,36.68.66-19.54,1.41-36.8,2.01-48.5l-37.88-1.93c-.28,5.4-1.23,24.77-2.09,49.76-21.8-20.34-37.76-34.29-39.29-35.62l-24.92,28.59c.37.32,16.05,14.03,37.75,34.27-20.27-.77-39.83-.43-57.04,2.78l6.95,37.29c15.63-2.92,34.38-2.97,54.74-1.95-15.59,16.6-30.05,30.96-40.46,37.9l21.04,31.56c11.56-7.71,25.14-20.57,39.84-35.88.38,22.93,1.49,42.82,3.83,54.49l37.19-7.44c-2.15-10.75-3.04-31.98-3.19-56.95,13.48,14.12,26.45,28.46,37.5,41.99l29.38-23.99c-9.59-11.75-20.44-23.96-31.75-36.08,1.76.02,3.54.1,5.28.1Z"/>
      <path class="cls-1" d="M412.8,205.28l-.34-1.73c-2.02-10.09-3.29-27.09-3.78-50.57-15.61,16.05-27.48,26.6-37.18,33.07l-1.47.98-23-34.49,1.47-.98c8.48-5.65,20.12-16.46,37.53-34.86-21.99-.96-37.68-.29-50.5,2.1l-1.73.32-7.28-39.02,3.46-.65,6.64,35.57c13.53-2.32,30.11-2.83,53.41-1.66l3.8.19-2.6,2.77c-18.07,19.25-30.32,30.83-39.32,37.17l19.09,28.63c9.84-6.83,22-17.89,38.09-34.64l2.96-3.08.07,4.27c.4,24.12,1.57,41.74,3.47,52.45l33.74-6.75c-1.76-10.28-2.74-28.95-2.91-55.56l-.03-4.43,3.06,3.21c14.21,14.87,26.47,28.57,36.48,40.73l28.02-22.87,2.23,2.73-30.75,25.1-1.11-1.36c-9.43-11.56-20.97-24.55-34.34-38.66.26,25.53,1.3,43.07,3.12,52.16l.34,1.73-40.64,8.13Z"/>
      <path class="cls-3" d="M160.35,531.66c15.89,0,31.23-1,45.34-3.8l-7.37-37.21c-15.96,3.17-35,3.47-55.02,2.67,14.34-15.19,28.29-29.13,40.83-39.39l-24.01-29.36c-12.29,10.05-25.36,22.83-38.66,36.68.66-19.54,1.41-36.8,2.01-48.5l-37.88-1.93c-.28,5.4-1.23,24.77-2.09,49.76-21.8-20.34-37.76-34.29-39.29-35.62l-24.92,28.59c.37.32,16.05,14.03,37.75,34.27-20.27-.77-39.83-.43-57.04,2.78l6.95,37.29c15.63-2.92,34.38-2.97,54.74-1.95-15.59,16.6-30.05,30.96-40.46,37.9l21.04,31.56c11.56-7.71,25.14-20.57,39.84-35.88.38,22.93,1.49,42.82,3.83,54.49l37.19-7.44c-2.15-10.75-3.04-31.98-3.19-56.95,13.48,14.12,26.45,28.46,37.5,41.99l29.38-23.99c-9.59-11.75-20.44-23.96-31.75-36.08,1.76.02,3.54.1,5.28.1Z"/>
      <path class="cls-1" d="M121.4,606.94c-1.97-9.85-3.05-29.12-3.22-57.29l-.03-4.43,3.06,3.21c14.23,14.91,26.5,28.61,36.47,40.73l26.66-21.76c-8.71-10.59-18.99-22.24-30.56-34.63l-2.82-3.02,6.27.1c1.05.02,2.09.05,3.12.05,16.72,0,30.9-1.12,43.27-3.43l-6.69-33.75c-13.8,2.54-30.93,3.28-53.7,2.38l.14-3.52c23.45.95,40.8.1,54.61-2.64l1.73-.34,8.05,40.67-1.73.34c-13,2.58-27.94,3.83-45.68,3.83-.39,0-.77,0-1.16-.01,10.96,11.84,20.7,22.97,28.99,33.12l1.11,1.37-32.11,26.21-1.11-1.36c-9.4-11.52-20.94-24.51-34.34-38.66.25,25.52,1.3,43.06,3.12,52.17l-3.45.69Z"/>
      <path class="cls-3" d="M177.57,250.77c-4.83-1.46-10.37-1.83-14.63.85-5.57,3.5-7.13,11.55-4.38,17.53,2.75,5.97,8.93,9.86,15.36,11.24,3.07.66,6.32.81,9.32-.09,3.01-.91,5.76-2.97,7-5.86,1.27-2.93.87-6.37-.37-9.32-2.17-5.19-6.74-12.67-12.31-14.35Z"/>
      <path class="cls-1" d="M183.13,270.48l-3.86-.09c.12-5.29-3.82-10.41-8.96-11.65l.9-3.75c6.84,1.65,12.08,8.46,11.92,15.49Z"/>
      <path class="cls-1" d="M278.54,196.41c-.41.93-1.44,1.69-3.44,2.16-5.17,1.22-10.42,2.25-15.47,3.92-5.18,1.71-10.26,3.69-15.3,5.76-8.88,3.63-17.59,7.7-26.1,12.13-4.67,2.43-9.27,4.97-13.83,7.61-9.44,5.47-18.5,11.74-27.66,17.59-3.21,2.05-3.88,2.47-6.98,4.06-1.87-5.79-4.8-12.4-5.2-18.55-1.8-28.69,15.44-53.83,43.36-61.72,11.83-3.34,24.53-3.32,36.48-.4,4.9,1.19,9.7,2.87,14.13,5.27,4.04,2.18,7.71,5.01,10.94,8.28,2.05,2.08,4.05,4.22,5.85,6.53,1.86,2.39,4.11,5.29,3.2,7.36Z"/>
      <path class="cls-1" d="M199.46,168.54c-1.35,13.98-18.14,23.78-37.49,21.89-12.74-1.24-23.36-7.26-28.76-15.17-1.08.58-2.16,1.12-3.32,1.62-12.93,5.83-26.56,5.02-34.78-1.08-.89,2.01-1.93,4.05-3.17,6.02-7.61,12.04-19.65,18.72-29.8,17.45.39,2.05.66,4.17.73,6.33.5,14.67-6.41,27.18-16.18,30.77.93,1.08,1.85,2.2,2.7,3.4,9.27,13.51,8.92,29.92-.89,36.64-1.58,1.12-3.32,1.85-5.17,2.32,3.05,1.35,6.06,3.2,8.84,5.56,12.08,10.08,15.94,25.32,8.65,34.05-.66.77-1.35,1.43-2.12,2.05,2.78-.12,5.71.12,8.65.73,14.79,3.01,24.98,14.17,22.78,24.86-1.16,5.68-5.64,10.11-11.81,12.51-5.37,2.16-12.05,2.74-18.92,1.31-14.79-3.05-24.98-14.17-22.78-24.86.93-4.52,3.98-8.26,8.26-10.81-6.29-.5-13.13-3.28-19.11-8.26-12.04-10.08-15.94-25.32-8.65-34.05,2.59-3.09,6.18-4.9,10.31-5.56-4.98-2.59-9.69-6.68-13.43-12.12-9.3-13.51-8.92-29.92.85-36.64,2.35-1.58,5.02-2.51,7.88-2.74-2.7-4.94-4.4-10.96-4.67-17.49-.62-17.1,8.92-31.35,21.27-31.81,2.28-.08,4.52.31,6.6,1.12.27-6.33,2.35-13.24,6.41-19.65,7.99-12.7,21-19.5,31.42-17.18,1.97.42,3.82,1.16,5.56,2.24,1.51.97,2.82,2.12,3.94,3.44,3.9-5.21,9.57-9.88,16.64-13.05,16.99-7.64,35.25-3.86,40.77,8.42.04.08.04.15.08.23,4.94-1.31,10.46-1.81,16.18-1.24,19.34,1.89,33.93,14.75,32.54,28.76Z"/>
      <path class="cls-1" d="M188.45,417.53l-2.69-2.27c1.41-1.66,34.6-40.84,50.49-48.56l1.54,3.17c-15.22,7.4-49,47.26-49.34,47.67Z"/>
      <path class="cls-5" d="M106.44,770.65l-1.68-3.1c.69-.37,69.65-37.97,105.97-79.82l2.66,2.31c-36.73,42.33-106.25,80.22-106.95,80.6Z"/>
      <path class="cls-4" d="M335.47,258.99l-2.65-2.32c.21-.24,20.94-24.03,29.14-39.85l3.13,1.62c-8.4,16.19-28.75,39.56-29.62,40.54Z"/>
      <path class="cls-1" d="M225,291.95c-13.27,0-26.3-4.18-37.09-11.9-.56.4-1.15.7-1.65.94-4.31,2.16-9.39,2.51-13.96.95l1.25-3.65c3.53,1.2,7.64.93,10.98-.75.52-.26,1.31-.66,1.52-1.01l1.1-1.88,1.73,1.31c10.96,8.29,24.57,12.56,38.3,12.08l.14,3.86c-.77.03-1.55.04-2.32.04Z"/>
      <path class="cls-4" d="M198.4,243.81c-4.28,2.27-6.73,7.52-5.72,12.26,1.01,4.73,5.39,8.54,10.22,8.87,1.96.13,3.92-.25,5.79-.85,3.25-1.04,6.45-2.9,8.01-5.93,1.33-2.58,1.27-5.78.09-8.43-3.19-7.16-11.57-9.53-18.39-5.91Z"/>
      <path class="cls-4" d="M259.75,213.12c-4.03,2.14-6.35,7.09-5.4,11.56.95,4.46,5.08,8.05,9.63,8.36,1.85.13,3.7-.23,5.46-.8,3.06-.98,6.08-2.73,7.56-5.59,1.26-2.44,1.2-5.45.09-7.95-3.01-6.75-10.91-8.98-17.34-5.57Z"/>
      <path class="cls-1" d="M256.26,247l-3.6-1.41c.55-1.42,1.06-2.86,1.5-4.32-3.24-.24-6-.93-8.4-2.07-3.88-1.85-6.73-4.98-7.84-8.58l3.69-1.13c.79,2.57,2.91,4.85,5.82,6.23,2.47,1.18,5.5,1.77,9.27,1.79l2.48.02-.62,2.4c-.62,2.39-1.39,4.77-2.29,7.07Z"/>
      <path class="cls-1" d="M244.46,272.74c-3.9,0-7.8-.86-11.31-2.54-5.8-2.78-10.51-7.8-12.91-13.77l-1.13-2.8,3.01.15c4.58.23,9.33.47,13.89-.04,4.99-.55,9.2-1.94,12.5-4.13l2.14,3.22c-3.82,2.54-8.61,4.14-14.21,4.76-3.77.41-7.54.36-11.25.21,2.23,3.84,5.62,7,9.63,8.93,4.94,2.37,10.78,2.81,16.03,1.23l1.12,3.69c-2.43.74-4.97,1.1-7.51,1.1Z"/>
      <path class="cls-1" d="M248.36,230.37h-3.86c.02-9.19,8.09-17.62,17.26-18.05l.18,3.86c-7.22.34-13.56,6.97-13.58,14.19Z"/>
      <path class="cls-1" d="M203.6,244.55l-2.88-2.56c3.44-3.87,7.72-6.57,12.38-7.81,4.26-1.13,10.25-.67,13.08,4.37l-3.37,1.89c-1.75-3.11-5.66-3.35-8.73-2.53-3.92,1.04-7.54,3.34-10.48,6.64Z"/>
      <path class="cls-2" d="M356.95,465.38c-5.85,9.3-19.37,11.84-28.14,3.52l-120.99-114.65c-7.68-7.29-5.49-20.08,4.19-24.34,7.4-3.28,15.64-7.04,24.69-11.52.6,2.08,1.06,4.16,1.48,6.06,5.6,24.97,18.53,47.69,34.17,67.74,9.02,11.48,18.99,22.23,29.41,32.41,12.75,12.5,26.31,24.41,41.53,33.74,4.37,2.68,8.91,5.14,13.67,7.04Z"/>
      <path class="cls-5" d="M429.12,566.16c-16.98,6.62-36.53,12.61-57.59,17.4-71.22,16.2-132.55,12.26-136.95-8.81-2.11-10.14,9.3-22.37,29.59-34.13-16.1-3.03-26.52-8.98-28.32-17.58-2.47-11.8,11.84-26.14,36.32-39.03-13.21-2.4-21.77-7.19-23.25-14.2-3.56-16.91,35.75-40.23,87.81-52.06,17.01-3.87,33.29-6.02,47.59-6.59,29.48-1.2,50.72,4.4,53.12,15.82,1.44,6.97-4.4,15.04-15.46,22.97,27.4,1.09,46.18,7.89,48.64,19.73,1.8,8.59-5.28,18.53-18.7,28.25,23.18,1.9,38.43,8.07,40.58,18.18,3.1,14.83-22.86,34.24-63.37,50.05Z"/>
      <path class="cls-1" d="M290.99,595.33c-33.87,0-55.41-7.21-58.14-20.23-2.11-10.06,7.06-21.67,26.56-33.69-14.84-3.52-23.55-9.69-25.29-17.99-2.42-11.54,9.56-25.51,33.01-38.67-11.68-2.89-18.54-7.87-19.95-14.56l3.45-.72c1.25,5.94,9.01,10.49,21.85,12.82l5.02.91-4.52,2.38c-24.36,12.83-37.6,26.71-35.42,37.12,1.57,7.47,11.13,13.23,26.93,16.19l4.66.87-4.1,2.38c-20.13,11.67-30.61,23.42-28.76,32.24,2.95,14.08,36.43,20.5,83.29,15.95l.34,3.51c-10.41,1.01-20.1,1.5-28.94,1.5Z"/>
      <path class="cls-4" d="M429.12,566.16c.04-.07.07-.14.11-.21,7.08-12.72,9.83-28.78,3.45-41.88-6.38-13.1-23.56-21.03-36.49-14.27,12.19-6.23,26.28-15.82,24.76-29.38-1.09-9.97-10.99-17.08-20.92-18.46-9.9-1.34-19.83,1.73-29.38,4.76,9.37-9.83,19.23-20.68,20.71-34.17.74-6.94-6.38-15.25-7.04-21.38,29.48-1.2,50.72,4.4,53.12,15.82,1.44,6.97-4.4,15.04-15.46,22.97,27.4,1.09,46.18,7.89,48.64,19.73,1.8,8.59-5.28,18.53-18.7,28.25,23.18,1.9,38.43,8.07,40.58,18.18,3.1,14.83-22.86,34.24-63.37,50.05Z"/>
      <path class="cls-4" d="M72.26,148.24c-8.61,10.96-12.51,25.52-10.54,39.34-7.06-5.44-17.87-4.21-24.67,1.58-6.76,5.79-9.77,15.13-9.38,24.05.39,8.88,3.78,17.41,7.95,25.29-3.67-3.55-10.42-1.54-13.01,2.86-2.59,4.4-1.89,10.04-.04,14.82,2.9,7.45,8.49,13.86,15.52,17.72-8.84,4.4-11.97,16.33-8.69,25.63,3.28,9.27,11.58,16.02,20.5,20.23-4.13,9.81.85,21.58,8.96,28.49,5.64,4.83,12.39,7.84,19.46,10.23-5.37,2.16-12.05,2.74-18.92,1.31-14.79-3.05-24.98-14.17-22.78-24.86.93-4.52,3.98-8.26,8.26-10.81-6.29-.5-13.13-3.28-19.11-8.26-12.04-10.08-15.94-25.32-8.65-34.05,2.59-3.09,6.18-4.9,10.31-5.56-4.98-2.59-9.69-6.68-13.43-12.12-9.3-13.51-8.92-29.92.85-36.64,2.35-1.58,5.02-2.51,7.88-2.74-2.7-4.94-4.4-10.96-4.67-17.49-.62-17.1,8.92-31.35,21.27-31.81,2.28-.08,4.52.31,6.6,1.12.27-6.33,2.35-13.24,6.41-19.65,7.99-12.7,21-19.5,31.42-17.18-.54.08-1.04.23-1.58.42-4.02,1.54-7.26,4.67-9.92,8.07Z"/>
      <polygon class="cls-4" points="299.57 310.77 306.06 342.6 334.69 327.68 314.14 352.74 343.37 365.69 311.26 365.38 319.06 396.17 299.57 371.01 280.08 396.17 287.89 365.38 255.77 365.69 285 352.74 264.45 327.68 293.09 342.6 299.57 310.77"/>
    </g>
  </g>
</svg>