<?xml version="1.0" encoding="UTF-8"?>
<svg id="Layer_2" data-name="Layer 2" xmlns="http://www.w3.org/2000/svg" viewBox="0 0 829.37 1131.35">
  <defs>
    <style>
      .cls-1 {
        fill: #f5a43c;
      }

      .cls-1, .cls-2, .cls-3, .cls-4, .cls-5, .cls-6, .cls-7 {
        stroke-width: 0px;
      }

      .cls-2 {
        fill: #1f4387;
      }

      .cls-3 {
        fill: #214287;
      }

      .cls-4 {
        fill: #fff;
      }

      .cls-5 {
        fill: #f4a33b;
      }

      .cls-6 {
        fill: #fde758;
      }

      .cls-7 {
        fill: #e11e29;
      }
    </style>
  </defs>
  <g id="FINALIST">
    <g>
      <path class="cls-2" d="M403.78,382.04c30.27-7.08,49.03-14.82,51.65-15.93,100.35-41.27,162.03-99.28,182.98-172.29C667.44,92.68,604.88,3.74,602.2,0l-57.24,41.01,28.62-20.51-28.71,20.38c.46.65,45.58,65.93,25.7,134.04-14.89,51.04-62.77,93.51-142.29,126.21-8.38,3.5-201.05,81.17-382.86-72.27L0,282.68c157.29,132.75,322.24,118.43,403.78,99.36Z"/>
      <path class="cls-1" d="M588.58,1040.42l28.99-64.17c-164.49-74.29-189.26-274.8-189.49-276.82l-69.98,7.79c1.09,9.85,28.9,242.15,230.48,333.2Z"/>
      <path class="cls-1" d="M819.36,802.76l-6.66-70.1c-186.41,17.72-233.09-126.54-234.98-132.68l-67.47,20.16c.64,2.16,16.17,53.42,62.24,101.08,42.42,43.88,119.67,93.64,246.87,81.54Z"/>
      <path class="cls-6" d="M549.86,1130.18c5.12,2.8,11.53.39,13.67-5.05l5.18-13.23,48.17-123.57c2.11-5.43-.97-11.57-6.63-12.97-40.27-9.96-82.65,11.24-98.12,50.95-2.13,5.47-3.66,11.06-4.56,16.64-5.87,34.81,10.95,70.05,42.3,87.22Z"/>
      <path class="cls-6" d="M819.23,900.57c5.81.31,10.57-4.65,10.11-10.46l-1.35-18.2-9.56-128.21c-.42-5.82-5.87-10.03-11.58-8.84-40.63,8.38-69.66,45.82-66.51,88.29.05.68.11,1.39.19,2.06,4.11,41.45,37.95,73.14,78.7,75.36Z"/>
      <path class="cls-6" d="M373.6,760.77c6.5.4,13.3.37,20.23-.17,42.41-3.27,73.59-23.55,69.7-45.3-1.73-9.61-10.02-17.84-22.35-23.81-4.7-2.27-5.99-9.49-2.25-12.37,9.9-7.68,15.05-16.98,13.33-26.55-1.73-9.61-10.03-17.88-22.36-23.84-4.69-2.23-5.98-9.45-2.22-12.38,9.87-7.64,15.02-16.93,13.29-26.54-3.93-21.75-41.44-36.76-83.85-33.49-5.95.43-11.68,1.25-17.11,2.36,33.54,1.96,60.45,15.45,63.71,33.67,1.73,9.61-3.39,18.89-13.29,26.54-3.72,2.91-2.43,10.14,2.22,12.38,12.33,5.97,20.63,14.24,22.36,23.84,1.72,9.57-3.4,18.86-13.29,26.54-3.77,2.88-2.44,10.1,2.22,12.38,12.33,5.97,20.62,14.2,22.35,23.81,3.34,18.72-19.25,36.34-52.67,42.92Z"/>
      <path class="cls-3" d="M309.97,727.08c3.3,18.21,30.08,31.69,63.63,33.69,33.42-6.58,56.01-24.2,52.67-42.92-1.73-9.61-10.02-17.84-22.35-23.81-4.66-2.27-5.99-9.49-2.22-12.38,9.9-7.68,15.01-16.97,13.29-26.54-1.73-9.61-10.03-17.88-22.36-23.84-4.65-2.24-5.94-9.46-2.22-12.38,9.91-7.64,15.02-16.93,13.29-26.54-3.26-18.22-30.17-31.71-63.71-33.67-33.34,6.6-55.94,24.18-52.56,42.9,1.73,9.61,9.99,17.89,22.36,23.84,4.65,2.24,5.94,9.46,2.22,12.38-9.91,7.64-15.02,16.93-13.29,26.54,1.72,9.57,9.98,17.85,22.31,23.81,4.7,2.27,5.98,9.45,2.25,12.37-9.9,7.68-15.05,16.98-13.33,26.55Z"/>
      <path class="cls-1" d="M314.85,534.8c52.81-34.98,97.42-52.71,130.84-61.66,42.65-11.36,67.1-8.37,67.1-8.37,0,0-29.17-80.93-54.63-123-20.86-34.55-53.12-75.43-96.78-64.35-9.5,2.37-19.61,7.28-30.2,15.24-59.32,44.41-16.32,242.14-16.32,242.14Z"/>
      <circle class="cls-5" cx="384.88" cy="168.11" r="78.19"/>
      <g>
        <path class="cls-7" d="M406.36,176.13c-2.95,4.36-3.99,9.96-2.82,15.09.54,2.35,1.55,4.64,3.23,6.37,1.7,1.75,3.98,2.83,6.3,3.58,4.69,1.51,9.87,1.75,14.54.17,4.67-1.57,8.77-5.06,10.61-9.64,2.1-5.21,1.05-11.43-2.23-15.99-7.94-11.04-22.04-10.84-29.64.41Z"/>
        <path class="cls-7" d="M314.14,156.63c-2.65,3.92-3.59,8.96-2.53,13.58.49,2.12,1.4,4.18,2.91,5.74,1.53,1.58,3.58,2.55,5.67,3.22,4.22,1.36,8.88,1.57,13.08.15s7.89-4.56,9.55-8.67c1.89-4.69.95-10.29-2-14.39-7.14-9.93-19.83-9.75-26.67.37Z"/>
        <path class="cls-2" d="M354.23,190.23l3.99-1.86c-1.17-2.51-2.25-5.09-3.21-7.71,3.71,0,6.96-.78,9.72-2.34,5.33-3.02,7.64-8.47,6.51-15.35l-4.34.72c.84,5.07-.62,8.71-4.34,10.81-3.41,1.94-7.57,1.93-10.45,1.58l-3.43-.41,1.09,3.28c1.26,3.83,2.77,7.63,4.48,11.28Z"/>
        <g>
          <path class="cls-4" d="M383.01,164.12c2.28-4.21,5.99-6.13,10.61-6.97,2.39-.45,4.92-.5,7.36-.2,6.72.8,13.15,4.31,15.6,10.92,2.59,7-6.37,10.88-11.97,11.43-2.76.27-5.54.11-8.24-.49-1.77-.39-3.48-.98-5.08-1.78-4.35-2.15-10.99-7.91-8.28-12.9Z"/>
          <path class="cls-2" d="M383.01,164.12c2.28-4.21,5.99-6.13,10.61-6.97,2.39-.45,4.92-.5,7.36-.2,2.29,2.06,3.61,5.14,3.76,8.3.13,3.48-1.1,6.94-3.16,9.78-1.34,1.88-3.15,3.12-5.21,3.78-1.77-.39-3.48-.98-5.08-1.78-4.35-2.15-10.99-7.91-8.28-12.9Z"/>
        </g>
        <g>
          <path class="cls-4" d="M335.71,141.74c4.28-2.13,8.43-1.57,12.69.4,2.21,1.01,4.32,2.42,6.14,4.07,5.04,4.51,8.28,11.09,6.49,17.9-1.9,7.21-11.47,5.24-16.36,2.47-2.41-1.36-4.6-3.1-6.46-5.14-1.23-1.34-2.28-2.81-3.13-4.38-2.33-4.26-4.44-12.79.64-15.32Z"/>
          <path class="cls-2" d="M335.71,141.74c4.28-2.13,8.43-1.57,12.69.4,2.21,1.01,4.32,2.42,6.14,4.07.69,3,0,6.28-1.7,8.95-1.9,2.92-4.89,5.04-8.21,6.19-2.17.77-4.37.74-6.43.1-1.23-1.34-2.28-2.81-3.13-4.38-2.33-4.26-4.44-12.79.64-15.32Z"/>
        </g>
        <path class="cls-2" d="M378.72,223.76c13.26-4.27,23.37-16.95,24.58-30.83l.34-3.91-3.52,1.75c-16.39,8.17-36.39,9.13-53.5,2.58l-1.57,4.11c16.94,6.48,36.53,6.06,53.25-1.01-2.4,10.58-10.57,19.78-20.94,23.12l1.35,4.19Z"/>
      </g>
      <path class="cls-5" d="M462.82,174.35c3.71-2.03,9.09-1.61,11.34,1.97,1.05,1.67,1.27,3.73,1.27,5.71,0,7.16-2.63,14.29-7.29,19.74-3.17,3.71-11.63,9.61-16.27,4.79-1.95-2.03-1.61-6.14-1.5-8.76.13-3.16.69-6.31,1.66-9.32,1.86-5.74,5.38-11.17,10.78-14.13Z"/>
      <path class="cls-2" d="M457.52,195.82c-.49-4.91,1.51-9.98,5.21-13.24l-2.91-3.3c-4.75,4.18-7.31,10.69-6.68,16.98l4.38-.43Z"/>
      <path class="cls-2" d="M308.32,137.39c-2.85-11.35-2.09-23.72,2.96-34.27,2.88-6.02,7.25-11.33,12.53-15.38-.97-1.73-1.86-3.5-2.56-5.31-2.49-6.47-2.87-13.95.03-20.24.97-2.1,2.36-4.11,4.38-5.24,6.21-3.46,13.48,2.35,16.9,7.24-4.04-5.79-3.8-14.74,1.71-19.17,2.57-2.06,6.03-2.06,9.04-1.09,1.57.51,3.06,1.26,4.42,2.19.68.47,1.33.98,1.94,1.54.4.37.9,1.19,1.49,1.11-.17-1.63-.57-3.04-.27-4.74.27-1.49.87-2.97,1.62-4.24,2.56-4.36,7.53-6.38,12.45-5.93,9.18.83,15.93,7.84,19.97,15.63.78,1.51,1.48,3.03,2.3,4.51,3.35,6.01,7.57,10.15,13.32,13.9,13.53,8.82,29.28,14.34,41.15,25.62,22.21,21.11,21.34,56.5,11.64,83.16-4.33-6.62-13.21-7.99-20.44-11.2-15.85-7.05-21.75-21.08-25.23-36.82-.92-4.16-1.73-8.34-2.61-12.51-6.47.67-12.87,2.06-19.33,2.94-4.19.57-8.45.89-12.69.88-12.46-.04-25.03-3.42-35.88-9.56-2.78-1.57-5.54-3.42-8.2-5.5-13.41,9.75-23.45,23.52-28.53,39.29-.52-1.85-.93-3.83-1.28-5.84-.45,0-.69-.53-.81-.97Z"/>
      <path class="cls-6" d="M361.37,277.43c4.28,2.63,8.75,5.29,10.93,7.75,23.89,27.16,39.26,60.74,51.57,94.71,10.92,30.08,19.76,61.49,21.82,93.25,42.65-11.36,67.1-8.37,67.1-8.37,0,0-29.17-80.93-54.63-123-20.86-34.55-53.12-75.43-96.78-64.35Z"/>
      <path class="cls-3" d="M819.23,900.57c5.81.31,10.57-4.65,10.11-10.46l-1.35-18.2c-15.49.5-31.14-2.59-45.17-9.18-16.36-7.72-29.42-19.76-39.89-34.38-.81-1.15-1.64-2.19-2.4-3.14,4.11,41.45,37.95,73.14,78.7,75.36Z"/>
      <path class="cls-3" d="M549.86,1130.18c5.12,2.8,11.53.39,13.67-5.05l5.18-13.23c-6.09-3.22-11.22-6.23-12.81-7.28-12.67-8.07-23.82-18.46-32.86-30.43-7.06-9.38-10.37-21.03-15.48-31.23-5.87,34.81,10.95,70.05,42.3,87.22Z"/>
      <path class="cls-2" d="M516.06,467.4l-1.21-3.36c-.29-.81-29.54-81.62-54.82-123.4-31.9-52.81-64.28-74.25-99.21-65.34l1.09,4.27c32.9-8.45,63.6,12.42,94.36,63.35,22.2,36.69,47.58,104,53.27,119.42-8.23-.41-30.55-.31-64.42,8.69l1.13,4.25c41.64-11.11,66.03-8.34,66.27-8.31l3.55.43Z"/>
      <polygon class="cls-6" points="399.45 320.6 400.62 361.16 361.54 351.17 393.67 375.8 361.8 399.88 400.78 390.36 400.05 430.04 416.6 393.88 447.47 418.94 429.22 383.71 468.37 374.94 429.13 367.51 447 331.18 416.4 357.47 399.45 320.6"/>
      <path class="cls-2" d="M613.7,979.59l.43-4.38c-14.76-1.46-27.89-10.41-39.48-18.31-17.1-11.66-34.78-23.71-47.93-40.04l-3.43,2.76c13.57,16.84,31.52,29.08,48.88,40.92,12.02,8.2,25.65,17.49,41.52,19.06Z"/>
      <path class="cls-2" d="M810.54,738.87l-.52-4.37c-42.1,5.01-85.57.44-125.71-13.21l-1.42,4.16c40.76,13.86,84.9,18.5,127.65,13.41Z"/>
      <path class="cls-2" d="M415.68,759.48c19.75-4.62,35.83-13.19,44.22-24.02,5.03-6.5,7.03-13.6,5.79-20.55-1.8-10.04-9.95-18.82-23.55-25.4-1.69-.82-2.93-2.72-3.15-4.85-.17-1.63.31-3.05,1.28-3.8,10.93-8.49,15.95-18.67,14.15-28.68-1.78-9.91-10.15-18.94-23.57-25.44l-1.92,3.96c12.11,5.86,19.63,13.76,21.15,22.25,1.49,8.32-2.95,17-12.52,24.42-2.18,1.68-3.29,4.57-2.96,7.73.38,3.67,2.53,6.88,5.61,8.36,12.11,5.86,19.62,13.75,21.14,22.21,1.03,5.77-.63,11.51-4.94,17.08-10.55,13.64-34.6,23.47-62.76,25.65l.34,4.39c7.56-.59,14.85-1.71,21.69-3.31Z"/>
      <path class="cls-6" d="M593.47,268.07c17.49-17.45,30.77-48.29,37.13-65.12,11.78-31.2,11.54-75.09,6.33-102.67l-4.32.82c5.1,26.99,5.36,69.88-6.12,100.29-6.23,16.5-19.21,46.69-36.12,63.56l3.11,3.12Z"/>
      <path class="cls-5" d="M519.21,538.42c-2.51,4.41,1.7,10.99,7.25,11.3,14.69.82,26.31,5.54,31.91,14.32,5.64,8.8,4.31,20.11-2.41,31.8-2.5,4.45,1.71,11.02,7.26,11.34,14.69.82,26.31,5.54,31.91,14.32,9.82,15.39-1.49,38.6-25.92,57.9,3.34-1.53,6.7-3.18,10.06-4.99,40.06-21.55,63.26-54.04,51.82-72.63-5.06-8.15-16.02-12.24-30.12-12.41-5.34-.09-9.14-6.21-6.53-10.57,6.93-11.47,8.64-22.35,3.61-30.55-5.07-8.19-16.02-12.24-30.13-12.45-5.33-.05-9.14-6.21-6.52-10.53,6.93-11.47,8.63-22.38,3.61-30.55-9.88-15.97-42.09-16.43-76.43-2.56,15.23.61,27.3,5.39,33.03,14.41,5.64,8.8,4.31,20.11-2.4,31.84Z"/>
      <path class="cls-3" d="M419.86,572.73c5.07,8.19,16.02,12.24,30.12,12.41,5.34.09,9.14,6.21,6.53,10.57-6.93,11.47-8.64,22.35-3.61,30.55,5.07,8.19,16.03,12.28,30.13,12.45,5.33.05,9.14,6.21,6.52,10.53-6.93,11.47-8.63,22.38-3.6,30.58,10.52,17,46.49,16.38,83.26-.42,24.44-19.31,35.75-42.52,25.92-57.9-5.6-8.77-17.22-13.5-31.91-14.32-5.55-.32-9.77-6.89-7.26-11.34,6.72-11.7,8.05-23,2.41-31.8-5.6-8.77-17.22-13.5-31.91-14.32-5.55-.32-9.77-6.89-7.25-11.3,6.71-11.73,8.04-23.04,2.4-31.84-5.73-9.02-17.8-13.8-33.03-14.41-5.62,2.26-11.26,4.92-16.89,7.93-40.1,21.55-63.26,54.07-51.82,72.63Z"/>
      <path class="cls-2" d="M599.38,664.42c30.13-21.85,43.63-47.49,33.59-63.8-5.28-8.5-16.63-13.28-31.97-13.46-2.18-.04-3.78-1.51-4.53-2.87-.83-1.49-.88-3.12-.13-4.37,7.59-12.56,8.87-24.22,3.59-32.82-5.33-8.61-16.38-13.27-31.97-13.5l-.06,4.4c13.82.2,23.86,4.25,28.29,11.4,4.37,7.12,3.08,17.15-3.62,28.25-1.57,2.62-1.54,5.89.06,8.77,1.73,3.11,4.92,5.08,8.32,5.14,13.8.16,23.84,4.2,28.29,11.37,8.61,14-4.72,37.82-32.43,57.93l2.59,3.56Z"/>
    </g>
  </g>
</svg>