<?xml version="1.0" encoding="UTF-8"?>
<svg xmlns="http://www.w3.org/2000/svg" xmlns:xlink="http://www.w3.org/1999/xlink" viewBox="0 0 1939.32 917.86">
  <defs>
    <style>
      .cls-1 {
        isolation: isolate;
      }

      .cls-2 {
        fill: none;
      }

      .cls-2, .cls-3, .cls-4 {
        stroke-width: 0px;
      }

      .cls-3 {
        fill: #bf2027;
      }

      .cls-4 {
        fill: url(#New_Pattern_3);
        mix-blend-mode: multiply;
        opacity: .9;
      }

      .cls-5 {
        mask: url(#mask);
      }
    </style>
    <filter id="luminosity-noclip" x="-4.86" y="-6644.42" width="1944.18" height="32766" color-interpolation-filters="sRGB" filterUnits="userSpaceOnUse">
      <feFlood flood-color="#fff" result="bg"/>
      <feBlend in="SourceGraphic" in2="bg"/>
    </filter>
    <mask id="mask" x="-4.86" y="-6644.42" width="1944.18" height="32766" maskUnits="userSpaceOnUse"/>
    <pattern id="New_Pattern_3" data-name="New Pattern 3" x="0" y="0" width="147.14" height="103.97" patternTransform="translate(-5501.45 -3144.63)" patternUnits="userSpaceOnUse" viewBox="0 0 147.14 103.97">
      <g>
        <rect class="cls-2" width="147.14" height="103.97"/>
        <g>
          <path class="cls-3" d="M131.59,103.11c-1.15-.99-1.89-2.17-2.24-3.65-.53-2.29-4.06-1.32-3.53.97.47,2.04,1.59,3.9,3.18,5.26.75.64,1.85.74,2.59,0,.66-.66.75-1.94,0-2.59Z"/>
          <path class="cls-3" d="M133.85,75.74c-.3-.5-.61-1.01-.91-1.51-.4-.66-1.35-.97-2.03-.53-.67.43-.96,1.32-.53,2.03l.91,1.51c.4.66,1.35.97,2.03.53.67-.43.96-1.32.53-2.03Z"/>
          <path class="cls-3" d="M101.69,105.59l-.4-2.33c-.15-.85-1.23-1.4-2.02-1.14-.91.3-1.3,1.11-1.14,2.02l.4,2.33c.15.85,1.23,1.4,2.02,1.14.91-.3,1.3-1.11,1.14-2.02Z"/>
          <path class="cls-3" d="M115.41,59.92c-1.31.06-2.43,1.07-2.43,2.43v2.48c0,1.27,1.12,2.49,2.43,2.43,1.31-.06,2.43-1.07,2.43-2.43v-2.48c0-1.27-1.12-2.49-2.43-2.43Z"/>
        </g>
        <g>
          <path class="cls-3" d="M10.64,73.85c-3.12,0-3.13,4.85,0,4.85s3.13-4.85,0-4.85Z"/>
          <path class="cls-3" d="M6.98,91.24c-1.31.06-2.43,1.07-2.43,2.43v1.98c0,1.27,1.12,2.49,2.43,2.43,1.31-.06,2.43-1.07,2.43-2.43v-1.98c0-1.27-1.12-2.49-2.43-2.43Z"/>
          <path class="cls-3" d="M9.57,56.25c-.17-.83-.33-1.65-.5-2.48-.25-1.25-1.8-2.08-2.98-1.69-1.32.43-1.96,1.65-1.69,2.98.17.83.33,1.65.5,2.48.25,1.25,1.8,2.08,2.98,1.69,1.32-.43,1.96-1.65,1.69-2.98Z"/>
          <path class="cls-3" d="M33.93,94.72c-1.22-.28-2.71.37-2.98,1.69-.17.82-.35,1.65-.52,2.47-.26,1.24.36,2.68,1.69,2.98,1.22.28,2.71-.37,2.98-1.69.17-.82.35-1.65.52-2.47.26-1.24-.36-2.68-1.69-2.98Z"/>
          <path class="cls-3" d="M48.34,75.95l-.97-1.01c-.42-.44-1.11-.71-1.72-.71s-1.31.26-1.72.71c-.42.46-.74,1.07-.71,1.72.03.65.25,1.24.71,1.72.32.34.65.68.97,1.01.42.44,1.11.71,1.72.71s1.31-.26,1.72-.71c.42-.46.74-1.07.71-1.72-.03-.65-.25-1.24-.71-1.72Z"/>
        </g>
        <g>
          <path class="cls-3" d="M131.59-.86c-1.15-.99-1.89-2.17-2.24-3.65-.53-2.29-4.06-1.32-3.53.97.47,2.04,1.59,3.9,3.18,5.26.75.64,1.85.74,2.59,0,.66-.66.75-1.94,0-2.59Z"/>
          <path class="cls-3" d="M126.58,6.11s-.04-.03-.07-.05c-.09-.05-.18-.1-.26-.15-.01,0-.02-.02-.04-.02-.07-.07-.22-.18-.24-.2-.07-.07-.14-.15-.21-.22-.13-.24-.27-.45-.38-.7-.52-1.16-2.3-1.53-3.32-.87-1.21.78-1.42,2.07-.87,3.32.76,1.72,2.29,2.88,4,3.53,1.19.45,2.71-.5,2.98-1.69.31-1.34-.38-2.43-1.59-2.94Z"/>
          <path class="cls-3" d="M142.82,21.45c-.83-.17-1.65-.33-2.48-.5-1.24-.25-2.68.36-2.98,1.69-.28,1.21.36,2.72,1.69,2.98.83.17,1.65.33,2.48.5,1.24.25,2.68-.36,2.98-1.69.28-1.21-.36-2.72-1.69-2.98Z"/>
          <path class="cls-3" d="M101.69,1.62l-.4-2.33c-.15-.85-1.23-1.4-2.02-1.14-.91.3-1.3,1.11-1.14,2.02l.4,2.33c.15.85,1.23,1.4,2.02,1.14.91-.3,1.3-1.11,1.14-2.02Z"/>
          <path class="cls-3" d="M112.55,12.66l-.99-1.98c-.57-1.14-2.27-1.55-3.32-.87-1.16.75-1.48,2.1-.87,3.32.33.66.66,1.32.99,1.98.57,1.14,2.27,1.55,3.32.87,1.16-.75,1.48-2.1.87-3.32Z"/>
          <path class="cls-3" d="M137.94,47.85c-.66-.66-1.32-1.32-1.98-1.98-.9-.9-2.55-.97-3.43,0-.89.97-.96,2.47,0,3.43l1.98,1.98c.9.9,2.55.97,3.43,0,.89-.97.96-2.47,0-3.43Z"/>
          <path class="cls-3" d="M146.82,11.43c-.5-.17-.99-.33-1.49-.5-.58-.19-1.35-.06-1.87.24-.5.29-.98.87-1.12,1.45-.31,1.34.4,2.55,1.69,2.98.5.17.99.33,1.49.5.58.19,1.35.06,1.87-.24.5-.29.98-.87,1.12-1.45.31-1.34-.4-2.55-1.69-2.98Z"/>
          <path class="cls-3" d="M125.74,32.12c-1.56,0-1.56,2.43,0,2.43s1.56-2.43,0-2.43Z"/>
        </g>
        <g>
          <path class="cls-3" d="M58.02,51.12c-1.15-.99-1.89-2.17-2.24-3.65-.53-2.29-4.06-1.32-3.53.97.47,2.04,1.59,3.9,3.18,5.26.75.64,1.85.74,2.59,0,.66-.66.75-1.94,0-2.59Z"/>
          <path class="cls-3" d="M60.28,23.76c-.3-.5-.61-1.01-.91-1.51-.4-.66-1.35-.97-2.03-.53-.67.43-.96,1.32-.53,2.03l.91,1.51c.4.66,1.35.97,2.03.53.67-.43.96-1.32.53-2.03Z"/>
          <path class="cls-3" d="M84.21,21.86c-3.12,0-3.13,4.85,0,4.85s3.13-4.85,0-4.85Z"/>
          <path class="cls-3" d="M80.55,39.25c-1.31.06-2.43,1.07-2.43,2.43v1.98c0,1.27,1.12,2.49,2.43,2.43,1.31-.06,2.43-1.07,2.43-2.43v-1.98c0-1.27-1.12-2.49-2.43-2.43Z"/>
          <path class="cls-3" d="M53.01,58.09s-.04-.03-.07-.05c-.09-.05-.18-.1-.26-.15-.01,0-.02-.02-.04-.02-.07-.07-.22-.18-.24-.2-.07-.07-.14-.15-.21-.22-.13-.24-.27-.45-.38-.7-.52-1.16-2.3-1.53-3.32-.87-1.21.78-1.42,2.07-.87,3.32.76,1.72,2.29,2.88,4,3.53,1.19.45,2.71-.5,2.98-1.69.31-1.34-.38-2.43-1.59-2.94Z"/>
          <path class="cls-3" d="M69.25,73.43c-.83-.17-1.65-.33-2.48-.5-1.24-.25-2.68.36-2.98,1.69-.28,1.21.36,2.72,1.69,2.98.83.17,1.65.33,2.48.5,1.24.25,2.68-.36,2.98-1.69.28-1.21-.36-2.72-1.69-2.98Z"/>
          <path class="cls-3" d="M83.14,4.27c-.17-.83-.33-1.65-.5-2.48-.25-1.25-1.8-2.08-2.98-1.69-1.32.43-1.96,1.65-1.69,2.98.17.83.33,1.65.5,2.48.25,1.25,1.8,2.08,2.98,1.69,1.32-.43,1.96-1.65,1.69-2.98Z"/>
          <path class="cls-3" d="M107.51,42.73c-1.22-.28-2.71.37-2.98,1.69-.17.82-.35,1.65-.52,2.47-.26,1.24.36,2.68,1.69,2.98,1.22.28,2.71-.37,2.98-1.69.17-.82.35-1.65.52-2.47.26-1.24-.36-2.68-1.69-2.98Z"/>
          <path class="cls-3" d="M28.12,53.6l-.4-2.33c-.15-.85-1.23-1.4-2.02-1.14-.91.3-1.3,1.11-1.14,2.02l.4,2.33c.15.85,1.23,1.4,2.02,1.14.91-.3,1.3-1.11,1.14-2.02Z"/>
          <path class="cls-3" d="M38.98,64.65l-.99-1.98c-.57-1.14-2.27-1.55-3.32-.87-1.16.75-1.48,2.1-.87,3.32.33.66.66,1.32.99,1.98.57,1.14,2.27,1.55,3.32.87,1.16-.75,1.48-2.1.87-3.32Z"/>
          <path class="cls-3" d="M64.37,99.84c-.66-.66-1.32-1.32-1.98-1.98-.9-.9-2.55-.97-3.43,0-.89.97-.96,2.47,0,3.43l1.98,1.98c.9.9,2.55.97,3.43,0,.89-.97.96-2.47,0-3.43Z"/>
          <path class="cls-3" d="M73.25,63.42c-.5-.17-.99-.33-1.49-.5-.58-.19-1.35-.06-1.87.24-.5.29-.98.87-1.12,1.45-.31,1.34.4,2.55,1.69,2.98.5.17.99.33,1.49.5.58.19,1.35.06,1.87-.24.5-.29.98-.87,1.12-1.45.31-1.34-.4-2.55-1.69-2.98Z"/>
          <path class="cls-3" d="M93.38,88.23c-1.31.06-2.43,1.07-2.43,2.43v2.48c0,1.27,1.12,2.49,2.43,2.43,1.31-.06,2.43-1.07,2.43-2.43v-2.48c0-1.27-1.12-2.49-2.43-2.43Z"/>
          <path class="cls-3" d="M84.69,55.73c-.42-.42-1.11-.74-1.72-.71-.63.03-1.28.23-1.72.71-.44.47-.71,1.06-.71,1.72v.99c0,.62.27,1.28.71,1.72.42.42,1.11.74,1.72.71.63-.03,1.28-.23,1.72-.71.44-.47.71-1.06.71-1.72v-.99c0-.62-.27-1.28-.71-1.72Z"/>
          <path class="cls-3" d="M41.84,7.93c-1.31.06-2.43,1.07-2.43,2.43v2.48c0,1.27,1.12,2.49,2.43,2.43,1.31-.06,2.43-1.07,2.43-2.43v-2.48c0-1.27-1.12-2.49-2.43-2.43Z"/>
          <path class="cls-3" d="M52.17,84.11c-1.56,0-1.56,2.43,0,2.43s1.56-2.43,0-2.43Z"/>
          <path class="cls-3" d="M121.91,23.97l-.97-1.01c-.42-.44-1.11-.71-1.72-.71s-1.31.26-1.72.71c-.42.46-.74,1.07-.71,1.72.03.65.25,1.24.71,1.72.32.34.65.68.97,1.01.42.44,1.11.71,1.72.71s1.31-.26,1.72-.71c.42-.46.74-1.07.71-1.72-.03-.65-.25-1.24-.71-1.72Z"/>
        </g>
        <g>
          <path class="cls-3" d="M-.32,11.43c-.5-.17-.99-.33-1.49-.5-.58-.19-1.35-.06-1.87.24-.5.29-.98.87-1.12,1.45-.31,1.34.4,2.55,1.69,2.98.5.17.99.33,1.49.5.58.19,1.35.06,1.87-.24.5-.29.98-.87,1.12-1.45.31-1.34-.4-2.55-1.69-2.98Z"/>
          <path class="cls-3" d="M19.81,36.24c-1.31.06-2.43,1.07-2.43,2.43v2.48c0,1.27,1.12,2.49,2.43,2.43,1.31-.06,2.43-1.07,2.43-2.43v-2.48c0-1.27-1.12-2.49-2.43-2.43Z"/>
          <path class="cls-3" d="M11.12,3.74c-.42-.42-1.11-.74-1.72-.71-.63.03-1.28.23-1.72.71-.44.47-.71,1.06-.71,1.72v.99c0,.62.27,1.28.71,1.72.42.42,1.11.74,1.72.71.63-.03,1.28-.23,1.72-.71.44-.47.71-1.06.71-1.72v-.99c0-.62-.27-1.28-.71-1.72Z"/>
        </g>
      </g>
    </pattern>
  </defs>
  <g class="cls-1">
    <g id="Layer_2" data-name="Layer 2">
      <g id="CHANTS_PAGE" data-name="CHANTS PAGE">
        <g class="cls-5">
          <rect class="cls-4" width="1939.32" height="917.86"/>
        </g>
      </g>
    </g>
  </g>
</svg>