<?xml version="1.0" encoding="UTF-8"?>
<svg id="Layer_2" data-name="Layer 2" xmlns="http://www.w3.org/2000/svg" viewBox="0 0 1010.44 274.52">
  <defs>
    <style>
      .cls-1 {
        fill: #fff;
        stroke-width: 0px;
      }
    </style>
  </defs>
  <g id="CHANTS_PAGE" data-name="CHANTS PAGE">
    <g>
      <path class="cls-1" d="M3.83,247.62c3.12,5.51,8.51,6.04,13.6,6.97-3.92-5.29-8.1-7.58-13.6-6.97Z"/>
      <path class="cls-1" d="M17.53,254.7s.06-.05.08-.07c-.07,0-.12-.03-.18-.04.04.05.07.07.1.12Z"/>
      <path class="cls-1" d="M1006.66,7.79c-1.27.11-2.72.21-4.2.34,1.41.17,2.84.18,4.2-.34Z"/>
      <path class="cls-1" d="M264.47,270.56l.78-9.13c12.09-.13,3.52,10.45,14.7,8.2,4.37-12.92,18.58,1.34,22.44-5.53-.09,1.03,5.39,1.42,5.04,5.46.87-8.8,14.55,2.55,7.23-7.64l7.91-2.48c3.09,2.26,3.86,6.39.49,7.15,20.67,2.51,119.93,9.24,142.2,5.74-2.86-5.3-9.74-1.72-12.35-10.05,5.89-4.67,8.67,1.63,11.26-3.28,2.26,12.39,12.94,2.97,17.4,15.52l1.69-7.02,2.93,4.3c25.89-7.31,5.92-3.57,28.87-1.91,13.28-1.08,19.6-10.82,26.99-7.23-1.1-.07-4.03-4.37-.59-6.17.59,6.17,9.16-4.43,10.84,1.8,3.37-.78,14.29.02,10.6-8.41,1.85,4.21,11.6,5.93,5.8,9.58,3.29.25,6.47,1.49,8.84-.37l-4.22-2.35c11.1-1.22,17.15,5.3,24.38-2.32l-4.1-3.35c6.64-.53,12.19-1.16,14.79,7.18l-6.81,2.57c11.01-.22,17.65-.76,26.82-5.2l-3.27-.23c7.31-9.52,99.29-15.29,78.64-32.12l9.26-5.45c-1.1-.08-4.47,21.02-5.39,18.91,13.1,3.09,163.98-16.29,142.64,10.04,9-2.42,3.88-6.87,11.53-6.31,2.09,1.17-.43,5.08-1.61,6,3.35-.77,6.46,1.48,6.72-1.55-4.19-2.35-2.42-10.38-4.19-15.59l9.84.7-.44,5.07c2.19.15,5.56-13.86,15.23-11.14,16.31,2.19,34.03.42,50.43,1.59-.26,3.04-3.7,4.84-7.15,6.62,2.2.16,5.55-.62,7.58,1.56-3.96-5.37,6.88-3.58,3.79-5.84,12.01-12.39,27.56-1.07,38.16-9.49.93-11.15,22.71-191.48,22.71-204.73,3.29.24,6.57.48,7.57,1.57-.85-3.12-7.32-4.6-10.76-2.82l-.59,7.1c-7.91,2.49-1.85-4.22-9.58-3.74-.41-5.81,6.7-7.06,12.96-7.61-5.64-.68-11.25-4.91-13.55,1.45-5.3-2.42.59-7.1-5.79-9.59-4.54,1.71-10.51,7.4-15.73,3.96-8.85-8.98-20.53,8.33-30.92,1.86,3.66-6.7-11.81-.38-18.32-4.37,2.11,1.17,3.94,5.38-.5,6.07-8.5-3.66-14.3,0-20.52-4.53l-5.97,5.69c-29.6-1.11-146.53,6.98-176.27,7.89l1.16-.91c-56.61-1.09-155.43,12.93-209.94,4.39,4.2,2.34,2.76,6.31-.52,6.08-23.02-.65-1.55,3.87-24.84,6.27-51.91,8.56-148.65-11.06-194.48,1.74l1.26-1.95c-13.45,3.11-89.59-4.54-105.23-1.59l2.1,1.18c-13.63,5.13-11.78-3.91-22.52-6.72,1.41,9.27-10.27,14.53-14.73,15.23l.17-2.03c-6.72,1.56-21.94,9.61-33.03,10.85l.43-5.07c-32.71,13.37-57.09-10.05-92.3-.51l-13.14-14.45c-7.36,3.24-18.13,177.81,3.35,218.13l5.31-.65c6.37,2.49,9.32-3.37,8.88,1.68l-8.73-.62c6.4,1.47,1.93,4.15-.51,7.01,2.67.49,5.27,1.1,7.39,2.65,1.26-1.95-.93-2.1-1.92-3.2,3.44-1.78,8.24-6.54,12.43-4.21,6.55.48.42,8.19,8.07,8.74,40.34,3.91,79.43,9.78,120.2,8.64.93,2.1-.18,2.02-1.35,2.97,13.65.07,36.92-9.31,39.26,3.83-1.85-4.2,61.77-4.58,62.78-3.49Z"/>
    </g>
  </g>
</svg>