<?xml version="1.0" encoding="UTF-8" standalone="no"?>
<!DOCTYPE svg PUBLIC "-//W3C//DTD SVG 1.1//EN" "http://www.w3.org/Graphics/SVG/1.1/DTD/svg11.dtd">
<svg width="100%" height="100%" viewBox="0 0 1011 275" version="1.1" xmlns="http://www.w3.org/2000/svg" xmlns:xlink="http://www.w3.org/1999/xlink" xml:space="preserve" xmlns:serif="http://www.serif.com/" style="fill-rule:evenodd;clip-rule:evenodd;stroke-linejoin:round;stroke-miterlimit:2;">
    <g id="CHANTS_PAGE">
        <g>
            <path d="M3.83,247.62C6.95,253.13 12.34,253.66 17.43,254.59C13.51,249.3 9.33,247.01 3.83,247.62Z" style="fill:rgb(244,163,59);fill-rule:nonzero;"/>
            <path d="M17.53,254.7C17.53,254.7 17.59,254.65 17.61,254.63C17.54,254.63 17.49,254.6 17.43,254.59C17.47,254.64 17.5,254.66 17.53,254.71L17.53,254.7Z" style="fill:rgb(244,163,59);fill-rule:nonzero;"/>
            <path d="M1006.66,7.79C1005.39,7.9 1003.94,8 1002.46,8.13C1003.87,8.3 1005.3,8.31 1006.66,7.79Z" style="fill:rgb(244,163,59);fill-rule:nonzero;"/>
            <path d="M264.47,270.56L265.25,261.43C277.34,261.3 268.77,271.88 279.95,269.63C284.32,256.71 298.53,270.97 302.39,264.1C302.3,265.13 307.78,265.52 307.43,269.56C308.3,260.76 321.98,272.11 314.66,261.92L322.57,259.44C325.66,261.7 326.43,265.83 323.06,266.59C343.73,269.1 442.99,275.83 465.26,272.33C462.4,267.03 455.52,270.61 452.91,262.28C458.8,257.61 461.58,263.91 464.17,259C466.43,271.39 477.11,261.97 481.57,274.52L483.26,267.5L486.19,271.8C512.08,264.49 492.11,268.23 515.06,269.89C528.34,268.81 534.66,259.07 542.05,262.66C540.95,262.59 538.02,258.29 541.46,256.49C542.05,262.66 550.62,252.06 552.3,258.29C555.67,257.51 566.59,258.31 562.9,249.88C564.75,254.09 574.5,255.81 568.7,259.46C571.99,259.71 575.17,260.95 577.54,259.09L573.32,256.74C584.42,255.52 590.47,262.04 597.7,254.42L593.6,251.07C600.24,250.54 605.79,249.91 608.39,258.25L601.58,260.82C612.59,260.6 619.23,260.06 628.4,255.62L625.13,255.39C632.44,245.87 724.42,240.1 703.77,223.27L713.03,217.82C711.93,217.74 708.56,238.84 707.64,236.73C720.74,239.82 871.62,220.44 850.28,246.77C859.28,244.35 854.16,239.9 861.81,240.46C863.9,241.63 861.38,245.54 860.2,246.46C863.55,245.69 866.66,247.94 866.92,244.91C862.73,242.56 864.5,234.53 862.73,229.32L872.57,230.02L872.13,235.09C874.32,235.24 877.69,221.23 887.36,223.95C903.67,226.14 921.39,224.37 937.79,225.54C937.53,228.58 934.09,230.38 930.64,232.16C932.84,232.32 936.19,231.54 938.22,233.72C934.26,228.35 945.1,230.14 942.01,227.88C954.02,215.49 969.57,226.81 980.17,218.39C981.1,207.24 1002.88,26.91 1002.88,13.66C1006.17,13.9 1009.45,14.14 1010.45,15.23C1009.6,12.11 1003.13,10.63 999.69,12.41L999.1,19.51C991.19,22 997.25,15.29 989.52,15.77C989.11,9.96 996.22,8.71 1002.48,8.16C996.84,7.48 991.23,3.25 988.93,9.61C983.63,7.19 989.52,2.51 983.14,0.02C978.6,1.73 972.63,7.42 967.41,3.98C958.56,-5 946.88,12.31 936.49,5.84C940.15,-0.86 924.68,5.46 918.17,1.47C920.28,2.64 922.11,6.85 917.67,7.54C909.17,3.88 903.37,7.54 897.15,3.01L891.18,8.7C861.58,7.59 744.65,15.68 714.91,16.59L716.07,15.68C659.46,14.59 560.64,28.61 506.13,20.07C510.33,22.41 508.89,26.38 505.61,26.15C482.59,25.5 504.06,30.02 480.77,32.42C428.86,40.98 332.12,21.36 286.29,34.16L287.55,32.21C274.1,35.32 197.96,27.67 182.32,30.62L184.42,31.8C170.79,36.93 172.64,27.89 161.9,25.08C163.31,34.35 151.63,39.61 147.17,40.31L147.34,38.28C140.62,39.84 125.4,47.89 114.31,49.13L114.74,44.06C82.03,57.43 57.65,34.01 22.44,43.55L9.3,29.1C1.94,32.34 -8.83,206.91 12.65,247.23L17.96,246.58C24.33,249.07 27.28,243.21 26.84,248.26L18.11,247.64C24.51,249.11 20.04,251.79 17.6,254.65C20.27,255.14 22.87,255.75 24.99,257.3C26.25,255.35 24.06,255.2 23.07,254.1C26.51,252.32 31.31,247.56 35.5,249.89C42.05,250.37 35.92,258.08 43.57,258.63C83.91,262.54 123,268.41 163.77,267.27C164.7,269.37 163.59,269.29 162.42,270.24C176.07,270.31 199.34,260.93 201.68,274.07C199.83,269.87 263.45,269.49 264.46,270.58L264.47,270.56Z" style="fill:rgb(244,163,59);fill-rule:nonzero;"/>
        </g>
    </g>
</svg>
